<svg xmlns="http://www.w3.org/2000/svg" xmlns:xlink="http://www.w3.org/1999/xlink" width="276" height="382" viewBox="0 0 276 382">
    <defs>
        <path id="a" d="M84.61.207C79.852.22 68.016 3.435 55.265 7.016c-1.857.522-3.552.999-4.987 1.392-4.569 1.253-5.915 2.231-7.732 3.72-1.495 1.233-3.358 2.764-10.015 5.508-5.634 2.321-10.503 7.105-14.46 12.222 2.071-.578 3.993-1.285 4.966-2.327 3.706-3.971 7.359-5.644 10.87-5.076 3.072.531 5.129 2.733 6.283 4.399 2.095-.87 4.443-1.182 6.852-.497.479-.212 1.468-1.904 2.121-3.021 1.963-3.355 4.927-8.422 11.41-10.816 5.465-2.015 7.926-1.517 10.165-.788 1.202.398 1.875.619 4.976-1.189 5.635-3.277 11.461-.814 15.715.991 2.055.873 4.621 1.961 5.473 1.473 4.533-2.582 1.782-10.158 1.754-10.233a2.364 2.364 0 0 1-.146-.894c-.924-.137-1.878-.287-2.867-.443-3.818-.606-7.76-1.23-10.951-1.23h-.082z"/>
    </defs>
    <g fill="none" fill-rule="evenodd">
        <path fill="#281586" d="M172.994 358.479s-7-62 37-116c28.23-34.646 97.17-73.956 48-171-46.303-91.388-152.83-83.227-202-25-15.75 18.653-22.84 64.343-51 99-13 16 5.825 19.767 11 34 5.177 14.233-14.764 32.358-7 66 7.765 33.642 93.291 50.071 70 129 0 0 46 14 94-16"/>
        <path fill="#140963" d="M78.995 374.479s40-47 94-16c-14.15 16.758-65 30-94 16"/>
        <path fill="#281586" d="M18.994 303.479c0-16 46-9 38 45s-32 30-27 8-11-37-11-53M225.039 11.05s32.25 39.559 40.45 21.649c8.202-17.91-58.628-48.287-40.45-21.65M239.994 251.479a9 9 0 0 1-9 9 9 9 0 0 1-9-9 9 9 0 0 1 9-9 9 9 0 0 1 9 9"/>
        <g transform="translate(54 17)">
            <path fill="#140963" d="M4.603 77.329c-.296.17-.577.27-.863.395-.535 1.279-1.104 3.27-.762 6.573.823 7.995 9.98 14.277 14.702 15.865 1.913.64 3.157 1.389 4.595 2.256 1.79 1.077 3.823 2.299 7.419 3.549 1.996.69 4.244 1.153 6.435 1.485 4.186-5.245 8.442-6.363 10.925-7.007.552-.143 1.122-.292 1.357-.411a143.315 143.315 0 0 1 3.802-1.856c-6.071-2.174-13.105-6.736-14.726-15.47a2.35 2.35 0 0 1 1.893-2.742 2.352 2.352 0 0 1 2.75 1.889C43.8 90.844 53.2 94.03 57.9 94.918l-.005-.01c-1.662-3.412-3.937-8.083-1.705-11.75a2.366 2.366 0 0 1 3.247-.79 2.354 2.354 0 0 1 .794 3.238c-.897 1.473.864 5.088 1.916 7.245.363.745.677 1.4.928 2.01 2.918-.185 5.832.364 9.043 1.936 6.6 3.235 15.685-.664 21.982-5.4 4.402-3.306 7.72-3.881 11.058-3.796-6.353-9.472-2.844-15.633-2.668-15.927.656-1.1 2.058-1.455 3.178-.824 1.119.63 1.516 2.06.91 3.189-.115.217-2.7 5.373 5.008 14.145 1.81.404 3.848 1.379 6.159 2.535 4.02 2.015 9.02 4.525 12.63 3.297 1.765-.594 3.195-2.066 4.379-4.496 3.04-6.245 3.903-12.1 4.599-16.805.828-5.61 1.544-10.451 6.39-10.797a2.352 2.352 0 0 1 2.526 2.18 2.35 2.35 0 0 1-2.185 2.517c-1.064.08-1.547 3.34-2.056 6.79-.705 4.759-1.667 11.276-5.023 18.175-1.737 3.57-4.13 5.894-7.111 6.9-5.48 1.847-11.461-1.142-16.267-3.548-2.14-1.067-4.45-2.184-5.457-2.247a93.706 93.706 0 0 1-2.301-.183c-4.264-.372-6.614-.578-10.925 2.663-9.607 7.217-19.663 9.414-26.907 5.858-3.03-1.482-5.625-1.826-8.606-1.222-.042.012-.08.032-.124.039-.006.002-.015 0-.022.002-2.937.62-6.256 2.14-10.741 4.403-.69.346-1.434.539-2.297.764-2.187.565-5.301 1.382-8.535 5.517-1.108 2.225-1.574 4.224-1.926 5.795-.656 2.917.619 5.024 1.549 6.56.94 1.556 1.339 2.3.888 3.638-1.318 3.899.522 7.058 4.985 10.948a49.292 49.292 0 0 1-.21-2.99c-.177-4.088.828-5.88 2.06-7.642.754-1.077 1.21-1.727.926-4.267-.406-3.607.656-6.781 3.075-9.186 2.737-2.722 7.128-4.182 11.184-3.72a2.357 2.357 0 0 1 2.08 2.609 2.358 2.358 0 0 1-2.614 2.073c-2.2-.251-5.313.388-7.311 2.375-1.384 1.379-1.963 3.169-1.722 5.33.448 3.98-.526 5.743-1.741 7.482-.75 1.069-1.34 1.918-1.218 4.746.215 4.927.479 6.276 3.192 9.113 1.115.803 2.28 1.638 3.523 2.523 8.354 5.95 12.773 5.719 16.676 5.507 1.855-.102 3.453-.172 5.523.439 6.065 1.804 11.9-.452 17.046-2.472a62.178 62.178 0 0 1 4.866-1.704c2.022-.615 3.508.336 4.63.464.003 0 .008 0 .01.002 9.376 3.467 17.935.54 25.343-.804 5.468-.99 10.556-2.065 15.55-1.406 1.766.235 3.528.807 5.275 1.53.132-.165.253-.338.433-.47.073-.05 7.037-5.277 6.207-11.025-.331-.927-.562-2.09-.818-3.426-.296-1.558-.993-5.202-1.811-5.703-1.02-.46-4.065-.201-6.505.01-2.624.232-5.54.48-8.098.142-2.087 4.825-6.456 8.24-12.52 9.73-.054.016-4.065.984-6.96.654-1.035-.118-1.93-.403-2.446-.958a2.35 2.35 0 0 1 .112-3.33c.722-.68 1.765-.8 2.616-.412 1.524.229 11.424-.118 14.758-7.351a5.818 5.818 0 0 1-1.906-2.7c-.572-1.632-.62-3.927-.455-6.092-3.643 1.905-7.39 2.67-11.443 1.235-7.986-2.822-17.941-5.51-24.098-1.16-.01.009-.024.01-.035.019-.013.008-.017.022-.03.03-7.855 5.159-5.278 12.664-5.147 13.03a2.351 2.351 0 0 1-1.384 3.022c-.363.136-.737.178-1.097.136a2.362 2.362 0 0 1-1.946-1.512c-1.47-3.89-1.897-12.788 6.972-18.615.02-.014.048-.014.07-.028 7.874-5.442 18.705-2.717 28.268.662 3.812 1.34 7.653-.52 11.796-3.621.068-.045.12-.113.193-.15 1.784-1.348 3.62-2.917 5.538-4.556a160.86 160.86 0 0 1 5.453-4.49c1.87-1.461 3.208-3.03 4.185-4.687.063-.103.108-.244.183-.337 2.109-3.774 2.418-8.16 2.772-13.26.154-2.26.307-4.521.649-6.93 1.4-9.863 7.864-11.707 11.092-11.34l.02.004c1.29.147 2.236 1.15 2.1 2.445-.136 1.296-1.281 2.083-2.578 1.947-.198-.02-4.817-.415-5.935 7.466-.32 2.24-.477 4.49-.625 6.67-.352 5.083-.724 10.28-3.256 15.005.015.22.034.454.053.716.457 6.294 1.737 12.22 7.98 12.933 1.649.188 3.488-.124 5.433-.456 3.688-.63 7.879-1.345 12.112 1.167 1.568.926 2.63 2.388 3.072 4.227 1.418 5.896-3.967 14.609-4.585 15.584a2.37 2.37 0 0 1-3.262.728 2.353 2.353 0 0 1-.735-3.251c1.924-3.038 4.705-8.973 3.985-11.968-.145-.604-.418-.995-.885-1.27-2.745-1.628-5.597-1.141-8.905-.574-2.185.369-4.445.756-6.764.49-8.28-.944-10.801-7.771-11.68-12.96-.471.434-.964.862-1.5 1.28-1.821 1.423-3.58 2.929-5.3 4.399-1.84 1.573-3.654 3.123-5.47 4.517-.505 2.146-.924 6.348-.346 8.004.65 1.86 6.02 1.385 9.569 1.075 3.619-.317 6.74-.594 8.907.408 3 1.383 3.78 5.483 4.47 9.102.21 1.103.448 2.355.663 2.852.04.09.032.186.059.28.028.095.087.17.104.27 1.114 6.735-4.051 12.259-6.657 14.572l.33.162c5.078 2.55 9.875 4.968 14.514 3.316 9.02-3.192 12.153-.471 13.135.996 1.488.129 3.149.132 5.163-.264 6.334-1.243 9.578-6.768 14.144-16.646-.195-.4-.435-.74-.732-.963-.57-.427-1.494-.435-2.735-.025a2.363 2.363 0 0 1-2.983-1.503 2.349 2.349 0 0 1 1.504-2.971c3.513-1.152 5.797-.223 7.088.764l.002.004a923.56 923.56 0 0 1 2.215-4.872c1.248-2.715 2.13-5.264 2.75-7.68-.3.11-.686.39-1.2.93-1.918 2.016-5.187 2.573-8.647 2.178l-.166-.018c-3.608-.413-6.576-1.835-8.077-4.533-.953-1.715-1.628-3.681-2.287-6.223-1.857-7.138-3.578-12.172-8.654-11.582-1.294.15-2.463-.811-2.614-2.103-.148-1.295.79-2.518 2.086-2.668 9.547-1.068 12.109 8.522 13.782 14.958.58 2.243 1.159 4.126 1.819 5.316.752 1.352 2.482 1.873 4.542 2.108l.104.012c1.954.223 3.794.212 4.685-.724 2.167-2.28 4.087-2.415 5.51-2.2.87-6.572-.223-11.803-1.274-15.694-1.134 1.414-2.69 2.584-4.874 2.335a6.406 6.406 0 0 1-1.13-.242c-5.038-1.565-5.136-6.103-5.222-10.102-.07-3.347-.154-7.14-2.438-10.874-5.03-8.22-9.937-8.57-14.137-8.245-2.03.15-3.174-.695-3.78-1.433-1.802-2.198-.798-5.725.268-9.456.5-1.757 1.07-3.752 1.053-4.85-.07-4.99-5.987-12.715-9.646-13.8-.614-.177-.69-.061-.802.1-4.111 6.12-8.427 6.056-8.905 6.03-.035-.003-.064-.024-.102-.028-.043-.005-.088.01-.13.002l-.375-.062c-13.88-2.188-21.781-1.817-23.461 1.098-1.671 2.894-3.6 4.084-5.304 5.14-2.18 1.356-4.234 2.615-6.403 8.365-1.914 5.075-2.265 9.036-.994 11.214.605 1.038 1.63 1.607 3.028 1.83 1.289.202 2.186 1.275 1.982 2.56-.198 1.25-1.32 1.847-2.568 1.705-.033-.004-.07-.01-.102-.012-2.846-.325-5.065-1.628-6.398-3.92-2.057-3.523-1.864-8.398.63-15.011 2.73-7.245 5.836-9.17 8.328-10.717 1.527-.945 2.629-1.63 3.706-3.501 3.66-6.346 16.353-5.275 28.293-3.401l.126.019c.423-.062 2.438-.53 4.726-3.937 1.347-2.006 3.554-2.737 6.07-1.99 5.873 1.735 12.938 11.63 13.033 18.253.027 1.786-.586 3.932-1.235 6.202-.413 1.456-1.064 3.74-1.092 4.878 5.66-.38 12.217.67 18.232 10.516 2.948 4.819 3.048 9.479 3.128 13.225.094 4.377.379 5.229 1.902 5.703.602.164 1.123-.524 2.277-2.86.203-.413.423-.848.662-1.274-.946-4.33-3.13-13.62-5.247-17.66-.984-1.877-2.67-6.207-4.301-10.397-1.578-4.052-3.067-7.88-4.001-9.69-.088-.171-8.801-16.624-13.504-20.623-4.286-7.918-16.873-14.042-21.59-16.12-2.404-.372-8.97-.656-12.4 2.452-.111.616 1.366 2.635 2.075 3.605 1.706 2.33 3.467 4.738 2.874 7.408-.33 1.467-1.31 2.662-2.92 3.545-3.786 2.078-8.061.125-11.772-1.867-3.257-1.742-8.112-2.155-11.61.873-1.22 1.057-2.556 1.814-3.974 2.249-6.346 1.944-8.456 5.413-6.846 11.255.568 2.059.337 3.783-.682 5.127-1.955 2.579-5.962 2.608-10.204 2.637-2.91.023-6.207.047-8.016.986-5.163 2.679-12.35 15.796-10.327 23.99 2.59 10.54-.734 12.709-2.283 13.153-.31.087-.621.109-.922.075a2.354 2.354 0 0 1-.906-4.388c.196-.368.88-2.174-.482-7.72-2.641-10.712 6.068-25.833 12.73-29.291 2.817-1.462 6.552-1.49 10.164-1.518 1.935-.014 5.966-.045 6.469-.77.003-.001.11-.263-.105-1.04-2.285-8.29 1.273-14.327 10.01-17.002.783-.24 1.547-.68 2.268-1.305 5.198-4.501 12.255-3.983 16.95-1.462 2.807 1.505 5.63 2.782 7.252 1.888.478-.265.584-.442.586-.442.114-.615-1.365-2.636-2.076-3.607-1.843-2.52-4.928-6.736-1.32-9.994 2.607-2.354 6.11-3.3 9.213-3.626-1.91-1.486-4.713-3.115-9.092-4.61-6.437.728-9.152 4.539-10.611 6.638-.644.924-1.107 1.59-1.975 1.93-3.192 1.25-5.736-.16-7.595-1.188-1.773-.982-2.405-1.21-3.181-.843-.854.406-1.165 1.087-1.773 2.794-.772 2.17-1.833 5.146-5.76 6.993-1.094.515-2.376 1.632-3.732 2.812-3.548 3.093-8.49 7.398-16.465 6.487-2.39-.273-5.054-1.013-8.033-2.4a2.35 2.35 0 0 1-1.146-3.128 2.359 2.359 0 0 1 3.138-1.14c10.132 4.705 14.843.6 19.396-3.37 1.612-1.403 3.132-2.73 4.824-3.522 2.15-1.015 2.669-2.47 3.325-4.314.665-1.864 1.492-4.186 4.194-5.47 3.089-1.46 5.64-.053 7.506.983 1.499.827 2.305 1.21 3.148 1.044l.248-.357c1.02-1.468 2.888-4.132 6.258-6.15-6.147-1.207-10.925-1.203-14.114-1.194-.7.005-1.328.007-1.875-.008-1.518-.036-4.213-.84-6.82-1.62-3.38-1.011-6.872-2.052-9.478-1.99-.06.003-.144-.007-.204-.006.859 3.09 2.288 11.006-4.236 14.718-2.883 1.643-6.18.246-9.663-1.228-3.882-1.644-7.901-3.348-11.48-1.258-4.58 2.67-6.55 2.352-8.833 1.597-1.325-.431-2.688-.877-7.053.732-4.895 1.805-7.151 5.668-8.968 8.772-1.706 2.922-3.645 6.236-7.462 5.156-3.164-.906-6.507 1.376-7.902 4.077-.654 1.258-1.812 4.472 1.488 7.124 4.685 3.779 14.11 3.622 23.033-3.977a2.365 2.365 0 0 1 3.332.262 2.35 2.35 0 0 1-.262 3.322c-7.071 6.028-14.611 8.046-20.727 7.348-3.291-.376-6.173-1.54-8.346-3.288-4.102-3.304-5.144-8.268-2.72-12.954.62-1.2 1.508-2.335 2.558-3.34-.658-.935-1.727-2.1-3.135-2.342-2.262-.302-4.852 1.766-6.607 3.642-2.354 2.524-6.42 3.515-10.003 4.386-.646.159-1.613.394-2.58.67-2.6 4.094-4.558 7.877-5.771 10.224-.506.974-.863 1.68-1.077 2.016C6.25 49.439 5.73 51.1 5.01 53.402c-.7 2.229-1.566 5.002-3.214 8.908-2.147 5.097-1.76 8.797-.668 11.345a3.578 3.578 0 0 0 1.12-.416c1.335-.766 3.185-2.772 4.416-7.968 1.13-4.786 3.327-8.171 6.525-10.07 4.175-2.467 8.463-1.342 8.642-1.29a2.356 2.356 0 0 1 1.659 2.893 2.363 2.363 0 0 1-2.901 1.65c-.025.003-2.55-.637-4.985.8-2.055 1.22-3.513 3.609-4.34 7.103-1.297 5.488-3.538 9.178-6.662 10.972m74.373 51.289c-2.644 2.455-5.13 5.753-5.175 6.577.79 1.663.338 2.743-.18 3.35-1.148 1.35-2.734.9-3.891.57-1.866-.525-3.522-.872-4.99.257a2.366 2.366 0 0 1-1.708.472 2.358 2.358 0 0 1-1.606-.905 2.35 2.35 0 0 1 .432-3.304c2.604-2 5.415-1.894 7.445-1.481.76-3.255 4.125-6.833 6.45-8.992a2.373 2.373 0 0 1 3.339.123 2.358 2.358 0 0 1-.116 3.333m-65.121-44.13c.617-5.57 5.148-6.781 8.107-7.24 2.154-.331 4.014-.62 5.246-2.038C36 65.074 47.453 65.204 55.814 65.303c8.695.098 11.546-.276 12.062-5.134 1.246-11.75 2.702-12.942 12.273-15.867 5.636-1.723 6.543-3.585 6.645-3.85a2.356 2.356 0 0 1 2.123-2.293 2.36 2.36 0 0 1 2.59 2.107c.09.89.038 5.5-9.974 8.557-7.96 2.433-7.962 2.45-8.961 11.877-1.011 9.526-9.05 9.467-16.817 9.379-8.26-.097-17.63-.141-24.992 8.345-2.365 2.726-5.556 3.345-8.107 3.739-3.39.527-3.915 1.1-4.107 2.847-.143 1.293-1.37 2.749-2.668 2.6h-.007c-1.293-.147-2.167-1.83-2.02-3.121"/>
            <path fill="#140963" d="M104.958 152.11l-.045.521c-.113 1.35-.54 8.545 2.773 12.84 1.342 1.743 3.326 3.621 5.075 5.276.685.65 1.601 1.515 1.965 1.912 1.788 3.083 5.166 5.61 10.013 7.53 1.69 10.182 3.724 20.581 4.275 22.665 1.07 4.048-6.658 2.73-9.058 2.674-2.4-.055-6.998-13.45-9.956-20.116-2.959-6.664-8.097-15.322-14.419-21.28-2.485-2.342-4.137-5.396-5.236-8.245 7.248-3.648 10.176-4.766 14.613-3.778"/>
            <path fill="#140963" d="M119.507 153.468c4.134-.322 8.003-1.006 11.642-1.663 5.175-.936 9.693-1.736 13.742-1.275.107.013.214.025.318.04 2.662.354 5.614 1.836 8.738 3.406 3.604 1.812 7.53 3.782 11.66 4.253 2.138.244 4.332.088 6.567-.705 3.165-1.123 5.07-1.286 6.202-1.186-.496 4.342-2.936 15.607-15.199 18.458-8.55 1.986-16.074.042-19.475.41-2.887.316-6.336 2.366-15.104 1.365a8.317 8.317 0 0 1-1.966-.493 28.437 28.437 0 0 1-3.1-1.38c-1.99-1.047-4.069-2.522-5.14-4.506-.564-1.045-5.22-4.847-7.279-7.517-2.365-3.068-1.837-9.332-1.837-9.332 3.595.413 6.992.376 10.231.125"/>
            <mask id="b" fill="#fff">
                <use xlink:href="#a"/>
            </mask>
            <path fill="#140963" d="M103.015-.436L20.089-9.902l-4.79 41.965 82.925 9.465z" mask="url(#b)"/>
        </g>
    </g>
</svg>
