<svg xmlns="http://www.w3.org/2000/svg" width="552" height="618" viewBox="0 0 552 618">
    <g fill="none" fill-rule="evenodd">
        <g fill="#281586" fill-rule="nonzero">
            <path stroke="#432CB4" stroke-width="5" d="M499.81 240.692a4.179 4.179 0 0 0-5.17-2.865l-154.08 44.182a4.179 4.179 0 0 0-2.864 5.168l26.877 93.732a4.179 4.179 0 0 0 5.169 2.866l154.08-44.182a4.179 4.179 0 0 0 2.865-5.169l-26.877-93.732z"/>
            <path stroke="#FF8F5E" stroke-width="2" d="M501.251 240.278a5.679 5.679 0 0 0-7.024-3.893l-154.08 44.182a5.679 5.679 0 0 0-3.893 7.024l26.877 93.732a5.679 5.679 0 0 0 7.024 3.893l154.08-44.181a5.679 5.679 0 0 0 3.894-7.024l-26.878-93.733z"/>
            <path stroke="#432CB4" stroke-width="5" d="M428.468 145.065a4.179 4.179 0 0 0-5.906-.206L305.334 254.176a4.179 4.179 0 0 0-.206 5.906l66.5 71.314a4.179 4.179 0 0 0 5.907.206l117.228-109.317a4.179 4.179 0 0 0 .207-5.906l-66.502-71.314z"/>
            <path stroke="#9781FF" stroke-width="2" d="M429.565 144.042a5.679 5.679 0 0 0-8.026-.28L304.311 253.079a5.679 5.679 0 0 0-.28 8.026l66.5 71.314a5.679 5.679 0 0 0 8.027.28l117.228-109.317a5.679 5.679 0 0 0 .28-8.026l-66.5-71.314z"/>
            <path stroke="#432CB4" stroke-width="5" d="M305.434 102.628a4.179 4.179 0 0 0-5.4 2.404l-57.442 149.643a4.179 4.179 0 0 0 2.404 5.399l91.033 34.944a4.179 4.179 0 0 0 5.399-2.404l57.442-149.643a4.179 4.179 0 0 0-2.403-5.399l-91.033-34.944z"/>
            <path stroke="#27AAFF" stroke-width="2" d="M305.971 101.228a5.679 5.679 0 0 0-7.337 3.266l-57.442 149.643a5.679 5.679 0 0 0 3.266 7.337l91.033 34.944a5.679 5.679 0 0 0 7.337-3.266l57.443-149.644a5.679 5.679 0 0 0-3.267-7.336l-91.033-34.944z"/>
            <g>
                <path stroke="#432CB4" stroke-width="5" d="M174.195 137.044a4.179 4.179 0 0 0-2.774 5.218l46.864 153.285a4.179 4.179 0 0 0 5.218 2.775l93.249-28.51a4.179 4.179 0 0 0 2.774-5.217l-46.864-153.286a4.179 4.179 0 0 0-5.218-2.774l-93.249 28.509z"/>
                <path stroke="#FFC600" stroke-width="2" d="M173.757 135.61a5.679 5.679 0 0 0-3.77 7.09l46.864 153.286a5.679 5.679 0 0 0 7.09 3.77l93.25-28.509a5.679 5.679 0 0 0 3.77-7.09L274.096 110.87a5.679 5.679 0 0 0-7.09-3.77l-93.25 28.508z"/>
                <path stroke="#432CB4" stroke-width="5" d="M79.828 210.043a4.179 4.179 0 0 0-.103 5.909L191.07 331.255a4.179 4.179 0 0 0 5.91.103l70.142-67.736a4.179 4.179 0 0 0 .103-5.909L155.879 142.411a4.179 4.179 0 0 0-5.909-.104l-70.142 67.736z"/>
                <path stroke="#FF9C9C" stroke-width="2" d="M78.786 208.964a5.679 5.679 0 0 0-.14 8.03l111.346 115.303a5.679 5.679 0 0 0 8.03.14l70.143-67.736a5.679 5.679 0 0 0 .14-8.03L156.958 141.37a5.679 5.679 0 0 0-8.03-.14l-70.142 67.735z"/>
                <path stroke="#432CB4" stroke-width="5" d="M39.545 333.8a4.179 4.179 0 0 0 2.497 5.356l150.623 54.822a4.179 4.179 0 0 0 5.356-2.497l33.35-91.63a4.179 4.179 0 0 0-2.497-5.355L78.25 239.673a4.179 4.179 0 0 0-5.356 2.498L39.545 333.8z"/>
                <path stroke="#1DD4B6" stroke-width="2" d="M38.135 333.287a5.679 5.679 0 0 0 3.394 7.278l150.623 54.823a5.679 5.679 0 0 0 7.279-3.394l33.35-91.63a5.679 5.679 0 0 0-3.394-7.278L78.764 238.264a5.679 5.679 0 0 0-7.279 3.394l-33.35 91.629z"/>
            </g>
        </g>
        <path fill="#281586" stroke="#432CB4" stroke-width="4" d="M350.218 420.923c-.48-1.308-.427-2.7-.37-4.093-.457-4.632-1.725-9.136-3.257-13.598-.61-2.117-2.085-2.714-4.465-2.06-6.378 1.564-9.502 6.21-10.446 12.448a60.596 60.596 0 0 0-.843 10.373c-.124 4.447-.02 8.582.128 12.986-.059 1.393.696 2.657.91 4.007.086.54.214 1.35-.013 1.662-2.674 4.022-3.07 8.512-3.417 13.272-.153 2.515-.04 4.987-.191 7.502.043.27-.186.583-.367 1.165-.358-.497-.358-.497-.4-.767l-2.95-18.628c-.3-1.89-.285-3.552-.584-5.442-.999-4.546-1.145-8.951-1.021-13.399.277-6.962.244-14.152-.062-21.299-.219-6.607-.75-13.441-1.235-20.006-.274-5.215-.82-10.387-.824-15.644-.216-6.607-.707-13.171-2-19.609-.384-2.43-1.31-4.773-3.222-6.408-.581-.184-.667-.724-.752-1.264-.526-1.577-1.774-2.487-3.248-3.083-.584-.185-.936-.682-1.56-1.137l-3.233.512c-1.175 1.293-2.035 2.813-3.21 4.106-2.166 2.004-3.127 4.646-3.24 7.432-.63 6.465-.726 12.845-1.046 19.537.033 1.932-.206 3.907-.219 5.57l-.538.085c-.357-.497-.667-.725-1.021-1.222-4.443-5.385-9.684-5.385-15.576-2.514-2.294 1.193-3.298 3.566-4.302 5.939-1.23 2.686-2.191 5.328-3.382 8.284-.364 1.165-1.132 1.563-2.563 1.237-5.454-1.35-10.526-.27-14.235 4.191-3.213 4.107-6.156 8.17-8.433 12.96-.368 1.164-1.132 1.562-2.295 1.193-4.07-1.293-8.023-.113-11.22 2.33-4.418 3.468-7.505 8.384-10.902 13.073-1.766 2.77-1.253 6.01-1.28 9.336.105 4.134.208 8.269.535 12.092.105 4.134.747 8.183.807 12.048.231 4.945-.079 9.975-.114 14.962-.08 4.718.956 9.535 1.954 14.081 1.223 4.234 2.176 8.511 3.127 12.789 1.952 8.823 3.32 17.465 6.346 26.115 1.092 3.425 2.685 6.493 3.507 9.96.999 4.547 1.726 9.14 2.138 13.5.375 4.09.747 8.183 1.12 12.275.175 6.337.62 12.632.527 19.014-.277 6.963-1.639 29.573-2.188 36.578 23.376-14.609 46.147-16.84 68.313-6.694 2.813-22.564 3.547-29.022 4.481-33.597.889-4.843 2.089-9.463 2.708-14.266.629-6.465 1.884-12.475 5.153-17.971 1.275-2.42 3.13-4.647 4.672-7.108 2.674-4.021 5.389-7.772 7.797-11.751 2.858-4.604 5.943-9.52 8.486-14.351 3.593-6.934 7.146-14.136 10.115-21.527 1.003-2.373.8-5.385.91-8.17.225-5.57.758-10.913.977-16.483.224-5.57.489-10.87.441-16.397.197-2.245.347-4.76.005-6.92-.113-2.472-.727-4.589-1.378-6.976-1.097-3.424-2.458-6.806-3.555-10.23z"/>
        <path fill="#281586" stroke="#432CB4" stroke-width="2" d="M291.839 431.71c-.038-.545-.364-1.344-.133-1.908.67-6.075 1.064-12.13 1.735-18.205.372-2.492.181-5.22.55-7.711.392-2.22 1.349-4.204 2.03-6.17l.545-.038c-1.375 11.604-2.77 22.936-3.909 33.975l-.818.058zM270.06 436.824l-.115-1.636c.437-5.51.871-11.021 1.053-16.24.12-2.2-.052-4.654.339-6.874.138-1.927.837-3.62 1.522-5.586l.272-.02c-.674 9.912-1.6 20.115-2.525 30.318l-.547.038zM246.875 443.243l.038.546c-.215.837-.41 1.946-1.517 1.75-.272.019-.914-1.307-.97-2.125l.604-14.838-.275.02c.18-1.383.356-2.766.804-4.167-.019-.273.778-.602 1.03-.894.31.526.892 1.034.93 1.579.172 2.454.05 4.655-.067 6.855-.004 3.836-.281 7.691-.577 11.274z"/>
        <path fill="#140963" fill-rule="nonzero" d="M243.366 609.627c19.158-17.158 40.614-19.106 64.37-5.844-19.404 13.391-40.86 15.34-64.37 5.844z"/>
        <g stroke-width="2">
            <path stroke="#A2ACE3" stroke-linecap="round" d="M201 80a8 8 0 1 1-16 0 8 8 0 0 1 16 0z"/>
            <path stroke="#FFC600" stroke-linecap="round" d="M270 343.5a5.5 5.5 0 1 1-11 0 5.5 5.5 0 1 1 11 0z"/>
            <g stroke="#A2ACE3" stroke-linecap="round">
                <path d="M468.995 412.195h13M474.407 405.195l2.136 14"/>
            </g>
            <g stroke="#1DD4B6" stroke-linecap="round">
                <path d="M7.851 222.888l9.994.354M1.073 204.492l18.544 8.951M19.55 197.686l6.285 9.028"/>
            </g>
            <path stroke="#FF9C9C" d="M80.963 424.176L68 418.889 73.664 405l12.964 5.287z"/>
            <g stroke="#A2ACE3" stroke-linecap="round">
                <path d="M393.47 101.603l.792 9.968M410.972 92.766l-6.773 19.445M419.845 110.344l-8.25 7.275"/>
            </g>
            <g stroke-linecap="round">
                <path stroke="#1DD4B6" d="M287.5 1.284v39"/>
                <path stroke="#A2ACE3" d="M301.5 41.284v22"/>
            </g>
            <g stroke-linecap="round">
                <path stroke="#A2ACE3" d="M514 224.284l23-12"/>
                <path stroke="#FFC600" d="M533 224.284l18-10"/>
            </g>
        </g>
    </g>
</svg>
