<svg xmlns="http://www.w3.org/2000/svg" width="494" height="538" viewBox="0 0 494 538">
    <g fill="none" fill-rule="evenodd">
        <g fill="#281586" fill-rule="nonzero" stroke="#432CB4" stroke-width="5">
            <path d="M463.81 141.692a4.179 4.179 0 0 0-5.17-2.865l-154.08 44.182a4.179 4.179 0 0 0-2.864 5.168l26.877 93.732a4.179 4.179 0 0 0 5.169 2.866l154.08-44.182a4.179 4.179 0 0 0 2.865-5.169l-26.877-93.732z"/>
            <path d="M392.468 46.065a4.179 4.179 0 0 0-5.906-.206L269.334 155.176a4.179 4.179 0 0 0-.206 5.906l66.5 71.314a4.179 4.179 0 0 0 5.907.206l117.228-109.317a4.179 4.179 0 0 0 .207-5.906l-66.502-71.314z"/>
            <path d="M269.434 3.628a4.179 4.179 0 0 0-5.4 2.404l-57.442 149.643a4.179 4.179 0 0 0 2.404 5.399l91.033 34.944a4.179 4.179 0 0 0 5.399-2.404L362.87 43.971a4.179 4.179 0 0 0-2.403-5.399L269.434 3.628z"/>
            <g>
                <path d="M138.195 38.044a4.179 4.179 0 0 0-2.774 5.218l46.864 153.285a4.179 4.179 0 0 0 5.218 2.775l93.249-28.51a4.179 4.179 0 0 0 2.774-5.217L236.662 12.309a4.179 4.179 0 0 0-5.218-2.774l-93.249 28.509z"/>
                <path d="M43.828 111.043a4.179 4.179 0 0 0-.103 5.909L155.07 232.255a4.179 4.179 0 0 0 5.91.103l70.142-67.736a4.179 4.179 0 0 0 .103-5.909L119.879 43.411a4.179 4.179 0 0 0-5.909-.104l-70.142 67.736z"/>
                <path d="M3.545 234.8a4.179 4.179 0 0 0 2.497 5.356l150.623 54.822a4.179 4.179 0 0 0 5.356-2.497l33.35-91.63a4.179 4.179 0 0 0-2.497-5.355L42.25 140.673a4.179 4.179 0 0 0-5.356 2.498L3.545 234.8z"/>
                <path d="M3.545 234.8a4.179 4.179 0 0 0 2.497 5.356l150.623 54.822a4.179 4.179 0 0 0 5.356-2.497l33.35-91.63a4.179 4.179 0 0 0-2.497-5.355L42.25 140.673a4.179 4.179 0 0 0-5.356 2.498L3.545 234.8z"/>
            </g>
        </g>
        <path fill="#281586" stroke="#432CB4" stroke-width="4" d="M224.451 312.243c-1.1-.855-1.793-2.063-2.482-3.275-2.843-3.686-6.305-6.834-9.968-9.806-1.64-1.471-3.207-1.196-4.879.62-4.58 4.705-4.768 10.301-2.262 16.091a60.596 60.596 0 0 0 4.781 9.244c2.252 3.837 4.53 7.289 6.99 10.945.69 1.212 2 1.884 2.896 2.916.359.412.897 1.031.87 1.416-.137 4.828 1.907 8.845 4.135 13.066 1.203 2.214 2.609 4.25 3.813 6.463.18.207.151.594.306 1.183-.566-.232-.566-.232-.745-.438l-12.374-14.234c-1.255-1.444-2.123-2.862-3.378-4.306-3.257-3.327-5.714-6.985-7.966-10.822-3.455-6.051-7.293-12.132-11.34-18.03-3.687-5.487-7.758-11.002-11.649-16.312-2.995-4.277-6.199-8.374-8.989-12.83-3.684-5.489-7.579-10.795-12.086-15.57-1.614-1.856-3.642-3.353-6.129-3.726-.59.151-.95-.261-1.308-.674-1.282-1.059-2.822-1.169-4.388-.893-.593.153-1.155-.083-1.925-.138l-2.47 2.148c-.312 1.719-.236 3.464-.547 5.183-.775 2.847-.19 5.598 1.19 8.02 2.892 5.816 6.192 11.277 9.467 17.122 1.052 1.621 1.896 3.423 2.766 4.84l-.412.357c-.566-.232-.949-.261-1.513-.495-6.622-2.212-11.066.565-14.541 6.121-1.314 2.228-.908 4.773-.501 7.317.38 2.93.965 5.68 1.522 8.818.308 1.18-.132 1.925-1.52 2.406-5.34 1.746-9.069 5.35-9.85 11.098-.548 5.185-.89 10.192-.284 15.46.306 1.182-.132 1.925-1.314 2.227-4.137 1.061-6.864 4.156-8.28 7.923-1.91 5.281-1.922 11.087-2.318 16.863-.03 3.286 2.123 5.761 3.861 8.596 2.28 3.45 4.559 6.902 6.862 9.97 2.28 3.45 4.97 6.545 7.07 9.79 2.816 4.071 5.219 8.502 7.831 12.75 2.432 4.043 5.863 7.579 9.12 10.905 3.28 2.943 6.355 6.065 9.428 9.189 6.33 6.448 12.07 13.05 19.22 18.783 2.741 2.326 5.718 4.085 8.253 6.59 3.256 3.326 6.306 6.835 8.966 10.314 2.486 3.271 4.97 6.544 7.455 9.817 3.507 5.281 7.22 10.384 10.523 15.846 3.455 6.05 14.281 25.947 17.528 32.179 12.083-24.777 30.211-38.736 54.386-41.877-9.572-20.627-12.371-26.492-14.004-30.867-1.813-4.578-3.244-9.132-5.264-13.533-2.892-5.816-5.012-11.578-5.153-17.972-.2-2.727.192-5.599.195-8.503.138-4.827.452-9.447.386-14.097-.016-5.419-.006-11.223-.409-16.667-.627-7.785-1.43-15.775-2.83-23.617-.406-2.544-2.175-4.99-3.557-7.41-2.761-4.843-5.14-9.657-7.906-14.496-2.761-4.843-5.346-9.477-8.315-14.14-1.023-2.008-2.228-4.22-3.662-5.87-1.406-2.037-3.049-3.507-4.866-5.187-2.745-2.322-5.691-4.47-8.436-6.791z"/>
        <path fill="#281586" stroke="#432CB4" stroke-width="2" d="M180.66 352.328c-.322-.443-1.022-.947-1.125-1.548-2.65-5.508-5.526-10.851-8.176-16.359-1.005-2.31-2.612-4.522-3.619-6.83-.844-2.09-1.085-4.28-1.548-6.309l.441-.32c4.984 10.569 9.805 20.918 14.69 30.883l-.664.483zM164.899 368.205l-.964-1.327c-2.55-4.904-5.102-9.808-7.713-14.33-1.065-1.929-2.51-3.919-3.355-6.008-.904-1.708-1.209-3.514-1.67-5.544l.22-.16c4.682 8.761 9.303 17.904 13.925 27.047l-.443.322zM148.639 385.935l.321.442c.262.824.684 1.869-.359 2.288-.22.16-1.467-.623-1.949-1.286-2.449-4.303-4.9-8.604-7.35-12.904l-.223.161c-.58-1.267-1.163-2.533-1.526-3.959-.16-.221.34-.923.4-1.304.542.282 1.304.404 1.626.846 1.446 1.99 2.508 3.921 3.575 5.849 2.029 3.256 3.837 6.672 5.485 9.867z"/>
        <path fill="#140963" fill-rule="nonzero" d="M233.847 528.948c7.144-24.759 24.303-37.809 51.477-39.15-9.36 21.638-26.518 34.688-51.477 39.15z"/>
    </g>
</svg>
