<svg xmlns="http://www.w3.org/2000/svg" width="494" height="435" viewBox="0 0 494 435">
    <g fill="none" fill-rule="evenodd">
        <g fill="#281586" fill-rule="nonzero">
            <path stroke="#432CB4" stroke-width="5" d="M463.81 141.692a4.179 4.179 0 0 0-5.17-2.865l-154.08 44.182a4.179 4.179 0 0 0-2.864 5.168l26.877 93.732a4.179 4.179 0 0 0 5.169 2.866l154.08-44.182a4.179 4.179 0 0 0 2.865-5.169l-26.877-93.732z"/>
            <path stroke="#432CB4" stroke-width="5" d="M392.468 46.065a4.179 4.179 0 0 0-5.906-.206L269.334 155.176a4.179 4.179 0 0 0-.206 5.906l66.5 71.314a4.179 4.179 0 0 0 5.907.206l117.228-109.317a4.179 4.179 0 0 0 .207-5.906l-66.502-71.314z"/>
            <path stroke="#A2ACE3" stroke-width="2" d="M393.565 45.042a5.679 5.679 0 0 0-8.026-.28L268.311 154.079a5.679 5.679 0 0 0-.28 8.026l66.5 71.314a5.679 5.679 0 0 0 8.027.28l117.228-109.317a5.679 5.679 0 0 0 .28-8.026l-66.5-71.314z"/>
            <path stroke="#432CB4" stroke-width="5" d="M269.434 3.628a4.179 4.179 0 0 0-5.4 2.404l-57.442 149.643a4.179 4.179 0 0 0 2.404 5.399l91.033 34.944a4.179 4.179 0 0 0 5.399-2.404L362.87 43.971a4.179 4.179 0 0 0-2.403-5.399L269.434 3.628z"/>
            <path stroke="#A2ACE3" stroke-width="2" d="M269.971 2.228a5.679 5.679 0 0 0-7.337 3.266l-57.442 149.643a5.679 5.679 0 0 0 3.266 7.337l91.033 34.944a5.679 5.679 0 0 0 7.337-3.266L364.27 44.508a5.679 5.679 0 0 0-3.267-7.336L269.971 2.228z"/>
            <g>
                <path stroke="#432CB4" stroke-width="5" d="M138.195 38.044a4.179 4.179 0 0 0-2.774 5.218l46.864 153.285a4.179 4.179 0 0 0 5.218 2.775l93.249-28.51a4.179 4.179 0 0 0 2.774-5.217L236.662 12.309a4.179 4.179 0 0 0-5.218-2.774l-93.249 28.509z"/>
                <path stroke="#A2ACE3" stroke-width="2" d="M137.757 36.61a5.679 5.679 0 0 0-3.77 7.09l46.864 153.286a5.679 5.679 0 0 0 7.09 3.77l93.25-28.509a5.679 5.679 0 0 0 3.77-7.09L238.096 11.87a5.679 5.679 0 0 0-7.09-3.77l-93.25 28.508z"/>
                <path stroke="#432CB4" stroke-width="5" d="M43.828 111.043a4.179 4.179 0 0 0-.103 5.909L155.07 232.255a4.179 4.179 0 0 0 5.91.103l70.142-67.736a4.179 4.179 0 0 0 .103-5.909L119.879 43.411a4.179 4.179 0 0 0-5.909-.104l-70.142 67.736z"/>
                <path stroke="#A2ACE3" stroke-width="2" d="M42.786 109.964a5.679 5.679 0 0 0-.14 8.03l111.346 115.303a5.679 5.679 0 0 0 8.03.14l70.143-67.736a5.679 5.679 0 0 0 .14-8.03L120.958 42.37a5.679 5.679 0 0 0-8.03-.14l-70.142 67.735z"/>
                <path stroke="#432CB4" stroke-width="5" d="M3.545 234.8a4.179 4.179 0 0 0 2.497 5.356l150.623 54.822a4.179 4.179 0 0 0 5.356-2.497l33.35-91.63a4.179 4.179 0 0 0-2.497-5.355L42.25 140.673a4.179 4.179 0 0 0-5.356 2.498L3.545 234.8z"/>
                <path stroke="#A2ACE3" stroke-width="2" d="M2.135 234.287a5.679 5.679 0 0 0 3.394 7.278l150.623 54.823a5.679 5.679 0 0 0 7.279-3.394l33.35-91.63a5.679 5.679 0 0 0-3.394-7.278L42.764 139.264a5.679 5.679 0 0 0-7.279 3.394l-33.35 91.629z"/>
            </g>
        </g>
        <path fill="#281586" stroke="#432CB4" stroke-width="4" d="M321.22 290.51c.238-1.372.98-2.551 1.726-3.729 1.92-4.24 3.074-8.774 3.978-13.404.53-2.14-.449-3.393-2.837-4.017-6.305-1.835-11.334.626-15.27 5.556a60.596 60.596 0 0 0-5.917 8.562c-2.33 3.79-4.309 7.422-6.382 11.31-.747 1.178-.726 2.65-1.215 3.926-.196.51-.49 1.276-.842 1.433-4.327 2.146-6.915 5.837-9.595 9.785-1.39 2.101-2.53 4.3-3.917 6.402-.098.255-.453.411-.901.825-.061-.609-.061-.609.037-.864l6.759-17.608c.685-1.786 1.53-3.218 2.216-5.004 1.408-4.437 3.484-8.325 5.815-12.114 3.72-5.892 7.288-12.135 10.596-18.477 3.114-5.831 6.072-12.016 8.934-17.944 2.37-4.653 4.483-9.404 7.107-13.96 3.117-5.83 5.974-11.76 8.073-17.98.882-2.297 1.252-4.79.414-7.162-.411-.45-.215-.96-.02-1.47.334-1.63-.292-3.041-1.27-4.295-.414-.451-.47-1.059-.783-1.764l-3.056-1.173c-1.664.532-3.169 1.418-4.833 1.95-2.878.653-5.032 2.46-6.523 4.816-3.777 5.284-7.05 10.762-10.673 16.398-.938 1.69-2.132 3.28-2.974 4.714l-.51-.196c-.06-.609-.214-.96-.273-1.569-1.155-6.884-5.693-9.505-12.231-9.965-2.584-.113-4.64 1.44-6.696 2.993-2.408 1.71-4.562 3.519-7.07 5.483-.899.827-1.763.788-2.839-.21-4.048-3.897-8.98-5.498-14.423-3.488-4.836 1.95-9.417 3.997-13.783 7.006-.9.825-1.762.787-2.584-.114-2.88-3.154-6.892-4.109-10.883-3.591-5.56.793-10.691 3.508-15.977 5.87-2.915 1.516-4.09 4.579-5.777 7.444-1.976 3.634-3.954 7.266-5.583 10.74-1.975 3.633-3.445 7.46-5.325 10.838-2.272 4.398-5.055 8.6-7.58 12.9-2.428 4.046-3.94 8.736-5.347 13.172-1.059 4.278-2.372 8.459-3.687 12.639-2.72 8.617-5.856 16.785-7.561 25.79-.767 3.511-.922 6.965-1.944 10.379-1.408 4.437-3.074 8.777-4.898 12.759-1.72 3.73-3.445 7.46-5.168 11.19-3.017 5.577-5.778 11.25-9.05 16.732-3.721 5.89-16.206 24.79-20.184 30.583 27.549-.964 48.385 8.49 62.508 28.36 13.718-18.136 17.583-23.36 20.68-26.856 3.19-3.75 6.54-7.152 9.477-11.001 3.777-5.284 7.87-9.862 13.449-12.987 2.313-1.457 5.034-2.46 7.6-3.82 4.326-2.145 8.552-4.036 12.627-6.278 4.777-2.558 9.907-5.273 14.525-8.185 6.578-4.209 13.257-8.67 19.523-13.586 2.056-1.553 3.385-4.263 4.874-6.62 2.98-4.712 6.113-9.072 9.087-13.786 2.98-4.712 5.858-9.17 8.58-13.98 1.293-1.846 2.681-3.948 3.465-5.99 1.138-2.198 1.665-4.338 2.295-6.73.762-3.515 1.274-7.124 2.036-10.638z"/>
        <path fill="#281586" stroke="#432CB4" stroke-width="2" d="M265.268 270.663c.24-.491.357-1.346.839-1.72 3.618-4.925 6.987-9.973 10.605-14.898 1.568-1.972 2.767-4.429 4.333-6.402 1.448-1.727 3.27-2.967 4.843-4.329l.49.24c-6.993 9.362-13.867 18.477-20.373 27.469l-.737-.36zM243.85 264.202l.719-1.474c3.133-4.554 6.265-9.11 9.031-13.538 1.204-1.846 2.282-4.057 3.73-5.783 1.084-1.6 2.536-2.717 4.112-4.077l.245.12c-5.538 8.246-11.442 16.619-17.345 24.992l-.492-.24zM220.562 258.169l-.24.491c-.604.618-1.329 1.48-2.189.757-.245-.12-.138-1.588.221-2.325 2.65-4.182 5.296-8.365 7.943-12.548l-.247-.12c.846-1.108 1.69-2.217 2.78-3.207.12-.245.974-.133 1.339-.259.005.611.255 1.341.016 1.833-1.079 2.21-2.285 4.055-3.486 5.903-1.922 3.32-4.09 6.52-6.137 9.475z"/>
        <path fill="#140963" fill-rule="nonzero" d="M134.388 400.477c25.125-5.27 44.658 3.775 58.6 27.138-23.5 1.896-43.033-7.15-58.6-27.138z"/>
    </g>
</svg>
