<svg xmlns="http://www.w3.org/2000/svg" width="494" height="508" viewBox="0 0 494 508">
    <g fill="none" fill-rule="evenodd">
        <g fill="#281586" fill-rule="nonzero">
            <path stroke="#432CB4" stroke-width="5" d="M463.81 141.692a4.179 4.179 0 0 0-5.17-2.865l-154.08 44.182a4.179 4.179 0 0 0-2.864 5.168l26.877 93.732a4.179 4.179 0 0 0 5.169 2.866l154.08-44.182a4.179 4.179 0 0 0 2.865-5.169l-26.877-93.732z"/>
            <path stroke="#A2ACE3" stroke-width="2" d="M465.251 141.278a5.679 5.679 0 0 0-7.024-3.893l-154.08 44.182a5.679 5.679 0 0 0-3.893 7.024l26.877 93.732a5.679 5.679 0 0 0 7.024 3.893l154.08-44.181a5.679 5.679 0 0 0 3.894-7.024l-26.878-93.733z"/>
            <path stroke="#432CB4" stroke-width="5" d="M392.468 46.065a4.179 4.179 0 0 0-5.906-.206L269.334 155.176a4.179 4.179 0 0 0-.206 5.906l66.5 71.314a4.179 4.179 0 0 0 5.907.206l117.228-109.317a4.179 4.179 0 0 0 .207-5.906l-66.502-71.314z"/>
            <path stroke="#A2ACE3" stroke-width="2" d="M393.565 45.042a5.679 5.679 0 0 0-8.026-.28L268.311 154.079a5.679 5.679 0 0 0-.28 8.026l66.5 71.314a5.679 5.679 0 0 0 8.027.28l117.228-109.317a5.679 5.679 0 0 0 .28-8.026l-66.5-71.314z"/>
            <path stroke="#432CB4" stroke-width="5" d="M269.434 3.628a4.179 4.179 0 0 0-5.4 2.404l-57.442 149.643a4.179 4.179 0 0 0 2.404 5.399l91.033 34.944a4.179 4.179 0 0 0 5.399-2.404L362.87 43.971a4.179 4.179 0 0 0-2.403-5.399L269.434 3.628z"/>
            <path stroke="#A2ACE3" stroke-width="2" d="M269.971 2.228a5.679 5.679 0 0 0-7.337 3.266l-57.442 149.643a5.679 5.679 0 0 0 3.266 7.337l91.033 34.944a5.679 5.679 0 0 0 7.337-3.266L364.27 44.508a5.679 5.679 0 0 0-3.267-7.336L269.971 2.228z"/>
            <g>
                <path stroke="#432CB4" stroke-width="5" d="M138.195 38.044a4.179 4.179 0 0 0-2.774 5.218l46.864 153.285a4.179 4.179 0 0 0 5.218 2.775l93.249-28.51a4.179 4.179 0 0 0 2.774-5.217L236.662 12.309a4.179 4.179 0 0 0-5.218-2.774l-93.249 28.509z"/>
                <path stroke="#A2ACE3" stroke-width="2" d="M137.757 36.61a5.679 5.679 0 0 0-3.77 7.09l46.864 153.286a5.679 5.679 0 0 0 7.09 3.77l93.25-28.509a5.679 5.679 0 0 0 3.77-7.09L238.096 11.87a5.679 5.679 0 0 0-7.09-3.77l-93.25 28.508z"/>
                <path stroke="#432CB4" stroke-width="5" d="M43.828 111.043a4.179 4.179 0 0 0-.103 5.909L155.07 232.255a4.179 4.179 0 0 0 5.91.103l70.142-67.736a4.179 4.179 0 0 0 .103-5.909L119.879 43.411a4.179 4.179 0 0 0-5.909-.104l-70.142 67.736z"/>
                <path stroke="#A2ACE3" stroke-width="2" d="M42.786 109.964a5.679 5.679 0 0 0-.14 8.03l111.346 115.303a5.679 5.679 0 0 0 8.03.14l70.143-67.736a5.679 5.679 0 0 0 .14-8.03L120.958 42.37a5.679 5.679 0 0 0-8.03-.14l-70.142 67.735z"/>
                <path stroke="#432CB4" stroke-width="5" d="M3.545 234.8a4.179 4.179 0 0 0 2.497 5.356l150.623 54.822a4.179 4.179 0 0 0 5.356-2.497l33.35-91.63a4.179 4.179 0 0 0-2.497-5.355L42.25 140.673a4.179 4.179 0 0 0-5.356 2.498L3.545 234.8z"/>
                <path stroke="#A2ACE3" stroke-width="2" d="M2.135 234.287a5.679 5.679 0 0 0 3.394 7.278l150.623 54.823a5.679 5.679 0 0 0 7.279-3.394l33.35-91.63a5.679 5.679 0 0 0-3.394-7.278L42.764 139.264a5.679 5.679 0 0 0-7.279 3.394l-33.35 91.629z"/>
            </g>
        </g>
        <path fill="#281586" stroke="#432CB4" stroke-width="4" d="M348.607 336.925c-.101-1.389.333-2.713.773-4.035.837-4.58.86-9.258.617-13.97-.004-2.203-1.257-3.183-3.725-3.21-6.562-.256-10.846 3.35-13.472 9.085a60.596 60.596 0 0 0-3.67 9.739c-1.345 4.241-2.385 8.244-3.457 12.519-.44 1.323-.062 2.746-.229 4.102-.067.543-.166 1.357-.47 1.595-3.68 3.128-5.297 7.336-6.943 11.815-.84 2.375-1.414 4.783-2.252 7.16-.033.27-.34.508-.674 1.018-.207-.576-.207-.576-.174-.848l2.299-18.719c.233-1.9.706-3.493.94-5.392.292-4.646 1.366-8.92 2.711-13.161 2.185-6.617 4.136-13.537 5.811-20.492 1.611-6.411 2.985-13.127 4.328-19.571 1.174-5.089 2.075-10.21 3.52-15.265 1.613-6.411 2.95-12.856 3.482-19.4.3-2.442.056-4.95-1.33-7.048-.509-.338-.442-.88-.375-1.423-.071-1.661-1.02-2.88-2.273-3.86-.51-.337-.711-.913-1.186-1.522l-3.248-.399c-1.486.92-2.732 2.143-4.218 3.062-2.635 1.33-4.287 3.605-5.164 6.25-2.386 6.042-4.237 12.148-6.39 18.493-.5 1.867-1.275 3.7-1.745 5.294l-.541-.067c-.207-.576-.441-.88-.645-1.456-2.787-6.4-7.824-7.845-14.279-6.71-2.534.515-4.153 2.52-5.773 4.524-1.922 2.242-3.575 4.518-5.534 7.03-.671 1.02-1.519 1.191-2.805.483-4.87-2.802-10.044-3.161-14.838.105-4.22 3.062-8.17 6.157-11.679 10.133-.674 1.018-1.52 1.19-2.535.515-3.556-2.365-7.68-2.32-11.428-.853-5.202 2.115-9.525 5.99-14.083 9.562-2.461 2.176-2.86 5.432-3.804 8.62-1.038 4.004-2.079 8.007-2.818 11.771-1.038 4.004-1.538 8.073-2.545 11.805-1.141 4.817-2.826 9.567-4.234 14.35-1.378 4.513-1.71 9.43-2.003 14.075.008 4.407-.254 8.781-.52 13.155-.555 9.02-1.621 17.704-1.097 26.853.105 3.593.79 6.982.625 10.541-.293 4.646-.86 9.26-1.665 13.565-.768 4.037-1.538 8.073-2.308 12.11-1.578 6.14-2.885 12.313-4.734 18.422-2.185 6.617-9.726 27.975-12.185 34.558 26.497-7.6 49.001-3.468 67.512 12.395 8.923-20.915 11.41-26.92 13.568-31.06 2.189-4.41 4.616-8.522 6.535-12.968 2.386-6.04 5.25-11.472 9.907-15.855 1.893-1.973 4.29-3.604 6.45-5.544 3.68-3.128 7.323-5.986 10.734-9.147 4.016-3.638 8.337-7.513 12.113-11.456 5.365-5.675 10.766-11.618 15.657-17.905 1.619-2.004 2.253-4.956 3.127-7.602 1.751-5.293 3.736-10.282 5.482-15.575 1.751-5.293 3.466-10.315 4.944-15.64.807-2.105 1.645-4.48 1.912-6.65.573-2.409.566-4.613.598-7.087-.11-3.594-.486-7.22-.597-10.814z"/>
        <path fill="#281586" stroke="#432CB4" stroke-width="2" d="M289.516 331.204c.113-.535.02-1.393.397-1.872 2.32-5.654 4.367-11.367 6.686-17.022 1.045-2.292 1.613-4.966 2.655-7.26.988-2.025 2.455-3.67 3.652-5.37l.534.112c-4.52 10.776-8.985 21.284-13.122 31.582l-.802-.17zM267.17 330.116l.341-1.605c1.94-5.176 3.876-10.353 5.489-15.32.72-2.082 1.232-4.488 2.22-6.514.664-1.815 1.803-3.25 3.003-4.95l.266.056c-3.378 9.342-7.08 18.894-10.783 28.446l-.536-.113zM243.114 329.896l-.113.535c-.437.745-.931 1.758-1.94 1.264-.267-.057-.52-1.508-.349-2.31 1.56-4.698 3.115-9.397 4.671-14.097l-.269-.057c.553-1.28 1.104-2.56 1.922-3.783.056-.267.913-.365 1.236-.575.153.59.573 1.239.46 1.774-.512 2.406-1.236 4.488-1.955 6.57-1.062 3.687-2.39 7.316-3.663 10.679z"/>
        <path fill="#140963" fill-rule="nonzero" d="M193.91 488.875c23.082-11.213 44.213-7.171 63.393 12.125-22.343 7.524-43.474 3.482-63.393-12.125z"/>
    </g>
</svg>
