<svg xmlns="http://www.w3.org/2000/svg" width="494" height="398" viewBox="0 0 494 398">
    <g fill="none" fill-rule="evenodd">
        <g fill="#281586" fill-rule="nonzero">
            <g stroke="#432CB4" stroke-width="5">
                <path d="M463.81 141.692a4.179 4.179 0 0 0-5.17-2.865l-154.08 44.182a4.179 4.179 0 0 0-2.864 5.168l26.877 93.732a4.179 4.179 0 0 0 5.169 2.866l154.08-44.182a4.179 4.179 0 0 0 2.865-5.169l-26.877-93.732z"/>
                <path d="M392.468 46.065a4.179 4.179 0 0 0-5.906-.206L269.334 155.176a4.179 4.179 0 0 0-.206 5.906l66.5 71.314a4.179 4.179 0 0 0 5.907.206l117.228-109.317a4.179 4.179 0 0 0 .207-5.906l-66.502-71.314z"/>
                <path d="M269.434 3.628a4.179 4.179 0 0 0-5.4 2.404l-57.442 149.643a4.179 4.179 0 0 0 2.404 5.399l91.033 34.944a4.179 4.179 0 0 0 5.399-2.404L362.87 43.971a4.179 4.179 0 0 0-2.403-5.399L269.434 3.628z"/>
            </g>
            <path stroke="#432CB4" stroke-width="5" d="M138.195 38.044a4.179 4.179 0 0 0-2.774 5.218l46.864 153.285a4.179 4.179 0 0 0 5.218 2.775l93.249-28.51a4.179 4.179 0 0 0 2.774-5.217L236.662 12.309a4.179 4.179 0 0 0-5.218-2.774l-93.249 28.509z"/>
            <path stroke="#A2ACE3" stroke-width="2" d="M137.757 36.61a5.679 5.679 0 0 0-3.77 7.09l46.864 153.286a5.679 5.679 0 0 0 7.09 3.77l93.25-28.509a5.679 5.679 0 0 0 3.77-7.09L238.096 11.87a5.679 5.679 0 0 0-7.09-3.77l-93.25 28.508z"/>
            <path stroke="#432CB4" stroke-width="5" d="M43.828 111.043a4.179 4.179 0 0 0-.103 5.909L155.07 232.255a4.179 4.179 0 0 0 5.91.103l70.142-67.736a4.179 4.179 0 0 0 .103-5.909L119.879 43.411a4.179 4.179 0 0 0-5.909-.104l-70.142 67.736z"/>
            <path stroke="#A2ACE3" stroke-width="2" d="M42.786 109.964a5.679 5.679 0 0 0-.14 8.03l111.346 115.303a5.679 5.679 0 0 0 8.03.14l70.143-67.736a5.679 5.679 0 0 0 .14-8.03L120.958 42.37a5.679 5.679 0 0 0-8.03-.14l-70.142 67.735z"/>
            <path stroke="#432CB4" stroke-width="5" d="M3.545 234.8a4.179 4.179 0 0 0 2.497 5.356l150.623 54.822a4.179 4.179 0 0 0 5.356-2.497l33.35-91.63a4.179 4.179 0 0 0-2.497-5.355L42.25 140.673a4.179 4.179 0 0 0-5.356 2.498L3.545 234.8z"/>
            <path stroke="#A2ACE3" stroke-width="2" d="M2.135 234.287a5.679 5.679 0 0 0 3.394 7.278l150.623 54.823a5.679 5.679 0 0 0 7.279-3.394l33.35-91.63a5.679 5.679 0 0 0-3.394-7.278L42.764 139.264a5.679 5.679 0 0 0-7.279 3.394l-33.35 91.629z"/>
        </g>
        <path fill="#281586" stroke="#432CB4" stroke-width="4" d="M267.149 207.681c-.411-1.33-.286-2.718-.155-4.106-.215-4.65-1.245-9.214-2.541-13.75-.5-2.146-1.941-2.819-4.352-2.29-6.45 1.227-9.814 5.703-11.083 11.883a60.596 60.596 0 0 0-1.385 10.315c-.356 4.435-.47 8.569-.552 12.975-.131 1.388.557 2.69.7 4.05.057.543.142 1.358-.1 1.659-2.881 3.875-3.511 8.339-4.107 13.074-.285 2.503-.302 4.979-.584 7.482.029.272-.216.572-.428 1.144-.33-.515-.33-.515-.36-.786l-1.97-18.757c-.2-1.903-.098-3.563-.298-5.466-.76-4.592-.675-8.998-.319-13.433.641-6.939.985-14.12 1.053-21.274.127-6.61-.045-13.462-.186-20.043 0-5.222-.275-10.415-.004-15.666.13-6.61-.017-13.19-.97-19.686-.258-2.447-1.06-4.836-2.883-6.568-.571-.215-.628-.759-.685-1.302-.443-1.603-1.641-2.576-3.082-3.25-.574-.214-.9-.73-1.498-1.216l-3.256.342c-1.24 1.23-2.18 2.703-3.42 3.933-2.269 1.887-3.367 4.476-3.626 7.252-.966 6.423-1.396 12.789-2.066 19.456-.068 1.93-.41 3.89-.51 5.55l-.542.057c-.33-.515-.628-.759-.956-1.274-4.155-5.61-9.388-5.884-15.422-3.326-2.354 1.072-3.48 3.39-4.607 5.706-1.37 2.618-2.468 5.207-3.811 8.096-.425 1.144-1.213 1.502-2.625 1.1-5.376-1.633-10.497-.82-14.434 3.442-3.424 3.932-6.576 7.837-9.1 12.5-.428 1.144-1.213 1.5-2.354 1.071-3.998-1.503-8.006-.532-11.327 1.74-4.594 3.232-7.934 7.98-11.571 12.485-1.909 2.674-1.566 5.936-1.768 9.255-.11 4.135-.224 8.27-.098 12.104-.111 4.134.317 8.211.175 12.074-.027 4.95-.6 9.957-.896 14.936-.328 4.706.455 9.571 1.214 14.164 1 4.292 1.728 8.613 2.453 12.934 1.488 8.913 2.402 17.615 4.971 26.412.911 3.477 2.341 6.625 2.98 10.13.76 4.593 1.246 9.217 1.43 13.592.16 4.106.317 8.212.475 12.318-.156 6.338-.041 12.647-.468 19.016-.641 6.938-3.185 29.446-4.1 36.413 24.109-13.366 46.965-14.402 68.57-3.11 3.99-22.386 5.061-28.796 6.233-33.316 1.141-4.79 2.581-9.341 3.45-14.105.967-6.423 2.536-12.36 6.088-17.677 1.4-2.349 3.369-4.477 5.037-6.854 2.881-3.875 5.788-7.479 8.401-11.326 3.095-4.448 6.433-9.197 9.226-13.888 3.95-6.736 7.876-13.742 11.227-20.968 1.127-2.317 1.081-5.336 1.337-8.11.516-5.552 1.328-10.86 1.838-16.41.516-5.55 1.057-10.83 1.3-16.352.313-2.231.595-4.734.366-6.91.017-2.474-.485-4.62-1.01-7.039-.917-3.476-2.099-6.925-3.015-10.402z"/>
        <path fill="#281586" stroke="#432CB4" stroke-width="2" d="M208.285 215.4c-.01-.547-.294-1.363-.034-1.914.988-6.031 1.698-12.058 2.686-18.09.502-2.469.454-5.202.954-7.67.506-2.196 1.566-4.129 2.35-6.056l.545-.01c-1.98 11.517-3.967 22.76-5.681 33.725l-.82.014zM186.267 219.365l-.028-1.64c.725-5.48 1.447-10.96 1.901-16.162.234-2.19.191-4.65.698-6.846.24-1.918 1.026-3.572 1.812-5.5l.273-.004c-1.19 9.862-2.65 20.003-4.108 30.143l-.548.01zM162.779 224.563l.01.546c-.26.825-.513 1.923-1.607 1.669-.273.004-.844-1.353-.859-2.172.462-4.93.921-9.858 1.38-14.787l-.275.005c.252-1.371.5-2.742 1.021-4.118-.004-.274.808-.561 1.076-.84.282.543.837 1.08.846 1.626.043 2.46-.194 4.65-.425 6.842-.206 3.83-.684 7.666-1.167 11.229z"/>
        <path fill="#140963" fill-rule="nonzero" d="M150.56 390.556c20.02-16.16 41.545-16.997 64.574-2.51-20.077 12.358-41.602 13.194-64.574 2.51z"/>
    </g>
</svg>
