<svg xmlns="http://www.w3.org/2000/svg" width="494" height="451" viewBox="0 0 494 451">
    <g fill="none" fill-rule="evenodd">
        <g fill="#281586" fill-rule="nonzero">
            <g stroke="#432CB4" stroke-width="5">
                <path d="M463.81 141.692a4.179 4.179 0 0 0-5.17-2.865l-154.08 44.182a4.179 4.179 0 0 0-2.864 5.168l26.877 93.732a4.179 4.179 0 0 0 5.169 2.866l154.08-44.182a4.179 4.179 0 0 0 2.865-5.169l-26.877-93.732z"/>
                <path d="M392.468 46.065a4.179 4.179 0 0 0-5.906-.206L269.334 155.176a4.179 4.179 0 0 0-.206 5.906l66.5 71.314a4.179 4.179 0 0 0 5.907.206l117.228-109.317a4.179 4.179 0 0 0 .207-5.906l-66.502-71.314z"/>
                <path d="M269.434 3.628a4.179 4.179 0 0 0-5.4 2.404l-57.442 149.643a4.179 4.179 0 0 0 2.404 5.399l91.033 34.944a4.179 4.179 0 0 0 5.399-2.404L362.87 43.971a4.179 4.179 0 0 0-2.403-5.399L269.434 3.628z"/>
            </g>
            <path stroke="#432CB4" stroke-width="5" d="M138.195 38.044a4.179 4.179 0 0 0-2.774 5.218l46.864 153.285a4.179 4.179 0 0 0 5.218 2.775l93.249-28.51a4.179 4.179 0 0 0 2.774-5.217L236.662 12.309a4.179 4.179 0 0 0-5.218-2.774l-93.249 28.509z"/>
            <path stroke="#432CB4" stroke-width="5" d="M43.828 111.043a4.179 4.179 0 0 0-.103 5.909L155.07 232.255a4.179 4.179 0 0 0 5.91.103l70.142-67.736a4.179 4.179 0 0 0 .103-5.909L119.879 43.411a4.179 4.179 0 0 0-5.909-.104l-70.142 67.736z"/>
            <path stroke="#A2ACE3" stroke-width="2" d="M42.786 109.964a5.679 5.679 0 0 0-.14 8.03l111.346 115.303a5.679 5.679 0 0 0 8.03.14l70.143-67.736a5.679 5.679 0 0 0 .14-8.03L120.958 42.37a5.679 5.679 0 0 0-8.03-.14l-70.142 67.735z"/>
            <path stroke="#432CB4" stroke-width="5" d="M3.545 234.8a4.179 4.179 0 0 0 2.497 5.356l150.623 54.822a4.179 4.179 0 0 0 5.356-2.497l33.35-91.63a4.179 4.179 0 0 0-2.497-5.355L42.25 140.673a4.179 4.179 0 0 0-5.356 2.498L3.545 234.8z"/>
            <path stroke="#A2ACE3" stroke-width="2" d="M2.135 234.287a5.679 5.679 0 0 0 3.394 7.278l150.623 54.823a5.679 5.679 0 0 0 7.279-3.394l33.35-91.63a5.679 5.679 0 0 0-3.394-7.278L42.764 139.264a5.679 5.679 0 0 0-7.279 3.394l-33.35 91.629z"/>
        </g>
        <path fill="#281586" stroke="#432CB4" stroke-width="4" d="M256.026 229.621c-.86-1.095-1.24-2.435-1.616-3.778-1.867-4.264-4.464-8.155-7.3-11.926-1.236-1.824-2.822-1.936-4.883-.579-5.583 3.458-7.119 8.842-6.089 15.066a60.596 60.596 0 0 0 2.403 10.126c1.257 4.268 2.633 8.169 4.135 12.311.375 1.343 1.484 2.312 2.104 3.53.249.487.62 1.218.502 1.585-1.3 4.65-.29 9.044.851 13.677.632 2.44 1.503 4.757 2.137 7.195.124.243.003.612.01 1.221-.493-.362-.493-.362-.617-.605l-8.562-16.805c-.87-1.704-1.368-3.29-2.237-4.995-2.355-4.016-3.855-8.16-5.111-12.428-1.889-6.707-4.141-13.535-6.641-20.237-2.25-6.216-4.867-12.552-7.357-18.646-1.872-4.875-3.989-9.625-5.618-14.623-2.247-6.218-4.742-12.309-7.96-18.031-1.118-2.192-2.723-4.135-5.046-5.1-.61.005-.858-.482-1.106-.97-.987-1.337-2.455-1.816-4.042-1.928-.612.005-1.1-.36-1.834-.6l-2.917 1.487c-.718 1.593-1.066 3.304-1.784 4.897-1.441 2.575-1.539 5.385-.786 8.07 1.4 6.342 3.28 12.44 5.044 18.904.628 1.827 1.011 3.78 1.513 5.364l-.486.248c-.493-.363-.858-.484-1.349-.847-5.89-3.748-10.873-2.129-15.59 2.422-1.813 1.844-2.035 4.411-2.256 6.978-.34 2.934-.438 5.745-.656 8.924.013 1.22-.594 1.836-2.056 1.968-5.605.401-10.095 2.996-12.243 8.385-1.787 4.898-3.33 9.673-4.016 14.93.01 1.222-.594 1.837-1.813 1.845-4.271.029-7.666 2.372-9.952 5.684-3.13 4.663-4.547 10.293-6.328 15.802-.824 3.18.666 6.103 1.667 9.274 1.378 3.9 2.753 7.8 4.245 11.335 1.378 3.899 3.24 7.552 4.491 11.21 1.748 4.63 3.008 9.51 4.516 14.264 1.38 4.511 3.855 8.773 6.21 12.788 2.47 3.65 4.699 7.422 6.925 11.196 4.583 7.788 8.555 15.584 14.106 22.876 2.096 2.92 4.56 5.346 6.413 8.39 2.355 4.015 4.465 8.158 6.204 12.177 1.621 3.776 3.24 7.552 4.858 11.33 2.126 5.972 4.494 11.82 6.378 17.92 1.888 6.707 7.58 28.631 9.223 35.463 17.717-21.117 38.684-30.276 62.9-27.476-4.297-22.33-5.594-28.697-6.12-33.338-.651-4.88-.938-9.645-1.833-14.404-1.4-6.343-2.063-12.447-.653-18.684.466-2.695 1.541-5.387 2.247-8.204 1.301-4.65 2.724-9.057 3.784-13.585 1.296-5.262 2.71-10.89 3.636-16.27 1.275-7.706 2.428-15.653 2.967-23.6.222-2.567-.903-5.369-1.658-8.051-1.508-5.367-2.651-10.613-4.164-15.978-1.508-5.367-2.895-10.49-4.648-15.731-.507-2.196-1.14-4.634-2.133-6.582-.872-2.317-2.11-4.14-3.467-6.21-2.101-2.917-4.44-5.713-6.542-8.63z"/>
        <path fill="#281586" stroke="#432CB4" stroke-width="2" d="M203.838 257.921c-.205-.507-.762-1.166-.717-1.774-1.24-5.985-2.736-11.865-3.976-17.85-.416-2.485-1.44-5.02-1.858-7.504-.314-2.231-.018-4.415.024-6.495l.505-.204c2.28 11.46 4.453 22.67 6.782 33.52l-.76.307zM184.704 269.514l-.614-1.52c-1.288-5.376-2.577-10.75-4.017-15.77-.567-2.13-1.488-4.41-1.802-6.642-.464-1.876-.323-3.702-.279-5.784l.253-.102c2.422 9.634 4.695 19.624 6.967 29.613l-.508.205zM164.638 282.784l.205.507c.054.862.211 1.978-.902 2.133-.253.102-1.273-.96-1.58-1.72-1.335-4.767-2.673-9.533-4.01-14.299l-.256.103c-.256-1.37-.516-2.74-.522-4.21-.103-.254.553-.814.703-1.17.458.406 1.168.708 1.373 1.215.921 2.28 1.485 4.411 2.054 6.54 1.181 3.65 2.11 7.402 2.935 10.901z"/>
        <path fill="#140963" fill-rule="nonzero" d="M212.745 442.08c12.904-22.232 32.702-30.713 59.393-25.44-14.316 18.731-34.113 27.212-59.393 25.44z"/>
    </g>
</svg>
