<svg xmlns="http://www.w3.org/2000/svg" width="383" height="615" viewBox="0 0 383 615">
    <g fill="none" fill-rule="evenodd">
        <g fill-rule="nonzero">
            <g transform="translate(84 111)">
                <rect width="208" height="62" fill="#281586" rx="31"/>
                <rect width="190.2" height="48.2" x="8.9" y="6.9" fill="#281586" stroke="#FFC600" stroke-width="1.8" rx="24.1"/>
                <circle cx="172.5" cy="30.5" r="17.5" stroke="#FFC600" stroke-width="1.44"/>
            </g>
            <g fill="#281586" transform="translate(84 200)">
                <rect width="208" height="62" rx="31"/>
                <rect width="190.2" height="48.2" x="8.9" y="7.9" stroke="#1DD4B6" stroke-width="1.8" rx="24.1"/>
                <circle cx="172.5" cy="31.5" r="17.5" stroke="#1DD4B6" stroke-width="1.44"/>
            </g>
            <g fill="#281586" transform="translate(84 290)">
                <rect width="208" height="62" rx="31"/>
                <rect width="190.2" height="48.2" x="8.9" y="7.9" stroke="#FF9C9C" stroke-width="1.8" rx="24.1"/>
                <circle cx="173.5" cy="31.5" r="17.5" stroke="#FF9C9C" stroke-width="1.44"/>
            </g>
        </g>
        <path fill="#281586" d="M216.362 425.928c-5.747 0-12.38 2.446-12.38 7.968v3.912c0-10.815-9.194-19.789-20.687-19.789-5.746 0-10.343 4.372-10.343 9.895v3.911l-.23-4.142-5.55-43.746c-.46-6.902-3.874-19.07-10.54-19.07-6.665 0-8.908 12.398-8.908 19.07l-3.271 41.906v60.975l-10.805-16.567c-7.356-11.274-12.18-25.31-24.135-19.328-2.986 1.611-3.448 4.832-2.068 7.824l12.641 38.656c2.299 6.213 15.4 23.93 20.227 28.304 0 0 16.32 24.848 16.32 34.282l4.82 40.769s23.64-10.306 40.037-9.163c16.398 1.146 33.177 9.163 33.177 9.163l2.669-37.41c0-9.433 9.913-30.92 9.913-30.92 3.448-5.752 12.203-18.9 12.203-25.575 0 0 .763-23.856 0-38.937-.763-15.076-12.203-34.354-24.44-24.126 0-10.814-7.158-17.862-18.65-17.862z"/>
        <path fill="#140963" fill-rule="nonzero" d="M161.703 600.854c21.88-18.649 46.223-18.649 73.027 0-19.34 18.648-43.682 18.648-73.027 0zM172.494 432.367c-1.055 21.645-1.055 32.467 0 32.467 1.582 0 1.246-27.467 1.246-32.467 0-3.333-.416-3.333-1.246 0zM203.494 437.438c-1.055 13.597-1.055 20.396 0 20.396 1.582 0 1.246-17.255 1.246-20.396 0-2.094-.416-2.094-1.246 0zM234.494 446.438c-1.055 13.597-1.055 20.396 0 20.396 1.582 0 1.246-17.255 1.246-20.396 0-2.094-.416-2.094-1.246 0z"/>
        <g stroke-width="2">
            <path stroke="#A2ACE3" stroke-linecap="round" d="M163 59a8 8 0 1 1-16 0 8 8 0 0 1 16 0z"/>
            <path stroke="#FFC600" stroke-linecap="round" d="M71 388.5a5.5 5.5 0 1 1-11 0 5.5 5.5 0 1 1 11 0z"/>
            <g stroke="#A2ACE3" stroke-linecap="round">
                <path d="M273.995 386.195h13M279.407 379.195l2.136 14"/>
            </g>
            <g stroke="#1DD4B6" stroke-linecap="round">
                <path d="M54.851 123.172l9.994.354M48.073 104.776l18.544 8.951M66.55 97.97l6.285 9.028"/>
            </g>
            <path stroke="#FF9C9C" d="M14.963 248.176L2 242.889 7.664 229l12.964 5.287z"/>
            <g stroke="#A2ACE3" stroke-linecap="round">
                <path d="M314.858 115.685l-4.14 9.101M334.449 116.44l-15.351 13.724M333.687 136.116l-10.742 2.364"/>
            </g>
            <g stroke-linecap="round">
                <path stroke="#1DD4B6" d="M209.5 1.284v39"/>
                <path stroke="#A2ACE3" d="M219.5 30.284v22"/>
            </g>
            <g stroke-linecap="round">
                <path stroke="#A2ACE3" d="M344.995 262.479l23-12"/>
                <path stroke="#FFC600" d="M363.995 262.479l18-10"/>
            </g>
        </g>
    </g>
</svg>
