<svg width="60px" height="60px" viewBox="0 0 60 60" version="1.1" xmlns="http://www.w3.org/2000/svg" xmlns:xlink="http://www.w3.org/1999/xlink">
    <g stroke="none" stroke-width="1" fill="none" fill-rule="evenodd">
        <g  transform="translate(-32.000000, -32.000000)" fill="#FF9C9C">
            <g >
                <g  transform="translate(32.000000, 32.000000)">
                    <g >
                        <g >
                            <path d="M29.3929139,0.0134602157 C17.1709146,0.429460191 7.22891523,10.5514596 7.22891523,22.5774589 L7.22891523,23.4504588 C7.22891523,30.6794584 10.675915,39.1974579 15.8319147,44.7624575 L16.1719147,47.5874574 C15.0129148,48.2884573 14.2289148,49.5484573 14.2289148,50.9994572 C14.2289148,53.205457 16.0229147,54.9994569 18.2289146,54.9994569 L18.2289146,55.9994569 C18.2289146,58.2054567 20.0229145,59.9994566 22.2289143,59.9994566 L38.2289134,59.9994566 C40.4349133,59.9994566 42.2289131,58.2054567 42.2289131,55.9994569 L42.2289131,54.9994569 C44.434913,54.9994569 46.2289129,53.205457 46.2289129,50.9994572 C46.2289129,49.5484573 45.444913,48.2884573 44.285913,47.5864574 L44.625913,44.7614575 C49.7819127,39.1964579 53.2289125,30.6794584 53.2289125,23.4504588 L53.2289125,22.0734589 C53.2289125,16.2064593 50.8569126,10.6834596 46.5499129,6.52045983 C42.0469132,2.16746009 35.7829135,-0.201539771 29.3929139,0.0134602157 Z M9.22891511,23.4504588 L9.22891511,22.5774589 C9.22891511,11.6944595 18.1809146,2.53146007 29.2289139,2.0324601 L29.2289139,6.9994598 L28.228914,6.9994598 C26.0229141,6.9994598 24.2289142,8.79345969 24.2289142,10.9994596 C24.2289142,13.2054594 26.0229141,14.9994593 28.228914,14.9994593 L29.2289139,14.9994593 L29.2289139,25.9994587 L23.2289143,25.9994587 C22.6759143,25.9994587 22.2289143,26.4474586 22.2289143,26.9994586 L22.2289143,28.4994585 C22.2289143,29.8774584 21.1079144,30.9994584 19.7289145,30.9994584 C18.3499146,30.9994584 17.2289146,29.8774584 17.2289146,28.4994585 L17.2289146,26.9994586 C17.2289146,26.4474586 16.7819147,25.9994587 16.2289147,25.9994587 L9.3809151,25.9994587 C9.28191511,25.1324587 9.22891511,24.2794588 9.22891511,23.4504588 Z M9.69591508,27.9994585 L15.2289148,27.9994585 L15.2289148,28.4994585 C15.2289148,30.9804584 17.2479146,32.9994582 19.7289145,32.9994582 C22.2099143,32.9994582 24.2289142,30.9804584 24.2289142,28.4994585 L24.2289142,27.9994585 L29.2289139,27.9994585 L29.2289139,32.9994582 C29.2289139,33.5514582 29.6759139,33.9994582 30.2289139,33.9994582 L32.2289137,33.9994582 C33.3319137,33.9994582 34.2289136,34.8964581 34.2289136,35.9994581 C34.2289136,37.102458 33.3319137,37.999458 32.2289137,37.999458 L30.2289139,37.999458 C29.6759139,37.999458 29.2289139,38.4474579 29.2289139,38.9994579 L29.2289139,46.9994574 L18.2289146,46.9994574 C18.1909146,46.9994574 18.1549146,47.0094574 18.1169146,47.0104574 L17.7779146,44.1964576 C17.7519146,43.9824576 17.6579146,43.7824576 17.5089146,43.6274576 C13.6879148,39.6064579 10.778915,33.6414582 9.69591508,27.9994585 Z M40.2289133,55.9994569 C40.2289133,57.1024568 39.3319133,57.9994568 38.2289134,57.9994568 L22.2289143,57.9994568 C21.1259144,57.9994568 20.2289145,57.1024568 20.2289145,55.9994569 L20.2289145,54.9994569 L40.2289133,54.9994569 L40.2289133,55.9994569 Z M42.2289131,52.9994571 L18.2289146,52.9994571 C17.1259146,52.9994571 16.2289147,52.1024571 16.2289147,50.9994572 C16.2289147,49.8964572 17.1259146,48.9994573 18.2289146,48.9994573 L42.2289131,48.9994573 C43.3319131,48.9994573 44.228913,49.8964572 44.228913,50.9994572 C44.228913,52.1024571 43.3319131,52.9994571 42.2289131,52.9994571 Z M42.9489131,43.6274576 C42.8009131,43.7834576 42.7069131,43.9824576 42.6799131,44.1964576 L42.3409131,47.0104574 C42.3029131,47.0094574 42.2669131,46.9994574 42.2289131,46.9994574 L31.2289138,46.9994574 L31.2289138,39.9994578 L32.2289137,39.9994578 C34.4349136,39.9994578 36.2289135,38.2054579 36.2289135,35.9994581 C36.2289135,33.7934582 34.4349136,31.9994583 32.2289137,31.9994583 L31.2289138,31.9994583 L31.2289138,27.9994585 L38.2289134,27.9994585 C38.7819134,27.9994585 39.2289133,27.5514586 39.2289133,26.9994586 L39.2289133,25.9994587 C39.2289133,24.8964587 40.1259133,23.9994588 41.2289132,23.9994588 C42.3319131,23.9994588 43.2289131,24.8964587 43.2289131,25.9994587 L43.2289131,26.9994586 C43.2289131,27.5514586 43.6759131,27.9994585 44.228913,27.9994585 L50.7619126,27.9994585 C49.6789127,33.6414582 46.7699129,39.6064579 42.9489131,43.6274576 Z M51.2289126,23.4504588 C51.2289126,24.2794588 51.1759126,25.1324587 51.0769126,25.9994587 L45.228913,25.9994587 C45.228913,23.7934588 43.4349131,21.9994589 41.2289132,21.9994589 C39.0229133,21.9994589 37.2289134,23.7934588 37.2289134,25.9994587 L31.2289138,25.9994587 L31.2289138,13.9994594 C31.2289138,13.4474594 30.7819138,12.9994594 30.2289139,12.9994594 L28.228914,12.9994594 C27.125914,12.9994594 26.2289141,12.1024595 26.2289141,10.9994596 C26.2289141,9.89645963 27.125914,8.99945968 28.228914,8.99945968 L30.2289139,8.99945968 C30.7819138,8.99945968 31.2289138,8.55145971 31.2289138,7.99945974 L31.2289138,2.03846009 C36.5039135,2.27046008 41.4009132,4.32545996 45.160913,7.95745974 C49.0739127,11.7404595 51.2289126,16.7524592 51.2289126,22.0724589 L51.2289126,23.4504588 Z" fill-rule="nonzero"></path>
                            <path d="M41.2559975,8.99999946 C41.2549975,8.99999946 41.2549975,8.99999946 41.2559975,8.99999946 C40.3459976,8.99999946 39.4899976,9.34599944 38.8279977,9.97799941 C37.4659978,8.67799948 35.1779979,8.72299948 33.859998,10.0929994 C32.4899981,11.5199993 32.4899981,13.8419992 33.859998,15.2689991 L38.1059977,19.6919988 C38.2949977,19.8889988 38.5559977,19.9999988 38.8279977,19.9999988 C39.0999977,19.9999988 39.3609977,19.8889988 39.5499976,19.6919988 L43.7949974,15.2689991 C45.1669973,13.8419992 45.1669973,11.5189993 43.7959974,10.0919994 C43.1189974,9.38799944 42.2179975,8.99999946 41.2559975,8.99999946 Z M42.3529975,13.8839992 L38.8289977,17.555999 L35.3049979,13.8839992 C34.6679979,13.2199992 34.6679979,12.1409993 35.3049979,11.4769993 C35.5989979,11.1689993 35.9889979,10.9999993 36.4009978,10.9999993 C36.8139978,10.9999993 37.2049978,11.1689993 37.4999978,11.4779993 L38.1059977,12.1099993 C38.4829977,12.5039993 39.1719977,12.5039993 39.5489976,12.1099993 L40.1539976,11.4789993 C40.4519976,11.1699993 40.8419976,10.9999993 41.2549975,10.9999993 C41.6669975,10.9999993 42.0579975,11.1699993 42.3539975,11.4779993 C42.9899974,12.1409993 42.9899974,13.2209992 42.3529975,13.8839992 Z" fill-rule="nonzero"></path>
                            <path d="M19.5859988,41.9999975 L22.2929987,44.7069973 C22.4839987,44.8979973 22.7399986,44.9999973 22.9999986,44.9999973 C23.1289986,44.9999973 23.2589986,44.9749973 23.3829986,44.9239973 C23.7569986,44.7689973 23.9999986,44.4039974 23.9999986,43.9999974 L23.9999986,41.9639975 C25.6939985,41.7209975 26.9999984,40.2599976 26.9999984,38.4999977 C26.9999984,36.5699978 25.4299985,34.9999979 23.4999986,34.9999979 L19.4999988,34.9999979 C17.569999,34.9999979 15.999999,36.5699978 15.999999,38.4999977 C15.999999,40.4299976 17.569999,41.9999975 19.4999988,41.9999975 L19.5859988,41.9999975 Z M17.9999989,38.4999977 C17.9999989,37.6729978 18.6729989,36.9999978 19.4999988,36.9999978 L23.4999986,36.9999978 C24.3269985,36.9999978 24.9999985,37.6729978 24.9999985,38.4999977 C24.9999985,39.3269977 24.3269985,39.9999976 23.4999986,39.9999976 L22.9999986,39.9999976 C22.4469987,39.9999976 21.9999987,40.4479976 21.9999987,40.9999976 L21.9999987,41.5859975 L20.7069988,40.2929976 C20.5199988,40.1049976 20.2659988,39.9999976 19.9999988,39.9999976 L19.4999988,39.9999976 C18.6729989,39.9999976 17.9999989,39.3269977 17.9999989,38.4999977 Z" fill-rule="nonzero"></path>
                            <path d="M18.9999989,21.8969987 L21.4819987,23.7939986 C21.6609987,23.9309986 21.8759987,23.9999986 22.0899987,23.9999986 C22.2899987,23.9999986 22.4889987,23.9399986 22.6619986,23.8199986 C23.0179986,23.5709986 23.1739986,23.1199986 23.0449986,22.7049986 L22.0709987,19.5509988 L24.6069985,17.613999 C24.9479985,17.353999 25.0849985,16.905999 24.9469985,16.498999 C24.8089985,16.091999 24.4289985,15.8199991 23.9999986,15.8199991 L20.9179988,15.8199991 L19.9549988,12.7049992 C19.8259988,12.2859993 19.4379988,11.9999993 18.9999989,11.9999993 C18.5619989,11.9999993 18.1739989,12.2859993 18.0449989,12.7049992 L17.081999,15.8199991 L13.9999992,15.8199991 C13.5709992,15.8199991 13.1899992,16.092999 13.0529992,16.499999 C12.9159992,16.906999 13.0519992,17.353999 13.3929992,17.614999 L15.9289991,19.5519988 L14.9549991,22.7059986 C14.8259991,23.1219986 14.9809991,23.5719986 15.3379991,23.8209986 C15.6949991,24.0699986 16.171999,24.0599986 16.517999,23.7949986 L18.9999989,21.8969987 Z M17.8189989,17.8199989 C18.2569989,17.8199989 18.6449989,17.533999 18.7739989,17.114999 L18.9999989,16.385999 L19.2259989,17.114999 C19.3549988,17.533999 19.7429988,17.8199989 20.1809988,17.8199989 L21.0439987,17.8199989 L20.3029988,18.3859989 C19.9699988,18.6399989 19.8309988,19.0749989 19.9549988,19.4749988 L20.2109988,20.3059988 L19.6069988,19.8449988 C19.4269988,19.7079988 19.2129989,19.6389988 18.9999989,19.6389988 C18.7869989,19.6389988 18.5719989,19.7069988 18.3929989,19.8449988 L17.7889989,20.3059988 L18.0449989,19.4749988 C18.1689989,19.0749989 18.0299989,18.6399989 17.6969989,18.3859989 L16.955999,17.8199989 L17.8189989,17.8199989 Z" fill-rule="nonzero"></path>
                            <polygon points="42.9999974 29.9999982 40.9999976 29.9999982 40.9999976 32.999998 37.9999977 32.999998 37.9999977 34.9999979 40.9999976 34.9999979 40.9999976 37.9999977 42.9999974 37.9999977 42.9999974 34.9999979 45.9999973 34.9999979 45.9999973 32.999998 42.9999974 32.999998"></polygon>
                            <rect  x="1.99999988" y="0" width="1.99999988" height="1.99999988"></rect>
                            <rect  x="1.99999988" y="3.99999976" width="1.99999988" height="1.99999988"></rect>
                            <rect  x="3.99999976" y="1.99999988" width="1.99999988" height="1.99999988"></rect>
                            <rect  x="0" y="1.99999988" width="1.99999988" height="1.99999988"></rect>
                            <rect  x="55.9999967" y="0" width="1.99999988" height="1.99999988"></rect>
                            <rect  x="55.9999967" y="3.99999976" width="1.99999988" height="1.99999988"></rect>
                            <rect  x="57.9999965" y="1.99999988" width="1.99999988" height="1.99999988"></rect>
                            <rect  x="53.9999968" y="1.99999988" width="1.99999988" height="1.99999988"></rect>
                        </g>
                    </g>
                </g>
            </g>
        </g>
    </g>
</svg>