<svg xmlns="http://www.w3.org/2000/svg" width="30" height="36" viewBox="0 0 30 36">
    <path fill="#432CB4" fill-rule="nonzero" d="M26.689 23.618c-.567-.894-1.31-4.922-1.68-8.37-.89-7.343-4.316-10.01-6.895-10.973v-.608c0-1.75-1.397-3.174-3.113-3.174s-3.113 1.424-3.113 3.174v.608c-2.58.963-6.007 3.632-6.9 10.982-.39 3.46-1.159 7.518-1.716 8.375-1.636.505-2.796 2.073-2.796 3.837 0 2.208 1.76 4.003 3.925 4.003h7.013c-.01.113-.037.222-.037.338 0 2.04 1.626 3.698 3.625 3.698 2 0 3.625-1.659 3.625-3.698 0-.115-.027-.224-.038-.338h7.012c2.164 0 3.924-1.795 3.924-4.003 0-1.79-1.176-3.362-2.836-3.851zM13.652 3.667c0-.757.605-1.374 1.348-1.374.743 0 1.348.617 1.348 1.374v.145c-.087-.012-.159-.016-.239-.024l-.138-.014a6.593 6.593 0 0 0-.621-.034l-.024-.001-.082.001c-.047 0-.092.001-.13.003l-.065.003c-.015 0-.036 0-.049.002a6.129 6.129 0 0 0-1.348.064v-.145zm3.18 27.807c.02.11.029.222.029.337 0 1.045-.835 1.897-1.861 1.897s-1.86-.852-1.86-1.897c0-.116.01-.228.028-.339l3.665.002zm8.769-1.802H4.4c-1.19 0-2.16-.989-2.16-2.203 0-1.026.712-1.931 1.694-2.154.13-.03.251-.089.355-.173 1.353-1.09 2.165-7.133 2.45-9.672.846-6.959 4.039-9.068 6.232-9.686.011-.002.023.002.033 0a6.85 6.85 0 0 1 .683-.156c.04-.007.083-.015.124-.02a6.15 6.15 0 0 1 .866-.067c.136 0 .22.006.233.007a.944.944 0 0 0 .175 0c.017-.001.101-.008.237-.008a6.001 6.001 0 0 1 .858.067c.038.005.08.013.119.019.212.037.444.086.696.157.021.007.043.005.064.01 2.192.628 5.358 2.75 6.196 9.665.274 2.546 1.054 8.583 2.41 9.675a.861.861 0 0 0 .37.175c.999.21 1.723 1.119 1.723 2.162.002 1.213-.967 2.202-2.157 2.202z"/>
</svg>
