<?xml version="1.0" encoding="UTF-8"?>
<svg width="20px" height="23px" viewBox="0 0 20 23" version="1.1" xmlns="http://www.w3.org/2000/svg" xmlns:xlink="http://www.w3.org/1999/xlink">
    <g stroke="none" stroke-width="1" fill="none" fill-rule="evenodd">
        <g  transform="translate(-932.000000, -49.000000)" fill="#A2ACE3">
            <g >
                <g transform="translate(837.000000, 49.000000)">
                    <g transform="translate(95.000000, 0.000000)">
                        <g >
                            <path d="M19.7121951,4.97081633 C19.3316708,4.60683091 18.7171097,4.60683091 18.3365854,4.97081633 L16.9268293,6.32265306 C15.3665401,4.89807517 13.3593422,4.01160481 11.2195122,3.80204082 L11.2195122,1.87755102 L13.1707317,1.87755102 C13.7095461,1.87755102 14.1463415,1.45724691 14.1463415,0.93877551 C14.1463415,0.420304112 13.7095461,0 13.1707317,0 L7.31707317,0 C6.77825878,0 6.34146341,0.420304112 6.34146341,0.93877551 C6.34146341,1.45724691 6.77825878,1.87755102 7.31707317,1.87755102 L9.26829268,1.87755102 L9.26829268,3.80204082 C7.12846264,4.01160481 5.12126481,4.89807517 3.56097561,6.32265306 L2.15121951,4.97081633 C1.76413631,4.65184219 1.18712764,4.67328807 0.82676759,5.02004269 C0.466407542,5.36679731 0.444120199,5.92202096 0.775609756,6.2944898 L2.27804878,7.74489796 C-0.586409254,11.6429581 0.0456608104,16.9888855 3.746901,20.1681684 C7.44814118,23.3474513 13.0396637,23.3474513 16.7409039,20.1681684 C20.4421441,16.9888855 21.0742141,11.6429581 18.2097561,7.74489796 L19.7121951,6.2944898 C20.090462,5.92833219 20.090462,5.33697394 19.7121951,4.97081633 Z M10.2439024,20.6530612 C5.93338732,20.6530612 2.43902439,17.2906283 2.43902439,13.1428571 C2.43902439,8.99508596 5.93338732,5.63265306 10.2439024,5.63265306 C14.5544176,5.63265306 18.0487805,8.99508596 18.0487805,13.1428571 C18.0487805,15.1346871 17.2264832,17.0449369 15.7627846,18.4533734 C14.2990861,19.8618099 12.3138848,20.6530612 10.2439024,20.6530612 Z" fill-rule="nonzero"></path>
                            <path d="M14.1463415,12.2040816 L11.2195122,12.2040816 L11.2195122,8.44897959 C11.2195122,7.93050819 10.7827168,7.51020408 10.2439024,7.51020408 C9.70508805,7.51020408 9.26829268,7.93050819 9.26829268,8.44897959 L9.26829268,13.1428571 C9.26829268,13.6613285 9.70508805,14.0816327 10.2439024,14.0816327 L14.1463415,14.0816327 C14.6851559,14.0816327 15.1219512,13.6613285 15.1219512,13.1428571 C15.1219512,12.6243857 14.6851559,12.2040816 14.1463415,12.2040816 Z" ></path>
                        </g>
                    </g>
                </g>
            </g>
        </g>
    </g>
</svg>