<svg xmlns="http://www.w3.org/2000/svg" width="41" height="53" viewBox="0 0 41 53">
    <g fill="#A2ACE3" fill-rule="evenodd">
        <path fill-rule="nonzero" d="M38.053.366H3.128C1.638.366.425 1.59.425 3.092v46.966c0 1.503 1.213 2.727 2.703 2.727h34.925c1.49 0 2.702-1.224 2.702-2.727V3.092c0-1.503-1.212-2.726-2.702-2.726zm.624 49.692c0 .347-.28.629-.624.629H3.128a.627.627 0 0 1-.624-.63V3.092c0-.347.28-.629.624-.629h34.925c.344 0 .624.282.624.63v46.966z"/>
        <path d="M33.084 29.382H8.097c-.689 0-1.248.564-1.248 1.258 0 .695.559 1.258 1.248 1.258h24.987c.688 0 1.246-.563 1.246-1.258 0-.694-.558-1.258-1.246-1.258zM33.084 36.092H8.097c-.689 0-1.248.564-1.248 1.258 0 .695.559 1.258 1.248 1.258h24.987c.688 0 1.246-.563 1.246-1.258 0-.694-.558-1.258-1.246-1.258zM33.084 42.801H8.097c-.689 0-1.248.564-1.248 1.258 0 .695.559 1.258 1.248 1.258h24.987c.688 0 1.246-.563 1.246-1.258 0-.694-.558-1.258-1.246-1.258zM13.229 23.3c2.728 1.228 7.07 1.3 7.07 1.3 4.393.094 7.527-1.113 7.527-1.113.465-.296.478-.528.478-.528.324-2.83-1.063-3.84-1.063-3.84-.417-.933-2.96-1.741-2.96-1.741-.95-.338-1.239-.674-1.327-.847l-.025-.056v-.007l-.014-.053v-.001c-.037-.134-.127-.473-.127-.557l-.016.075a1.902 1.902 0 0 1-.004-.265l-.022.024c.315-.408.571-.873.74-1.347.29-.291.438-1 .438-1 .193-.544.136-.82.048-.961.027-.082.488-1.521-.163-2.631 0 0-.232-1.05-1.457-1.516-1.132-.7-2.82-.28-2.82-.28-2.058.35-2.499 2.79-2.499 2.79-.122 1.116.174 1.812.186 1.841-.105.264.086.954.086.954.066.422.27.55.329.58a4.799 4.799 0 0 0 .695 1.468s.035.171.003.411l-.007-.039c0 .098-.118.456-.133.502l-.003.007a5.607 5.607 0 0 1-.285.353c-.767.597-2.61 1.16-2.61 1.16-.8.312-1.14.778-1.14.778-1.186 1.772-1.326 3.543-1.326 3.543.015.902.4.996.4.996z"/>
    </g>
</svg>
