<svg xmlns="http://www.w3.org/2000/svg" width="36" height="54" viewBox="0 0 36 54">
    <path fill="#A2ACE3" fill-rule="nonzero" d="M35.156 51.174L21.698 19.916c1.735-1.234 2.914-3.29 2.914-5.622 0-3.29-2.359-6.032-5.411-6.717V1.956c0-.892-.694-1.577-1.596-1.577-.902 0-1.595.685-1.595 1.577v5.62a6.863 6.863 0 0 0-5.411 6.718c0 2.331 1.18 4.32 2.913 5.622l-7.77 18.028L.125 51.105c-.347.823.069 1.714.832 2.057.208.068.416.137.624.137.625 0 1.18-.343 1.457-.96l4.995-11.79a28.897 28.897 0 0 0 7.978 1.576v1.371c0 .892.693 1.577 1.595 1.577s1.596-.685 1.596-1.577v-1.37a28.897 28.897 0 0 0 7.978-1.577l5.064 11.79c.277.617.832.96 1.457.96.208 0 .416-.069.624-.137.763-.274 1.18-1.234.832-1.988zm-17.55-40.718c2.15 0 3.884 1.713 3.884 3.838 0 2.126-1.734 3.84-3.885 3.84-2.15 0-3.884-1.714-3.884-3.84 0-2.125 1.734-3.838 3.884-3.838zM19.2 39.04v-1.234c0-.891-.694-1.577-1.596-1.577-.902 0-1.595.686-1.595 1.577v1.302c-2.29-.137-4.579-.617-6.799-1.37l7.146-16.59c.416.069.832.137 1.248.137.417 0 .833-.068 1.249-.137l7.076 16.59c-2.15.753-4.44 1.165-6.73 1.302z"/>
</svg>
