<svg id="Calque_1" data-name="Calque 1" xmlns="http://www.w3.org/2000/svg" viewBox="0 0 42 32"><defs><style>.cls-1,.cls-6{fill:none;}.cls-1,.cls-3,.cls-4,.cls-5{stroke:#a2ace3;}.cls-1,.cls-3,.cls-5,.cls-6{stroke-linecap:round;stroke-linejoin:round;}.cls-1,.cls-3,.cls-4,.cls-5,.cls-6{stroke-width:2px;}.cls-2,.cls-3,.cls-4{fill:#a2ace3;}.cls-4{stroke-miterlimit:10;}.cls-6{stroke:#000;}</style></defs><title>etablissement</title><polyline class="cls-1" points="31 14 41 14 41 31 1 31 1 14 11 14"/><polygon class="cls-1" points="31 31 11 31 11 11.44 21 7.44 31 11.44 31 31"/><circle class="cls-2" cx="21" cy="15.28" r="2.32"/><rect class="cls-1" x="16.68" y="23.6" width="8.64" height="7.4"/><line class="cls-1" x1="21" y1="23.6" x2="21" y2="31"/><path class="cls-1" d="M60,40" transform="translate(-29 -19)"/><line class="cls-3" x1="21" y1="7.44" x2="21" y2="1"/><path class="cls-4" d="M21,1h3a.62.62,0,0,1,.62.62V3a.62.62,0,0,1-.62.62H21a0,0,0,0,1,0,0V1A0,0,0,0,1,21,1Z"/><path class="cls-4" d="M24.13,2.1H27a.16.16,0,0,1,.16.16V4.58a.16.16,0,0,1-.16.16H24.13a.62.62,0,0,1-.62-.62V2.71A.62.62,0,0,1,24.13,2.1Z"/><polygon class="cls-3" points="31 13.44 21 9.44 11 13.44 11 11.44 21 7.44 31 11.44 31 13.44"/><line class="cls-5" x1="4.45" y1="18.25" x2="7.55" y2="18.25"/><line class="cls-5" x1="4.45" y1="22.5" x2="7.55" y2="22.5"/><line class="cls-5" x1="4.45" y1="26.75" x2="7.55" y2="26.75"/><line class="cls-5" x1="34.45" y1="18.25" x2="37.55" y2="18.25"/><line class="cls-5" x1="34.45" y1="22.5" x2="37.55" y2="22.5"/><line class="cls-5" x1="34.45" y1="26.75" x2="37.55" y2="26.75"/><path class="cls-6" d="M15.63,47.8" transform="translate(-29 -19)"/></svg>