<svg width="10" height="13" viewBox="0 0 10 13" fill="none" xmlns="http://www.w3.org/2000/svg">
<path d="M9.14844 2.79688L7.20312 0.828125C6.99219 0.617188 6.6875 0.5 6.40625 0.5H1.625C0.992188 0.5 0.5 1.01562 0.5 1.625V11.375C0.5 12.0078 0.992188 12.5 1.625 12.5H8.375C8.98438 12.5 9.5 12.0078 9.5 11.375V3.59375C9.5 3.3125 9.35938 3.00781 9.14844 2.79688ZM8.63281 3.33594C8.67969 3.38281 8.70312 3.45312 8.72656 3.5H6.5V1.27344C6.54688 1.29688 6.61719 1.32031 6.66406 1.36719L8.63281 3.33594ZM8.375 11.75H1.625C1.41406 11.75 1.25 11.5859 1.25 11.375V1.625C1.25 1.4375 1.41406 1.25 1.625 1.25H5.75V3.6875C5.75 4.01562 5.98438 4.25 6.3125 4.25H8.75V11.375C8.75 11.5859 8.5625 11.75 8.375 11.75Z" fill="#27AAFF"/>
</svg>
