<svg xmlns="http://www.w3.org/2000/svg" width="40" height="40" viewBox="0 0 40 40">
    <g fill="#A2ACE3" fill-rule="evenodd">
        <path fill-rule="nonzero" d="M20 2.8c9.5 0 17.2 7.7 17.2 17.2S29.5 37.2 20 37.2 2.8 29.5 2.8 20 10.5 2.8 20 2.8zM20 0C8.954 0 0 8.954 0 20s8.954 20 20 20 20-8.954 20-20A20 20 0 0 0 20 0z"/>
        <path d="M20.316 10c.712.074 1.418.19 2.116.348 2.132.604 3.4 2.308 3.56 4.572a4.16 4.16 0 0 1-1.684 3.8c-.568.44-1.164.84-1.736 1.272a2.824 2.824 0 0 0-1.272 2.52 1.6 1.6 0 0 1-1.152 1.6 1.768 1.768 0 0 1-2.072-.62c-.15-.25-.23-.536-.236-.828A5.556 5.556 0 0 1 20.12 18a16.62 16.62 0 0 0 1.812-1.6 2 2 0 0 0 .468-1.124c.092-1.132-.636-1.86-1.808-1.936-1.416-.092-2.608.276-3.44 1.528a1.676 1.676 0 0 1-1.74.8c-1.2-.2-1.716-1.176-1.224-2.3a5.136 5.136 0 0 1 2.5-2.48A8.684 8.684 0 0 1 20.316 10zM21.512 27.952C21.52 29.236 20.8 30 19.54 30s-2.1-.736-2.104-1.812c0-1.492.668-2.236 2-2.276 1.084-.032 2.212.632 2.076 2.04z"/>
    </g>
</svg>
