<svg xmlns="http://www.w3.org/2000/svg" width="42" height="44" viewBox="0 0 42 44">
    <g fill="#A2ACE3" fill-rule="evenodd">
        <path fill-rule="nonzero" d="M39.904 28.228V4.582c0-2.253-1.781-4.087-3.97-4.087-2.188 0-3.968 1.833-3.968 4.087v10.461a3.84 3.84 0 0 0-1.63-.37c-1.69 0-3.127 1.099-3.698 2.635a3.798 3.798 0 0 0-1.9-.527c-1.621 0-3.014 1.02-3.63 2.474a4.119 4.119 0 0 0-1.968-.51c-2.189 0-3.97 1.671-3.97 3.726V34.1c0 4.026 2.894 8.925 11.051 9.484l.535.042a30.85 30.85 0 0 0 2.622.133c2.592 0 5.858-.492 7.965-3.03 1.943-2.34 2.894-3.58 3.843-5.638 1.12-2.426.339-5.145-1.011-6.576l-.271-.287zM34.305 4.582c0-.963.731-1.747 1.629-1.747.899 0 1.629.784 1.629 1.747v21.166l-3.066-3.25c-.06-.063-.13-.108-.192-.168V4.582zM28.706 18.76c0-.963.732-1.747 1.63-1.747.898 0 1.629.784 1.629 1.747v2.477c-1.127-.132-2.287.189-3.159 1.013-.038.035-.064.078-.1.116V18.76zm0 9.164c.007.007.011.015.018.021l2.355 2.497c-.23.128-.482.206-.743.206-.898 0-1.629-.784-1.629-1.747v-.977zm-5.598-7.01c0-.989.731-1.793 1.63-1.793.898 0 1.628.805 1.628 1.793v8.399c0 .988-.73 1.792-1.628 1.792-.898 0-1.63-.804-1.63-1.792v-8.4zm-5.599 1.556c0-.764.732-1.386 1.63-1.386.899 0 1.629.622 1.629 1.387V29.718c0 .764-.731 1.386-1.629 1.386s-1.63-.622-1.63-1.386V22.47zm21.553 11.642c-.793 1.718-1.537 2.736-3.518 5.122-2.154 2.593-6.506 2.233-8.595 2.06l-.569-.044c-8.23-.565-8.87-5.614-8.87-7.149v-.993a4.152 4.152 0 0 0 1.629.337 4.074 4.074 0 0 0 2.86-1.155c.713.711 1.675 1.154 2.739 1.154 1.21 0 2.282-.578 3.01-1.47.697.623 1.595 1.013 2.587 1.013a3.88 3.88 0 0 0 2.109-.623c.094-.061.172-.136.243-.217l.167.177a1.17 1.17 0 0 0 1.703-1.605l-4.131-4.379c-.661-.7-.667-1.773-.013-2.389.652-.617 1.723-.548 2.384.152l5.675 6.017c.802.851 1.242 2.577.59 3.991z"/>
        <path d="M23.065 9.153a1.405 1.405 0 0 0 2.746-.587l-1.54-7.195a1.404 1.404 0 0 0-2.746.587l1.54 7.195zM15.678 13.107l-5.272-5.544A1.405 1.405 0 0 0 8.37 9.496l5.272 5.543a1.401 1.401 0 0 0 1.985.051 1.404 1.404 0 0 0 .05-1.984zM1.427 22.47l7.283 2.386a1.4 1.4 0 0 0 1.77-.898 1.404 1.404 0 0 0-.897-1.77L2.3 19.802a1.405 1.405 0 0 0-.873 2.669zM9 32.63l-7.457 1.747a1.404 1.404 0 1 0 .641 2.733l7.456-1.747A1.404 1.404 0 1 0 9 32.63z"/>
    </g>
</svg>
