<svg xmlns="http://www.w3.org/2000/svg" width="42" height="31" viewBox="0 0 42 31">
    <g fill="none" fill-rule="evenodd">
        <path fill="#A2ACE3" fill-rule="nonzero" d="M22.476 18.406c4.313 0 7.81-3.47 7.81-7.75 0-4.28-3.497-7.75-7.81-7.75s-7.81 3.47-7.81 7.75c0 4.28 3.497 7.75 7.81 7.75zm8.152-.463l9.8 9.212c.761.754 1.462 1.565.694 2.327-.762.757-1.903-.05-2.662-.803l-9.624-9.304c-.33.601-3.216 1.988-5.493 1.988-6.47 0-11.605-4.286-11.605-10.707C11.738 4.236 16.007 0 22.476 0c6.47 0 11.067 5.655 10.738 11.836-.095 1.799-1.436 4.633-2.586 6.107z"/>
        <path stroke="#A2ACE3" stroke-linecap="round" stroke-width="3" d="M2 1.5h6M2 8.5h6M2 15.5h6M2 22.5h11M2 29.5h27"/>
    </g>
</svg>
