<svg xmlns="http://www.w3.org/2000/svg" width="49" height="54" viewBox="0 0 49 54">
    <g fill="#A2ACE3" fill-rule="evenodd">
        <path d="M9.121 23.106h11.324c.615 0 1.118-.498 1.118-1.105 0-.608-.503-1.105-1.118-1.105H9.12c-.614 0-1.117.497-1.117 1.105 0 .607.503 1.105 1.117 1.105zM39.582 32.863l-8.451 7.646-4.136-4.442a1.123 1.123 0 0 0-1.576-.066 1.093 1.093 0 0 0-.067 1.558l4.896 5.249c.223.232.525.353.827.353.268 0 .537-.1.76-.287l9.267-8.398a1.083 1.083 0 0 0 .067-1.558 1.137 1.137 0 0 0-1.587-.055z"/>
        <path fill-rule="nonzero" d="M36.642 22.962V12.917c0-.287-.134-.563-.324-.762L24.928.343A1.115 1.115 0 0 0 24.121 0H6.081A5.976 5.976 0 0 0 .089 5.978v33.725c0 3.293 2.66 5.933 5.992 5.933h14.23A15.414 15.414 0 0 0 33.5 53.03c8.484 0 15.37-6.818 15.37-15.194 0-7.304-5.254-13.426-12.23-14.873zM25.24 3.879l7.635 7.944h-4.952A2.678 2.678 0 0 1 25.24 9.16V3.88zM6.08 43.438c-2.09 0-3.755-1.658-3.755-3.724V5.978A3.754 3.754 0 0 1 6.081 2.21h16.923v6.961c0 2.686 2.203 4.874 4.919 4.874h6.483v8.63c-.302-.023-.603-.023-.905-.023a15.417 15.417 0 0 0-10.116 3.769H9.12c-.614 0-1.117.497-1.117 1.105 0 .607.503 1.105 1.117 1.105h12.173a15.24 15.24 0 0 0-2 3.425H9.12c-.614 0-1.117.497-1.117 1.105s.503 1.105 1.117 1.105h9.446a15.007 15.007 0 0 0 .637 9.171H6.08zm27.42 7.38c-7.243 0-13.134-5.822-13.134-12.983 0-7.16 5.891-12.984 13.135-12.984 7.243 0 13.134 5.824 13.134 12.984S40.745 50.82 33.501 50.82z"/>
    </g>
</svg>
