<svg xmlns="http://www.w3.org/2000/svg" width="20" height="20" viewBox="0 0 20 20">
    <path fill="#FFF" fill-rule="nonzero" d="M1.74 19.7c.08 0 .16-.01.24-.033l5.762-1.62c.287-.08.55-.234.756-.445L19.015 7.085a2.66 2.66 0 0 0 .789-1.892c0-.713-.277-1.384-.784-1.891l-1.77-1.77a2.663 2.663 0 0 0-1.895-.788c-.714 0-1.385.277-1.892.784L2.946 12.05a1.77 1.77 0 0 0-.446.755L.881 18.568A.887.887 0 0 0 1.74 19.7zm6.134-3.727L4.579 12.68l8.016-8.016 3.295 3.294-8.016 8.016zm7.48-13.633c.287 0 .559.112.766.314l1.769 1.77c.202.201.314.474.314.765 0 .29-.112.558-.314.764l-.873.873-3.295-3.294.873-.873c.202-.207.474-.32.76-.32zM3.782 14.143l2.624 2.623-3.651 1.028 1.027-3.651z"/>
</svg>
