<svg id="Calque_1" data-name="Calque 1" xmlns="http://www.w3.org/2000/svg" viewBox="0 0 42 32"><defs><style>.cls-1{fill:none}.cls-1,.cls-3,.cls-4,.cls-5{stroke:#a2ace3}.cls-1,.cls-3,.cls-5{stroke-linecap:round;stroke-linejoin:round}.cls-1,.cls-3,.cls-4,.cls-5{stroke-width:2px}.cls-3,.cls-4{fill:#a2ace3}.cls-4{stroke-miterlimit:10}</style></defs><path class="cls-1" d="M31 14h10v17H1V14h10"/><path class="cls-1" d="M31 31H11V11.44l10-4 10 4V31z"/><circle cx="21" cy="15.28" r="2.32" fill="#a2ace3"/><path class="cls-1" d="M16.68 23.6h8.64V31h-8.64zM21 23.6V31"/><path class="cls-3" d="M21 7.44V1"/><path class="cls-4" d="M21 1h3a.62.62 0 01.62.62V3a.62.62 0 01-.62.62h-3V1z"/><path class="cls-4" d="M24.13 2.1H27a.16.16 0 01.16.16v2.32a.16.16 0 01-.16.16h-2.87a.62.62 0 01-.62-.62V2.71a.62.62 0 01.62-.61z"/><path class="cls-3" d="M31 13.44l-10-4-10 4v-2l10-4 10 4v2z"/><path class="cls-5" d="M4.45 18.25h3.1M4.45 22.5h3.1M4.45 26.75h3.1M34.45 18.25h3.1M34.45 22.5h3.1M34.45 26.75h3.1"/></svg>