<svg xmlns="http://www.w3.org/2000/svg" width="80" height="71" viewBox="0 0 80 71">
    <g fill="none" fill-rule="evenodd" stroke="#FFF" stroke-linecap="round" stroke-linejoin="round" stroke-width="3.15" transform="translate(2 2)">
        <path d="M75.6 4.63v41.51a4.341 4.341 0 0 1-4.348 4.335H4.348A4.341 4.341 0 0 1 0 46.14V4.63A4.341 4.341 0 0 1 4.348.296h66.904A4.341 4.341 0 0 1 75.6 4.63z"/>
        <path d="M53.933 25.376c0 8.893-7.22 16.089-16.142 16.089-8.904 0-16.124-7.196-16.124-16.089 0-8.874 7.22-16.07 16.124-16.07 8.922 0 16.142 7.196 16.142 16.07z"/>
        <path d="M43.205 27.495l-8.702 4.331c-1.569.781-3.414-.356-3.414-2.104v-8.673c0-1.75 1.847-2.887 3.417-2.103l8.701 4.342c1.74.867 1.738 3.342-.002 4.207zM65.714 63.375H26.443M19.22 63.375H9.886"/>
        <ellipse cx="22.832" cy="63.375" rx="3.611" ry="3.599"/>
    </g>
</svg>
