<svg xmlns="http://www.w3.org/2000/svg" width="12" height="13" viewBox="0 0 12 13">
    <g fill="#A2ACE3" fill-rule="evenodd">
        <path fill-rule="nonzero" d="M11.354 2.863a.578.578 0 0 0-.792 0l-.812.779A5.7 5.7 0 0 0 6.462 2.19V1.081h1.124c.31 0 .562-.242.562-.54A.552.552 0 0 0 7.586 0H4.215a.552.552 0 0 0-.562.54c0 .3.251.541.562.541h1.124V2.19A5.7 5.7 0 0 0 2.05 3.642l-.812-.779a.578.578 0 0 0-.763.029c-.207.2-.22.52-.03.734l.866.835c-1.65 2.245-1.286 5.325.846 7.156 2.132 1.831 5.353 1.831 7.485 0 2.132-1.831 2.496-4.91.846-7.156l.865-.835a.526.526 0 0 0 0-.763zM5.9 11.896c-2.482 0-4.495-1.937-4.495-4.326 0-2.389 2.013-4.326 4.495-4.326 2.483 0 4.496 1.937 4.496 4.326a4.245 4.245 0 0 1-1.317 3.06A4.587 4.587 0 0 1 5.9 11.895z"/>
        <path d="M8.148 7.03H6.462V4.867a.552.552 0 0 0-.562-.541.552.552 0 0 0-.561.54V7.57c0 .299.251.541.561.541h2.248c.31 0 .562-.242.562-.54a.552.552 0 0 0-.562-.541z"/>
    </g>
</svg>
