<svg xmlns="http://www.w3.org/2000/svg" xmlns:xlink="http://www.w3.org/1999/xlink" width="70" height="70" viewBox="0 0 70 70">
    <defs>
        <path id="a" d="M0 .113h26.66V14.68H0z"/>
        <path id="c" d="M4.783.873c-1.201.622-2.43 1.554-2.706 3.504C1.923 6.13-.146 5.95.008 4.197.378 2.357 2.224.336 4.546.02c.949-.125 1.326.324.237.852m-1.421 9.555c-1.558-9.42 9.346-14.39 16.304-5.694 6.854-8.695 17.862-3.726 16.305 5.694-1.143 6.625-7.581 13.146-16.305 18.425-8.723-5.279-15.266-11.8-16.304-18.425"/>
    </defs>
    <g fill="none" fill-rule="evenodd">
        <circle cx="35" cy="35" r="35" fill="#C8D0FF" fill-rule="nonzero"/>
        <path fill="#A2ACE3" d="M45.554 55.108c-1.19.46-2.437.57-3.813.34-1.34-.227-2.822-.525-4.623-1.153 2.634.398 5.436.568 6.667.075l.029.024c.074-.02.148-.039.222-.065.477-.165 1.036-.39 1.569-.41.883-.122 2.027.155 1.73 1.281-.031.117-.11.17-.198.177a1.359 1.359 0 0 0-.457-.29 1.545 1.545 0 0 0-1.126.02"/>
        <path fill="#A2ACE3" d="M34.949 53.438c.66-.048 1.393-.132 1.734-.096.005-.027 2.572-.14 3.452.529a.279.279 0 0 1 .081.103c2.272-.476 2.562-.457 3.198-.088a.359.359 0 0 1 .103.104c-1.388.488-5.217.155-8.541-.54l-.027-.012"/>
        <g transform="scale(-1 1) rotate(-21 123.496 155.996)">
            <mask id="b" fill="#fff">
                <use xlink:href="#a"/>
            </mask>
            <path fill="#A2ACE3" d="M26.594 10.43c-2.726-6.111-1.702-6.97-7.087-8.318-.714-.179-5.515-1.765-6.33-1.933a3.163 3.163 0 0 0-.636-.066c-1.433 0-2.25 1.044-.925 1.554 1.388.534 1.509.79 2.434 1.027.407.105 2.045.368 2.792.772-2.397.355-4.33.496-5.985.496-2.252 0-3.99-.262-5.68-.604-1.349-.273-2.57-.811-3.654-1.792a1.098 1.098 0 0 0-.738-.305c-.65 0-1.125.666-.474 1.255.158.143.566.542.629.609C4.307 6.723 8.718 7.205 14.8 8.05a25.95 25.95 0 0 0 1.69.103c.063 0 .109-.002.13-.007 2.746.848 4.165 2.924 5.936 6.471.022.043.068.063.133.063.794 0 4.506-2.9 3.905-4.25" mask="url(#b)"/>
        </g>
        <path fill="#8C95C8" fill-rule="nonzero" d="M19.11 54.839c-.19 2.614.544 4.423 2.2 5.427.706-1.795-.028-3.604-2.2-5.427z"/>
        <g>
            <g stroke-linecap="round">
                <path stroke="#8C95C8" stroke-width=".695" d="M34.694 41.016c-.11 3.996.278 5.991 1.11 5.9.832-.093.323-7.662.323-17.283 0-9.622-.693-17.052.416-17.375.74-.215 1.089 1.469 1.047 5.051"/>
                <path stroke="#FFF" stroke-width=".5" d="M34.694 41.016c-.11 3.996.278 5.991 1.11 5.9.832-.093.323-7.662.323-17.283 0-9.622-.693-17.052.416-17.375.74-.215 1.089 1.469 1.047 5.051"/>
                <path stroke="#8C95C8" stroke-width=".695" d="M23.956 31.155c-1.35 3.29-1.501 5.956-.13 7.11 2.524 2.124 9.257-1.689 15.037-8.516 5.78-6.828 8.323-13.947 5.895-16.21-1.936-1.804-5.386-.52-10.35 3.851"/>
                <path stroke="#FFF" stroke-width=".5" d="M23.956 31.155c-1.35 3.29-1.501 5.956-.13 7.11 2.524 2.124 9.257-1.689 15.037-8.516 5.78-6.828 8.323-13.947 5.895-16.21-1.936-1.804-5.386-.52-10.35 3.851"/>
                <path stroke="#8C95C8" stroke-width=".695" d="M47.89 30.844c1.578 3.557 1.833 6.476.381 7.697-2.524 2.125-9.257-1.688-15.037-8.516-5.78-6.828-8.42-14.085-5.895-16.21 2.051-1.726 5.102-.895 9.94 3.65"/>
                <path stroke="#FFF" stroke-width=".5" d="M47.89 30.844c1.578 3.557 1.833 6.476.381 7.697-2.524 2.125-9.257-1.688-15.037-8.516-5.78-6.828-8.42-14.085-5.895-16.21 2.051-1.726 5.102-.895 9.94 3.65"/>
            </g>
            <g transform="translate(16.124 14.38)">
                <mask id="d" fill="#fff">
                    <use xlink:href="#c"/>
                </mask>
                <use fill="#A2ACE3" xlink:href="#c"/>
                <g stroke-linecap="round" mask="url(#d)">
                    <path stroke="#8C95C8" stroke-width=".695" d="M19.68 32.536c.831-.093.323-7.662.323-17.283 0-9.62-.693-17.052.416-17.374"/>
                    <path stroke="#FFF" stroke-width=".5" d="M19.68 32.536c.831-.093.323-7.662.323-17.283 0-9.62-.693-17.052.416-17.374"/>
                    <path stroke="#8C95C8" stroke-width=".695" d="M7.7 23.885c2.526 2.125 9.258-1.688 15.039-8.516 5.78-6.828 8.419-14.085 5.894-16.21"/>
                    <path stroke="#FFF" stroke-width=".5" d="M7.7 23.885c2.526 2.125 9.258-1.688 15.039-8.516 5.78-6.828 8.419-14.085 5.894-16.21"/>
                    <path stroke="#8C95C8" stroke-width=".695" d="M32.147 24.162c-2.525 2.124-9.258-1.688-15.038-8.516C11.33 8.818 8.69 1.56 11.215-.564"/>
                    <path stroke="#FFF" stroke-width=".5" d="M32.147 24.162c-2.525 2.124-9.258-1.688-15.038-8.516C11.33 8.818 8.69 1.56 11.215-.564"/>
                </g>
            </g>
            <path fill="#8C95C8" d="M35.522 33.249c-2.482 0-4.502-2.013-4.502-4.487 0-2.473 2.02-4.486 4.502-4.486 2.482 0 4.502 2.013 4.502 4.486 0 2.474-2.02 4.487-4.502 4.487"/>
            <path fill="#C8D0FF" d="M35.522 24.045c-2.61 0-4.734 2.116-4.734 4.717 0 2.602 2.124 4.718 4.734 4.718s4.734-2.116 4.734-4.718c0-2.601-2.124-4.717-4.734-4.717m0 .462a4.262 4.262 0 0 1 4.27 4.255 4.262 4.262 0 0 1-4.27 4.255 4.262 4.262 0 0 1-4.27-4.255 4.262 4.262 0 0 1 4.27-4.255"/>
            <path fill="#8C95C8" d="M35.568 31.769a2.969 2.969 0 0 1-2.97-2.96 2.969 2.969 0 0 1 2.97-2.96 2.969 2.969 0 0 1 2.97 2.96 2.969 2.969 0 0 1-2.97 2.96"/>
            <path fill="#C8D0FF" d="M35.568 25.617a3.2 3.2 0 0 0-3.202 3.192 3.2 3.2 0 0 0 3.202 3.19 3.2 3.2 0 0 0 3.203-3.19 3.2 3.2 0 0 0-3.203-3.192m0 .463a2.734 2.734 0 0 1 2.739 2.729 2.734 2.734 0 0 1-2.739 2.728 2.734 2.734 0 0 1-2.738-2.728 2.734 2.734 0 0 1 2.738-2.73"/>
            <path fill="#8C95C8" d="M35.615 30.289a1.438 1.438 0 0 1-1.439-1.434c0-.79.646-1.434 1.439-1.434s1.439.643 1.439 1.434c0 .79-.646 1.434-1.44 1.434"/>
            <path fill="#C8D0FF" d="M35.615 27.19a1.67 1.67 0 0 0-1.67 1.665 1.67 1.67 0 1 0 3.342 0 1.67 1.67 0 0 0-1.672-1.665m0 .462c.666 0 1.207.539 1.207 1.203s-.54 1.202-1.207 1.202a1.205 1.205 0 0 1-1.207-1.202c0-.664.54-1.203 1.207-1.203"/>
        </g>
    </g>
</svg>
