<svg xmlns="http://www.w3.org/2000/svg" xmlns:xlink="http://www.w3.org/1999/xlink" width="70" height="70" viewBox="0 0 70 70">
    <defs>
        <circle id="a" cx="35" cy="35" r="35"/>
    </defs>
    <g fill="none" fill-rule="evenodd">
        <mask id="b" fill="#fff">
            <use xlink:href="#a"/>
        </mask>
        <use fill="#1DD4B6" fill-rule="nonzero" xlink:href="#a"/>
        <g mask="url(#b)">
            <g fill-rule="nonzero">
                <g transform="translate(22.537 8.747)">
                    <rect width="24.404" height="7.279" fill="#14AE95" rx="3.639"/>
                    <rect width="22.004" height="5.348" x="1.2" y=".966" fill="#14AE95" stroke="#FFF" stroke-width=".522" rx="2.674"/>
                    <circle cx="20.5" cy="3.753" r="1.5" stroke="#FFF" stroke-width=".5"/>
                </g>
                <g transform="translate(22.537 19.747)">
                    <rect width="24.404" height="7.279" fill="#14AE95" rx="3.639"/>
                    <rect width="22.004" height="5.348" x="1.2" y=".966" fill="#14AE95" stroke="#FFF" stroke-width=".522" rx="2.674"/>
                    <circle cx="20.5" cy="3.753" r="1.5" stroke="#FFF" stroke-width=".5"/>
                </g>
                <g transform="translate(22.537 30.747)">
                    <rect width="24.404" height="7.279" fill="#14AE95" rx="3.639"/>
                    <rect width="22.004" height="5.348" x="1.2" y=".966" fill="#14AE95" stroke="#FFF" stroke-width=".522" rx="2.674"/>
                    <circle cx="20.5" cy="3.753" r="1.5" stroke="#FFF" stroke-width=".5"/>
                </g>
            </g>
            <path fill="#14AE95" d="M38.067 45.72c-.675 0-1.453.287-1.453.935v.46c0-1.27-1.079-2.324-2.427-2.324-.674 0-1.213.513-1.213 1.162v.459l-.027-.486-.652-5.136c-.054-.81-.454-2.239-1.236-2.239s-1.045 1.456-1.045 2.239l-.384 4.92v7.158l-1.268-1.945c-.863-1.323-1.429-2.971-2.831-2.269-.35.19-.405.567-.243.919l1.483 4.538c.27.73 1.807 2.81 2.373 3.323 0 0 1.915 2.917 1.915 4.024l.565 4.787s2.774-1.21 4.698-1.076c1.924.135 3.892 1.076 3.892 1.076l.313-4.392c0-1.108 1.163-3.63 1.163-3.63.405-.676 1.432-2.22 1.432-3.003 0 0 .09-2.8 0-4.57-.09-1.77-1.432-4.034-2.867-2.833 0-1.27-.84-2.097-2.188-2.097z"/>
            <path fill="#108471" fill-rule="nonzero" d="M31.654 66.256c2.567-2.19 5.423-2.19 8.568 0-2.27 2.19-5.125 2.19-8.568 0z"/>
            <path fill="#1DD4B6" fill-rule="nonzero" d="M32.92 46.476c-.124 2.54-.124 3.811 0 3.811.185 0 .146-3.224.146-3.811 0-.392-.049-.392-.146 0zM36.557 47.071c-.124 1.596-.124 2.394 0 2.394.185 0 .146-2.025.146-2.394 0-.246-.049-.246-.146 0zM40.194 48.128c-.124 1.596-.124 2.394 0 2.394.185 0 .146-2.026.146-2.394 0-.246-.049-.246-.146 0z"/>
        </g>
    </g>
</svg>
