<svg xmlns="http://www.w3.org/2000/svg" width="70" height="70" viewBox="0 0 70 70">
    <g fill="none" fill-rule="evenodd">
        <circle cx="35" cy="35" r="35" fill="#C8D0FF" fill-rule="nonzero"/>
        <path fill="#A2ACE3" d="M38.415 55.497s-.843-7.477 4.46-13.989c3.402-4.178 11.71-8.918 5.785-20.62-5.58-11.021-18.42-10.037-24.346-3.015-1.898 2.25-2.753 7.759-6.147 11.938-1.566 1.93.702 2.384 1.326 4.1.624 1.717-1.78 3.902-.844 7.96.936 4.056 11.244 6.037 8.437 15.555 0 0 5.544 1.689 11.33-1.93"/>
        <path fill="#8C95C8" d="M27.086 57.426s4.821-5.667 11.33-1.93c-1.706 2.022-7.835 3.619-11.33 1.93"/>
        <path fill="#A2ACE3" d="M19.855 48.864c0-1.929 5.544-1.085 4.58 5.427-.965 6.512-3.857 3.618-3.255.965.603-2.653-1.325-4.462-1.325-6.392M44.688 13.6s3.887 4.77 4.875 2.611c.989-2.16-7.066-5.823-4.875-2.61M46.49 42.594a1.085 1.085 0 1 1-2.17 0 1.085 1.085 0 0 1 2.17 0"/>
        <g fill="#8C95C8">
            <path d="M35.753 15.886c-.103.06-.412-.072-.66-.177-.513-.218-1.215-.515-1.894-.12-.374.218-.455.192-.6.144-.27-.088-.566-.148-1.225.095-.781.288-1.138.9-1.375 1.304-.079.135-.198.339-.256.364a1.24 1.24 0 0 0-.825.06c-.14-.2-.387-.466-.758-.53-.423-.069-.863.133-1.31.612-.117.126-.349.21-.598.28.477-.617 1.063-1.193 1.743-1.473.802-.331 1.026-.516 1.207-.665.219-.18.38-.297.931-.448l.602-.168c1.536-.432 2.963-.82 3.536-.821.387-.001.866.074 1.33.148l.346.054c-.001.035.004.072.017.107.003.01.335.923-.211 1.234"/>
            <path d="M24.628 23.643c-.035.02-.07.032-.104.048-.064.154-.133.394-.091.792.099.964 1.203 1.722 1.772 1.913.23.078.38.168.553.272.216.13.461.278.895.428.24.084.511.14.775.18.505-.633 1.018-.768 1.317-.845.066-.018.135-.036.163-.05.16-.08.312-.155.459-.224-.732-.262-1.58-.812-1.775-1.865a.283.283 0 0 1 .228-.331.283.283 0 0 1 .331.228c.202 1.084 1.335 1.468 1.901 1.575v-.001c-.2-.412-.475-.975-.206-1.417a.285.285 0 0 1 .487.295c-.108.178.104.614.23.874.045.09.082.169.113.242.351-.022.703.044 1.09.234.795.39 1.89-.08 2.649-.651.53-.4.93-.469 1.333-.458-.766-1.143-.343-1.886-.322-1.921a.282.282 0 0 1 .383-.1.287.287 0 0 1 .11.385c-.014.026-.326.648.603 1.706.219.049.464.166.743.306.484.243 1.087.545 1.522.397.213-.071.385-.249.528-.542.366-.753.47-1.459.554-2.026.1-.677.186-1.26.77-1.302a.284.284 0 1 1 .041.566c-.128.01-.186.403-.248.819-.085.574-.2 1.36-.605 2.191-.21.431-.498.711-.857.833-.66.222-1.381-.138-1.96-.428-.258-.129-.537-.264-.658-.271l-.278-.022c-.513-.045-.797-.07-1.316.32-1.158.871-2.37 1.136-3.243.707-.365-.179-.678-.22-1.037-.147l-.015.005h-.003c-.354.075-.754.258-1.295.53-.083.042-.172.066-.276.093-.264.068-.64.167-1.03.665-.133.268-.189.51-.231.699-.08.352.074.606.186.791.114.188.162.277.107.439-.158.47.063.85.601 1.32a5.947 5.947 0 0 1-.025-.36c-.021-.494.1-.71.248-.922.091-.13.146-.208.112-.515-.05-.435.079-.817.37-1.107.33-.329.86-.505 1.348-.449a.284.284 0 1 1-.064.565c-.265-.03-.64.046-.881.286-.167.166-.237.382-.208.643.054.48-.063.692-.21.902-.09.129-.161.231-.146.572.026.594.057.757.384 1.1l.425.304c1.007.717 1.54.69 2.01.664.223-.013.416-.021.666.053.73.217 1.434-.055 2.054-.299.205-.08.398-.148.586-.205.244-.074.423.04.559.056 1.13.418 2.162.065 3.055-.097.66-.12 1.272-.249 1.874-.17.213.029.425.098.636.185.016-.02.03-.04.052-.056.009-.007.848-.637.748-1.33a2.955 2.955 0 0 1-.098-.413c-.036-.188-.12-.627-.219-.688-.122-.055-.49-.024-.784.001-.316.028-.667.058-.976.017-.251.582-.778.994-1.508 1.174-.007.002-.49.118-.84.079-.124-.015-.232-.049-.294-.116a.284.284 0 0 1 .329-.451c.183.027 1.376-.014 1.778-.887a.702.702 0 0 1-.23-.325c-.068-.197-.074-.474-.054-.735-.44.23-.89.322-1.38.15-.962-.341-2.162-.665-2.904-.14-.001 0-.003 0-.004.002-.002 0-.002.002-.004.003-.946.622-.636 1.527-.62 1.572a.284.284 0 0 1-.299.38.285.285 0 0 1-.234-.182c-.178-.47-.23-1.542.84-2.245.002-.002.006-.002.008-.003.95-.657 2.255-.328 3.407.08.46.161.923-.063 1.422-.437.008-.006.014-.014.023-.018.215-.163.436-.352.668-.55.213-.182.43-.364.657-.54.225-.177.386-.366.504-.566.008-.013.013-.03.022-.04.254-.456.292-.985.334-1.6.019-.272.037-.545.079-.836.168-1.189.947-1.411 1.336-1.367h.003c.155.018.27.14.253.295-.016.157-.154.251-.31.235-.025-.002-.581-.05-.716.9-.039.27-.058.542-.075.805-.043.613-.088 1.24-.393 1.81l.007.085c.055.76.209 1.474.961 1.56.2.023.42-.015.655-.055.445-.076.95-.162 1.46.14a.79.79 0 0 1 .37.51c.171.712-.478 1.762-.552 1.88a.286.286 0 0 1-.394.088.284.284 0 0 1-.088-.392c.232-.367.567-1.082.48-1.444a.223.223 0 0 0-.107-.153c-.33-.196-.674-.137-1.073-.069-.263.044-.536.091-.815.06-.998-.115-1.302-.938-1.408-1.564a2.914 2.914 0 0 1-.18.155c-.22.171-.432.353-.64.53-.221.19-.44.377-.659.545-.06.259-.11.765-.041.965.078.224.725.167 1.153.13.436-.039.812-.072 1.074.049.361.167.455.661.538 1.097.026.133.054.284.08.344.005.011.004.023.007.034.004.012.01.02.013.033.134.812-.488 1.478-.803 1.757l.04.02c.612.307 1.19.599 1.75.4 1.087-.386 1.464-.057 1.583.12.179.015.38.015.622-.032.763-.15 1.154-.817 1.705-2.008a.317.317 0 0 0-.089-.116c-.068-.051-.18-.052-.33-.003a.285.285 0 0 1-.359-.181.283.283 0 0 1 .181-.358c.424-.14.7-.027.855.092.083-.185.172-.38.267-.587.15-.328.257-.635.331-.926a.428.428 0 0 0-.144.112c-.231.243-.625.31-1.042.262l-.02-.002c-.435-.05-.793-.221-.974-.546a3.144 3.144 0 0 1-.276-.75c-.223-.862-.43-1.469-1.043-1.398a.287.287 0 0 1-.315-.253.292.292 0 0 1 .252-.322c1.15-.129 1.46 1.028 1.66 1.804.07.27.14.497.22.64.09.164.3.227.548.255l.012.002c.236.026.457.025.565-.088.26-.275.492-.29.664-.265.105-.793-.027-1.423-.154-1.893-.136.171-.324.312-.587.282a.772.772 0 0 1-.136-.03c-.608-.188-.62-.735-.63-1.217-.008-.404-.018-.861-.294-1.312-.606-.99-1.197-1.033-1.703-.994-.245.018-.383-.084-.456-.173-.217-.265-.096-.69.032-1.14.06-.212.13-.453.127-.585-.008-.602-.721-1.533-1.162-1.664-.074-.021-.084-.007-.097.012-.496.738-1.016.73-1.073.727-.005 0-.008-.003-.013-.003h-.015l-.045-.007c-1.673-.264-2.626-.22-2.828.132-.201.349-.434.492-.64.62-.262.163-.51.315-.771 1.009-.23.612-.273 1.09-.12 1.352.073.125.197.194.365.22.155.025.264.154.239.31-.024.15-.159.222-.31.205l-.012-.002c-.343-.039-.61-.196-.77-.472-.249-.425-.226-1.013.075-1.81.33-.874.703-1.106 1.004-1.293.184-.114.317-.196.446-.422.442-.765 1.971-.636 3.41-.41l.016.002c.05-.007.293-.064.57-.475.161-.242.427-.33.73-.24.709.21 1.56 1.403 1.572 2.201.003.216-.071.475-.15.748-.05.176-.128.452-.13.589.681-.046 1.471.08 2.196 1.268.356.58.368 1.143.377 1.595.012.527.046.63.23.687.072.02.135-.063.274-.345.025-.05.051-.102.08-.153-.114-.522-.377-1.643-.632-2.13-.12-.226-.322-.748-.519-1.254-.19-.488-.37-.95-.482-1.168-.01-.02-1.06-2.005-1.628-2.487-.516-.955-2.033-1.693-2.602-1.944-.29-.045-1.08-.08-1.494.296-.014.074.164.317.25.434.205.282.418.572.346.894-.04.177-.158.32-.352.427-.456.25-.971.015-1.418-.225-.393-.21-.978-.26-1.4.105a1.324 1.324 0 0 1-.479.272c-.765.234-1.019.652-.825 1.357.069.248.04.456-.082.618-.236.311-.719.315-1.23.318-.35.003-.748.006-.966.119-.622.323-1.488 1.905-1.245 2.893.313 1.271-.088 1.533-.275 1.586a.284.284 0 0 1-.22-.52c.024-.044.106-.262-.058-.93-.318-1.293.731-3.116 1.534-3.533.34-.176.79-.18 1.225-.183.233-.002.72-.006.78-.093 0 0 .013-.032-.013-.126-.275-1 .154-1.727 1.207-2.05a.762.762 0 0 0 .273-.157c.626-.543 1.477-.48 2.043-.176.338.181.678.335.874.227.057-.032.07-.053.07-.053.014-.074-.164-.318-.25-.435-.222-.304-.594-.812-.159-1.205.314-.284.737-.398 1.11-.438-.23-.179-.568-.375-1.095-.555-.776.087-1.103.547-1.28.8-.077.111-.133.192-.237.233-.385.15-.692-.02-.916-.143-.213-.119-.29-.146-.383-.102-.103.049-.14.131-.214.337-.093.261-.22.62-.694.843-.132.062-.286.197-.45.34-.427.372-1.023.891-1.984.781a3.144 3.144 0 0 1-.968-.289.283.283 0 1 1 .24-.515c1.221.568 1.789.073 2.338-.406.194-.17.377-.33.58-.425.26-.122.323-.297.402-.52.08-.225.18-.505.505-.66.372-.176.68-.006.905.119.18.1.278.146.38.126l.03-.043c.122-.177.347-.498.753-.742a8.17 8.17 0 0 0-1.7-.144h-.227c-.183-.005-.507-.102-.822-.196-.407-.122-.828-.248-1.142-.24h-.025c.104.372.276 1.326-.51 1.774-.348.198-.745.03-1.165-.148-.468-.198-.952-.404-1.383-.152-.552.322-.79.284-1.065.193-.16-.052-.324-.106-.85.088-.59.218-.862.684-1.08 1.058-.206.352-.44.752-.9.622-.382-.11-.784.166-.953.491-.078.152-.218.54.18.86.564.455 1.7.436 2.776-.48a.285.285 0 0 1 .37.432c-.852.727-1.761.97-2.498.886a1.95 1.95 0 0 1-1.006-.396c-.495-.399-.62-.997-.328-1.563.075-.144.182-.281.308-.402-.079-.113-.208-.254-.378-.283-.272-.036-.584.213-.796.44-.284.304-.774.423-1.205.528-.078.02-.195.048-.311.081-.314.494-.55.95-.696 1.233-.06.118-.104.203-.13.243-.116.182-.179.382-.265.66-.085.268-.19.603-.388 1.074-.259.614-.212 1.06-.08 1.368a.431.431 0 0 0 .135-.05c.16-.093.384-.335.532-.961.136-.577.4-.985.786-1.214a1.446 1.446 0 0 1 1.042-.156.284.284 0 1 1-.15.548c-.003 0-.307-.077-.6.096-.248.147-.424.435-.524.857-.156.662-.426 1.107-.803 1.323m8.964 6.185c-.319.296-.618.694-.624.793.096.2.041.33-.021.404-.139.163-.33.109-.47.069-.224-.064-.424-.105-.6.03a.285.285 0 0 1-.348-.45c.314-.241.653-.228.897-.179.092-.392.497-.824.778-1.084a.284.284 0 1 1 .388.417m-7.848-5.322c.074-.671.62-.817.977-.873.26-.04.483-.075.632-.246 1.06-1.222 2.44-1.206 3.448-1.194 1.048.012 1.391-.034 1.453-.62.15-1.416.326-1.56 1.48-1.913.679-.208.788-.432.8-.464a.284.284 0 0 1 .568-.023c.011.108.005.664-1.202 1.032-.96.294-.96.296-1.08 1.433-.122 1.148-1.09 1.141-2.027 1.13-.995-.011-2.124-.016-3.012 1.007-.285.329-.67.403-.977.45-.408.064-.472.134-.495.344-.017.156-.165.332-.321.314h-.001c-.156-.018-.261-.22-.243-.377"/>
            <path d="M36.724 32.66l-.006.064c-.013.162-.065 1.03.334 1.548.162.21.401.437.612.636.083.079.193.183.237.23.215.373.623.677 1.207.909.203 1.228.449 2.482.515 2.733.129.488-.802.33-1.092.323-.289-.007-.843-1.622-1.2-2.426-.356-.804-.976-1.848-1.738-2.566-.299-.283-.498-.651-.63-.995.873-.44 1.226-.574 1.76-.455"/>
            <path d="M38.477 32.825c.498-.04.965-.122 1.403-.201.624-.113 1.168-.21 1.656-.154l.039.005c.32.043.676.222 1.053.41.434.22.907.457 1.405.514.258.03.522.01.792-.085.381-.136.61-.155.747-.143-.06.523-.354 1.882-1.832 2.226-1.03.239-1.937.005-2.347.05-.348.037-.763.284-1.82.164a1.002 1.002 0 0 1-.237-.06 3.426 3.426 0 0 1-.374-.166c-.24-.127-.49-.304-.62-.544-.067-.126-.628-.584-.877-.906-.285-.37-.221-1.125-.221-1.125.433.05.843.045 1.233.015"/>
        </g>
        <g stroke="#FFF" stroke-width=".522">
            <path stroke-linecap="round" d="M28.713 17.692c-1.145-1.266-1.687.844-2.953.543 0 0-2.772 3.376-1.807 5.064 0 0 .602.603.964-.482 0 0 .482-2.05 1.566-1.809"/>
            <path stroke-linecap="round" d="M31.907 19.079s-1.326 1.326-3.013.723c0 0-1.326-.965 0-2.05 0 0 .362-.241.844 0 0 0 .24.12.602-.603s1.085-1.206 1.447-1.206c.361 0 1.084.241 1.566-.12 0 0 .482-.362.965-.12.482.24 1.464.736 1.807.24 0 0 .482-.723 0-1.809 0 0 0-.361-1.084-.12 0 0-1.688-.12-2.05.12-.36.242-2.41.724-3.133.965-.723.241-.964.603-1.446.844s-1.446.362-1.808.844c-.362.483-1.326.845-.844 1.448M26.001 24.505s0-.603.844-.603 1.085-1.206 2.17-1.326c0 0 2.651-.12 2.772-.12.12 0 .723-.242.723-.966 0 0 0-1.205.843-1.447 0 0 1.447-.12 1.447-.844"/>
            <path stroke-linecap="round" d="M34.559 17.993s1.084.844 2.772-.603c0 0 .75-.594.843-.964.12-.483.362-.724 1.085-.362 0 0 .422.464.994-.371.573-.835 1.055-.232 1.175-.473.12-.241-.964-.603-2.53-.483-1.206 0-2.773-.723-2.773-.723M24.111 23.482s-.52 2.23 1.529 3.073c2.049.844 2.17 1.206 2.53 1.086.15-.05 1.086-.845 1.568-.965s1.725-.815 2.29-.603c.964.362 2.169.603 3.495-.483 0 0 1.326-.844 2.892 0 2.41 1.568 2.652-1.929 2.772-2.894.12-.964.482-.603.482-.603M37.21 25.229s-.964-1.327-.482-2.05M31.184 24.505s-.362.362.361 1.447M28.894 24.264s0 1.206 2.17 1.809"/>
            <path stroke-linecap="round" d="M33.956 25.47s.482 0 .241-1.568c-.241-1.567 1.085-2.894 1.567-3.015.482-.12 2.29.242 1.928-.844 0 0-.482-1.206.964-1.567 0 0 .844-.965 1.808-.483.964.483 1.688.603 1.688 0 0 0-.965-.964-.362-1.447.603-.482.964 0 1.326-.24.361-.242-.964-1.327-1.688-1.086"/>
            <path stroke-linecap="round" d="M39.38 23.782s-.603.24-.724-.362c-.12-.603.12-1.93.482-2.17 0 0 .965-.604 1.085-.965.12-.362.723-.603 1.326-.483.603 0 2.29.362 2.41-.12 0 0 .362-.845 1.085-.242 0 0 .964.724.964 1.568 0 .844-.361 1.568-.12 1.688.24.12 1.446 0 1.928.965 0 0 .482.724.603 2.291 0 0 .12.483.602.241 0 0 1.085-.12.241-2.411-1.807-4.945-4.097-7.356-6.15-7.709M28.17 27.64s-.24 1.206.242 1.568c.482.362.12.724.24.965.121.241.724 1.326.965.965.241-.362.12-.965.241-1.206 0 0 .362-.241.362-1.086 0-.844.602-1.085 1.084-.964M31.666 30.896s.603-.12.964 0c.362.121.12-.964.603-1.205"/>
            <path stroke-linecap="round" d="M35.04 29.811s-.36-1.688 1.447-1.93c1.808-.24 2.53.604 3.254.363 0 0 2.17-1.086 2.772-2.171.603-1.085.482-2.533.482-2.533s-.12-1.326 1.085-1.326M40.464 28.002s-.12 1.206.362 1.327c.482.12 1.808-.241 2.049 0 .24.241.602 1.326.482 1.809-.12.482-.723 1.085-.723 1.085"/>
            <path d="M29.617 31.258s.964 1.568 2.29 1.568c0 0 1.446.362 2.17.241.723-.12 2.048-.844 2.29-.723 0 0 1.325.361 2.65.12 0 0 2.532-.723 3.496 0 .964.724 2.17.724 2.893.483.723-.242.602.361.602.361s-.482 3.015-4.46 2.533c0 0-1.084.24-2.41-.12-.602-.121-1.205-.845-1.566-1.207-.362-.362-.723-1.326-.603-1.93"/>
            <path d="M34.559 33.067s.12.965 1.205 2.05 1.928 3.738 1.928 3.738.241.724 1.205.603c.965-.12 1.085-.24 1.085-.482 0-.241-.482-3.135-.482-3.135"/>
            <path stroke-linecap="round" d="M40.826 29.45s-.362 1.085-2.17 1.205M42.513 26.193s.241 1.689.964 1.81c.723.12 2.17-.362 2.41.12.242.482 0 1.206-.481 1.93M45.888 26.193c.12 0 .602-.361 1.205.965 0 0 .12 2.17 1.567 1.688 0 0 .602-.482.964-.361.362.12.819-2.044-.133-2.47"/>
            <path stroke-linecap="round" d="M46.052 33.518s1.523.032 2.126-1.174c.602-1.206 1.58-2.992 1.573-3.787"/>
        </g>
    </g>
</svg>
