<svg xmlns="http://www.w3.org/2000/svg" width="70" height="70" viewBox="0 0 70 70">
    <g fill="none" fill-rule="evenodd">
        <circle cx="35" cy="35" r="35" fill="#27AAFF" fill-rule="nonzero"/>
        <path fill="#1284CE" d="M38.631 55.151s-.836-7.31 4.417-13.677c3.37-4.085 11.6-8.72 5.73-20.162-5.527-10.776-18.244-9.813-24.114-2.948-1.88 2.2-2.726 7.587-6.088 11.673-1.552 1.886.695 2.33 1.313 4.009.618 1.678-1.762 3.815-.835 7.782.926 3.966 11.136 5.903 8.356 15.21 0 0 5.491 1.65 11.221-1.887"/>
        <path fill="#175F8D" d="M27.589 57.17s4.775-5.542 11.221-1.887c-1.689 1.976-7.76 3.537-11.221 1.886"/>
        <path fill="#1284CE" d="M20.426 48.798c0-1.886 5.492-1.061 4.537 5.306-.955 6.367-3.82 3.537-3.224.943.597-2.594-1.313-4.362-1.313-6.249M52.469 23.183s-.382 6.006 1.789 5.113c2.17-.894-1.222-8.874-1.79-5.113M45.018 45.143c0 .586-.481 1.061-1.075 1.061a1.068 1.068 0 0 1-1.074-1.061c0-.586.48-1.061 1.074-1.061.594 0 1.075.475 1.075 1.06"/>
        <path fill="#175F8D" stroke="#FFF" stroke-width=".5" d="M34.063 38.777a1.051 1.051 0 0 0-.777.162c-.212.15-.357.394-.404.675-.047.28.102.51.164.767.02.065.003.165-.017.285l-2.341-.38-1.002 6.007 2.341.38a.99.99 0 0 0 .017-.284c-.062-.257-.21-.487-.164-.768.047-.28.191-.524.404-.674.213-.15.493-.208.777-.162.284.046.53.19.683.4.152.21.21.486.163.766-.046.28-.262.451-.404.675-.04.055-.057.155-.077.275l2.342.382.616-3.695.386-2.313-2.342-.381a.99.99 0 0 1 .078-.276c.141-.223.357-.394.404-.674a1.019 1.019 0 0 0-.164-.767c-.152-.21-.4-.353-.683-.4M34.65 29.109a1.047 1.047 0 0 0-.739.288 1.02 1.02 0 0 0-.283.732c.001.284.187.486.291.73.032.06.032.161.033.283l-2.374.013.034 6.089 2.374-.013a.988.988 0 0 0-.033-.284c-.104-.243-.29-.445-.291-.73a1.02 1.02 0 0 1 .283-.732c.184-.183.45-.286.738-.288.288-.001.556.099.742.28.186.182.29.445.291.73.002.283-.182.488-.283.732-.03.06-.03.162-.03.284l2.374-.013-.013-2.344c.123 0 .226.009.288.029.247.1.453.282.74.28.289-.002.555-.105.74-.288.183-.184.284-.448.283-.732a1.02 1.02 0 0 0-.292-.73 1.048 1.048 0 0 0-.741-.28c-.288.002-.493.186-.738.289-.062.03-.165.03-.288.032l-.013-2.345-2.373.013a.99.99 0 0 1 .029-.284c.101-.244.285-.448.283-.732a1.02 1.02 0 0 0-.291-.73 1.048 1.048 0 0 0-.742-.28M32.89 19.464c-.213.15-.359.393-.406.674-.048.28.1.51.16.767a.99.99 0 0 1-.016.286l-2.341-.389-.393 2.312c-.121-.02-.223-.037-.278-.077-.227-.14-.399-.354-.682-.401a1.05 1.05 0 0 0-.777.16c-.214.15-.36.393-.407.673-.047.28.01.557.162.768.151.21.398.354.682.4.283.048.516-.099.777-.159.064-.01.167-.003.288.017l-.392 2.312 2.34.388c.02-.12.038-.22.017-.285-.06-.257-.208-.487-.16-.768.047-.28.192-.523.405-.673a1.05 1.05 0 0 1 .778-.16c.283.048.53.191.682.402.151.21.208.487.16.767-.047.28-.263.45-.405.674a.994.994 0 0 0-.078.275l2.34.388 1.02-6.005-2.34-.388c.02-.12.037-.22.078-.275.142-.223.359-.393.406-.673.048-.28-.01-.558-.161-.768a1.043 1.043 0 0 0-.682-.401 1.051 1.051 0 0 0-.777.16"/>
    </g>
</svg>
