<svg id="Calque_1" data-name="Calque 1" xmlns="http://www.w3.org/2000/svg" viewBox="0 0 150 120"><defs><style>.cls-1{fill:#c8d0ff;}.cls-2,.cls-9{fill:#7c6ccb;}.cls-3{fill:#432cb4;}.cls-4{fill:#e9efff;}.cls-5{opacity:0.2;}.cls-6,.cls-8,.cls-9{opacity:0.3;}.cls-10,.cls-11,.cls-7,.cls-8{fill:none;}.cls-7,.cls-8{stroke:#7c6ccb;}.cls-10,.cls-7,.cls-8{stroke-miterlimit:10;stroke-width:0.31px;}.cls-10{stroke:#fff;}</style></defs><title>classes</title><path class="cls-1" d="M190.27,328.24c-9.54-20.92,35.13-21.87,49.25-26.69,25.43-8.69,42.84-32.71,61.08-17.37,21.59,18.15-5.39,37.18-6.47,47.14-1,9.39,6.52,25.86-12.5,30.46-25.18,6.1-27.34-7.48-47.66-19.92S196.48,341.86,190.27,328.24Z" transform="translate(-179.95 -252.91)"/><path class="cls-2" d="M218.61,289.17l76.63-.88a4.28,4.28,0,0,1,4.32,4.57l-3.11,47.25a4.29,4.29,0,0,1-4.28,4H220.89a4.29,4.29,0,0,1-4.28-4.08l-2.23-46.36A4.29,4.29,0,0,1,218.61,289.17Z" transform="translate(-179.95 -252.91)"/><path class="cls-3" d="M73.47,91.2h6.05a0,0,0,0,1,0,0v1.1a2,2,0,0,1-2,2H75.44a2,2,0,0,1-2-2V91.2A0,0,0,0,1,73.47,91.2Z"/><path class="cls-4" d="M256.45,288.24v53.62h-35l-1.34-1.5V290.52a31.42,31.42,0,0,1,9.13-3.61,41.65,41.65,0,0,1,7.24-1.14C240.63,285.49,252.71,286.74,256.45,288.24Z" transform="translate(-179.95 -252.91)"/><path class="cls-1" d="M256.45,339.72v2.14h-35l-1.34-1.5a28.42,28.42,0,0,1,7.14-2.41,48,48,0,0,1,10.41-1.23C245.61,336.71,252.71,338.22,256.45,339.72Z" transform="translate(-179.95 -252.91)"/><path class="cls-5" d="M256.45,288.24v51.48c-3.74-1.5-10.84-3-18.78-3A48,48,0,0,0,227.26,338l2-51a41.65,41.65,0,0,1,7.24-1.14C240.63,285.49,252.71,286.74,256.45,288.24Z" transform="translate(-179.95 -252.91)"/><g class="cls-6"><path class="cls-7" d="M222,293.83a40.32,40.32,0,0,1,14.49-3.71" transform="translate(-179.95 -252.91)"/></g><path class="cls-8" d="M222,297.75a40.21,40.21,0,0,1,14.54-3.66,78.91,78.91,0,0,1,17.38,1.85" transform="translate(-179.95 -252.91)"/><path class="cls-8" d="M222,301.68a39.36,39.36,0,0,1,14.59-3.63,74.82,74.82,0,0,1,17.33,2" transform="translate(-179.95 -252.91)"/><path class="cls-8" d="M222,305.6A39.26,39.26,0,0,1,236.64,302a70.43,70.43,0,0,1,17.28,2.07" transform="translate(-179.95 -252.91)"/><path class="cls-8" d="M222,309.53A38.89,38.89,0,0,1,236.68,306a66.48,66.48,0,0,1,17.24,2.19" transform="translate(-179.95 -252.91)"/><path class="cls-9" d="M253.92,320.41a57.15,57.15,0,0,0-17.09-2.54A38.46,38.46,0,0,0,222,321.3V337a37.87,37.87,0,0,1,15-3.27,47.2,47.2,0,0,1,16.9,3Z" transform="translate(-179.95 -252.91)"/><path class="cls-4" d="M256.45,288.24v53.62h35l1.34-1.5V290.52c-.76-.58-7.16-4.13-16.37-4.75C272.26,285.49,260.18,286.74,256.45,288.24Z" transform="translate(-179.95 -252.91)"/><path class="cls-1" d="M256.45,339.72v2.14h35l1.34-1.5c-.76-.58-8.31-3.61-17.54-3.64C267.28,336.71,260.18,338.22,256.45,339.72Z" transform="translate(-179.95 -252.91)"/><line class="cls-10" x1="76.5" y1="86.8" x2="76.5" y2="88.94"/><path class="cls-8" d="M291,306a38.47,38.47,0,0,0-14.77-3.47,60,60,0,0,0-17.15,2.42" transform="translate(-179.95 -252.91)"/><path class="cls-9" d="M259.07,316.33a60,60,0,0,1,17.15-2.42A38.28,38.28,0,0,1,291,317.38V337a37.81,37.81,0,0,0-15-3.27,47.25,47.25,0,0,0-16.91,3Z" transform="translate(-179.95 -252.91)"/><path class="cls-4" d="M256.45,288.24s-1.71-23-17.44-25.7L235.73,323s19.54,6.42,20.72,16.75Z" transform="translate(-179.95 -252.91)"/><path class="cls-9" d="M242.65,291.05c7.14,4.47,12.14,14.87,13.2,20.33v18.38c-2.73-5.34-9.21-11.9-14.9-13Z" transform="translate(-179.95 -252.91)"/><path class="cls-8" d="M243.47,282.48c6.69,3.25,12,17.14,12.38,20.54" transform="translate(-179.95 -252.91)"/><rect class="cls-11" width="150" height="120"/></svg>