<svg xmlns="http://www.w3.org/2000/svg" xmlns:xlink="http://www.w3.org/1999/xlink" width="41" height="39" viewBox="0 0 41 39">
    <defs>
        <path id="a" d="M.259.03h36.145v35.113H.26z"/>
        <path id="c" d="M0 .168h8.831v10.204H0z"/>
    </defs>
    <g fill="none" fill-rule="evenodd">
        <g transform="translate(4.27 .386)">
            <mask id="b" fill="#fff">
                <use xlink:href="#a"/>
            </mask>
            <path fill="#FFF" d="M34 6.69c-.15 1.469-1.21 1.728-1.486 1.772L14.34 10.816h-.001c-1.792.232-1.954-.724-1.965-.993V7.03c0-1.452.903-1.9 1.485-2.037l17.842-2.312h.001l.522-.067c.678-.032 1.777.133 1.777 1.546v2.53zm-3.654 23.005c-2.014 0-3.654-1.592-3.654-3.55 0-1.958 1.64-3.55 3.654-3.55 2.016 0 3.655 1.592 3.655 3.55 0 1.958-1.64 3.55-3.655 3.55zm-24.03 3.113c-2.015 0-3.653-1.592-3.653-3.55 0-1.958 1.638-3.55 3.654-3.55 2.014 0 3.654 1.592 3.654 3.55 0 1.958-1.64 3.55-3.654 3.55zM33.904.042L12.73 2.784h-.001c-2.814.365-2.758 2.981-2.758 2.981v18.811a6.124 6.124 0 0 0-3.654-1.202c-3.34 0-6.058 2.64-6.058 5.885 0 3.244 2.717 5.884 6.058 5.884 3.34 0 6.057-2.64 6.057-5.884V16.075c.164-2.065.95-2.669 1.477-2.84l18.596-2.408S34 10.726 34 12.379v9.085a6.13 6.13 0 0 0-3.655-1.203c-3.34 0-6.057 2.64-6.057 5.885 0 3.244 2.717 5.884 6.057 5.884 3.34 0 6.058-2.64 6.058-5.884V2.556c0-2.598-2.003-2.563-2.501-2.514z" mask="url(#b)"/>
        </g>
        <path fill="#FFF" d="M31.665 33.428l.001-.01c-4.095-1.256-5.003-4.69-5.182-6.55h-.001s-.03-1.22-1.228-1.31c-.943-.07-1.157.775-1.208 1.14.165 3.054 1.795 7.5 7.107 9.008.393.076 1.54.212 1.705-.773.198-1.189-1.194-1.505-1.194-1.505"/>
        <g transform="translate(0 28.598)">
            <mask id="d" fill="#fff">
                <use xlink:href="#c"/>
            </mask>
            <path fill="#FFF" d="M7.619 8.042v-.01C3.524 6.776 2.616 3.34 2.437 1.482c0 0-.03-1.22-1.228-1.31C.265.1.05.947 0 1.312c.165 3.054 1.794 7.5 7.106 9.007.393.077 1.541.212 1.706-.773.198-1.188-1.193-1.504-1.193-1.504" mask="url(#d)"/>
        </g>
    </g>
</svg>
