<svg xmlns="http://www.w3.org/2000/svg" xmlns:xlink="http://www.w3.org/1999/xlink" width="37" height="35" viewBox="0 0 37 35">
    <defs>
        <path id="a" d="M.234.026h32.703V31.54H.234z"/>
        <path id="c" d="M0 .15h7.99V9.31H0z"/>
    </defs>
    <g fill="none" fill-rule="evenodd">
        <g transform="translate(3.864 .346)">
            <mask id="b" fill="#fff">
                <use xlink:href="#a"/>
            </mask>
            <path fill="#FFF" d="M30.763 6.003c-.136 1.319-1.095 1.552-1.345 1.591L12.975 9.707h-.002c-1.62.208-1.767-.65-1.778-.892V6.31c0-1.303.818-1.704 1.344-1.828l16.143-2.075.473-.06c.613-.03 1.608.12 1.608 1.387v2.27zM27.456 26.65c-1.823 0-3.306-1.43-3.306-3.186 0-1.757 1.483-3.187 3.306-3.187 1.824 0 3.307 1.43 3.307 3.187 0 1.756-1.483 3.186-3.307 3.186zm-21.74 2.793c-1.824 0-3.307-1.429-3.307-3.186s1.483-3.186 3.306-3.186 3.306 1.43 3.306 3.186c0 1.757-1.483 3.186-3.306 3.186zM30.673.037L11.518 2.5h-.001C8.97 2.826 9.02 5.174 9.02 5.174v16.882a5.57 5.57 0 0 0-3.306-1.08c-3.022 0-5.48 2.37-5.48 5.282 0 2.911 2.457 5.28 5.48 5.28 3.022 0 5.48-2.369 5.48-5.28V14.427c.149-1.854.86-2.396 1.337-2.55l16.824-2.16s1.407-.091 1.407 1.393v8.152a5.576 5.576 0 0 0-3.307-1.079c-3.022 0-5.48 2.369-5.48 5.281 0 2.912 2.458 5.281 5.48 5.281 3.023 0 5.481-2.369 5.481-5.28V2.292c0-2.33-1.812-2.3-2.263-2.256z" mask="url(#b)"/>
        </g>
        <path fill="#FFF" d="M28.65 30v-.01c-3.705-1.126-4.527-4.21-4.689-5.877 0 0-.027-1.095-1.11-1.176-.854-.064-1.048.695-1.094 1.023.15 2.74 1.624 6.73 6.43 8.084.356.068 1.394.19 1.542-.694.18-1.067-1.08-1.35-1.08-1.35"/>
        <g transform="translate(0 25.665)">
            <mask id="d" fill="#fff">
                <use xlink:href="#c"/>
            </mask>
            <path fill="#FFF" d="M6.893 7.217v-.01C3.19 6.082 2.368 2.999 2.206 1.33c0 0-.028-1.095-1.111-1.176C.24.091.045.85 0 1.178c.15 2.74 1.623 6.73 6.43 8.083.355.069 1.394.19 1.542-.694.18-1.066-1.079-1.35-1.079-1.35" mask="url(#d)"/>
        </g>
    </g>
</svg>
