<svg xmlns="http://www.w3.org/2000/svg" xmlns:xlink="http://www.w3.org/1999/xlink" width="45" height="45" viewBox="0 0 45 45">
    <defs>
        <path id="a" d="M0 0h45v44.855H0z"/>
    </defs>
    <g fill="none" fill-rule="evenodd">
        <mask id="b" fill="#fff">
            <use xlink:href="#a"/>
        </mask>
        <path fill="#FFF" d="M44.864 8.274c-.22 2.067-1.403 11.126-5.534 14.836a8.341 8.341 0 0 1-5.59 2.14 8.361 8.361 0 0 1-5.426-2 18.766 18.766 0 0 0-4.782 12.502v9.103h-2.064V29.018a18.77 18.77 0 0 0-4.782-12.501 8.364 8.364 0 0 1-11.017-.14C1.093 12.264.135 1.58.096 1.127L0 0 1.132.01c.469.003 11.513.126 15.727 3.91 3.193 2.868 3.659 7.652 1.23 11.07a20.838 20.838 0 0 1 5.337 11.967 20.825 20.825 0 0 1 3.485-5.233c-2.429-3.418-1.928-8.164 1.23-11.07C32.59 6.564 45 6.734 45 6.734l-.136 1.541zm-33.262 8.171a6.253 6.253 0 0 0 3.62-1.394L2.526 3.68c.556 3.312 1.842 8.75 4.524 11.159a6.252 6.252 0 0 0 4.552 1.605zm4.993-2.939c1.607-2.55 1.2-5.968-1.116-8.05C13.033 3.26 7.429 2.49 3.989 2.22l12.606 11.286zm11.809 6.735L41.01 8.954c-3.44.27-9.043 1.04-11.489 3.237a6.264 6.264 0 0 0-2.083 4.354 6.257 6.257 0 0 0 .966 3.696zm9.546 1.333c2.681-2.41 3.967-7.847 4.524-11.158l-9.135 8.18-3.561 3.189a6.253 6.253 0 0 0 3.62 1.395 6.29 6.29 0 0 0 4.552-1.606z" mask="url(#b)"/>
    </g>
</svg>
