<svg xmlns="http://www.w3.org/2000/svg" xmlns:xlink="http://www.w3.org/1999/xlink" width="43" height="43" viewBox="0 0 43 43">
    <defs>
        <path id="a" d="M0 0h43v42.861H0z"/>
    </defs>
    <g fill="none" fill-rule="evenodd">
        <mask id="b" fill="#fff">
            <use xlink:href="#a"/>
        </mask>
        <path fill="#FFF" d="M42.87 7.906c-.21 1.976-1.34 10.632-5.288 14.177a7.97 7.97 0 0 1-5.341 2.045 7.99 7.99 0 0 1-5.186-1.91 17.932 17.932 0 0 0-4.569 11.945v8.699h-1.972V27.728c0-4.425-1.647-8.68-4.57-11.945a7.992 7.992 0 0 1-10.527-.135C1.044 11.72.13 1.511.091 1.078L0 0l1.082.008c.448.004 11 .121 15.027 3.737 3.052 2.74 3.497 7.312 1.176 10.578a19.912 19.912 0 0 1 5.1 11.435 19.9 19.9 0 0 1 3.33-5c-2.32-3.267-1.843-7.801 1.176-10.578C31.14 6.27 43 6.434 43 6.434l-.13 1.472zm-31.784 7.808a5.975 5.975 0 0 0 3.46-1.332L2.413 3.518c.532 3.164 1.761 8.36 4.323 10.662a5.975 5.975 0 0 0 4.35 1.534zm4.772-2.808c1.535-2.437 1.146-5.703-1.067-7.692C12.454 3.114 7.1 2.379 3.812 2.12l12.046 10.785zm11.283 6.436L39.188 8.556c-3.288.258-8.642.993-10.979 3.093a5.985 5.985 0 0 0-1.99 4.16 5.98 5.98 0 0 0 .922 3.533zm9.122 1.273c2.562-2.302 3.79-7.498 4.323-10.662l-8.729 7.816-3.403 3.047a6.011 6.011 0 0 0 7.809-.201z" mask="url(#b)"/>
    </g>
</svg>
