<svg xmlns="http://www.w3.org/2000/svg" width="44" height="33" viewBox="0 0 44 33">
    <g fill="none" fill-rule="evenodd">
        <path fill="#FFF" d="M3.256 11.755a.764.764 0 0 0 .263-.63 7.737 7.737 0 0 1 1.056-3.922l2.755-4.65c.26-.436.571-.811.982-1.145a2.893 2.893 0 0 1 2.924-.406l.032.014c.99.417 1.645 1.356 1.734 2.446.144 1.698 1.55 3.07 3.536 3.05.08-.005.207-.03.286-.035l4.347-1.678c.127-.025.234-.096.36-.121.474-.112.696-.643.504-1.114l-.167-.343c-.186-.39-.615-.571-1.003-.384l-.89.366c-.796.328-1.722-.335-1.41-1.452.049-.213.245-.403.432-.48l2.95-1.214c.375-.154.85.008 1.004.384l2.579 5.532.153.376c.076.188.106.396.023.595-.424 1.108-1.745 1.02-2.095.092-.139-.41-.615-.57-1.022-.43l-2.642 1.03a.818.818 0 0 0-.423 1.109c.057.141.128.249.115.282.282.626-.023 1.356-.618 1.573a7.54 7.54 0 0 1-3.237.507c-.226-.017-.493.065-.642.237-1.048 1.118-.658 2.413.224 2.902 1.948 1.093 3.564 2.242 5.113 3.362a.782.782 0 0 1 .314.64c0 1.209-1.124 1.671-1.865 1.125-1.55-1.121-3.146-2.222-5.075-3.27l-.948-.516c-.033-.014-.098-.042-.132-.055a9.694 9.694 0 0 0-.943-.437l-.065-.028-.033-.013-.033-.014-.33-.14c-.033-.013-.1-.04-.132-.055l-5.113-2.154c-.297-.126-.597-.057-.84.153L3.343 14.52a.776.776 0 0 0-.052 1.148c2.503 2.458 8.309 4.905 23.516 11.313 9.17 3.864 11.727 3.498 13.105 2.52.276-.196.546-.472.784-.762a.8.8 0 0 0-.305-1.22l-4.717-1.988a3.381 3.381 0 0 1-1.8-4.424l.055-.132c.172-.318.164-.672-.077-.93a5.736 5.736 0 0 1-.75-.9c-.123-.17-.218-.405-.122-.637.342-1.376 2.053-1.201 2.204.11.016.24.192.471.409.601l5.567 3.204c2.151 1.257 3.05 3.937 2.095 6.225a6.126 6.126 0 0 1-2.057 2.603c-2.19 1.533-5.515 1.692-15.115-2.353C6.687 20.726 2.4 18.92.303 15.112c-.18-.31-.08-.736.176-.979l2.777-2.378z"/>
        <path fill="#FFF" d="M30.974 14.116a1.061 1.061 0 0 1-.574-1.412 1.053 1.053 0 0 1 1.405-.578 2.7 2.7 0 0 1 1.639 2.485 2.65 2.65 0 0 1-1.649 2.463 1.085 1.085 0 0 1-.817.007 1.094 1.094 0 0 1-.568-.59c-.23-.565.033-1.195.581-1.393.281-.116.312-.376.32-.49a.51.51 0 0 0-.337-.492M27.408 9.65a1.061 1.061 0 0 1-.574-1.412 1.052 1.052 0 0 1 1.404-.578 2.7 2.7 0 0 1 1.64 2.485 2.65 2.65 0 0 1-1.65 2.463c-.28.116-.585.104-.817.007a1.093 1.093 0 0 1-.567-.59c-.23-.566.033-1.195.58-1.393.282-.116.313-.376.321-.49-.038-.093-.04-.367-.337-.492M37.268 31.134l-22.154-.267"/>
        <path stroke="#FFF" stroke-linecap="round" stroke-width="1.78" d="M37.268 31.134l-22.154-.267"/>
        <g>
            <path fill="#FFF" d="M9.88 31.05l-5.22-.183"/>
            <path stroke="#FFF" stroke-linecap="round" stroke-width="1.78" d="M9.88 31.05l-5.22-.183"/>
        </g>
    </g>
</svg>
