<svg xmlns="http://www.w3.org/2000/svg" width="50" height="38" viewBox="0 0 50 38">
    <g fill="none" fill-rule="evenodd">
        <path fill="#FFF" d="M4.241 14.076a.864.864 0 0 0 .293-.709 8.777 8.777 0 0 1 1.177-4.413l3.07-5.23c.29-.492.637-.914 1.094-1.29a3.196 3.196 0 0 1 3.256-.458l.037.016c1.102.469 1.831 1.524 1.93 2.75.159 1.911 1.724 3.455 3.937 3.43.088-.006.23-.033.318-.04l4.841-1.889c.142-.028.261-.108.402-.136.528-.126.774-.723.561-1.253l-.186-.386c-.207-.439-.684-.642-1.117-.431l-.99.412c-.887.368-1.918-.377-1.571-1.634.055-.239.274-.453.482-.54L25.061.909c.417-.173.947.008 1.117.431l2.87 6.222.17.424c.085.211.119.445.026.669-.473 1.246-1.943 1.147-2.333.104-.154-.46-.684-.642-1.138-.484L22.83 9.436a.924.924 0 0 0-.473 1.247c.064.159.144.28.128.318.314.704-.025 1.524-.688 1.769a8.322 8.322 0 0 1-3.605.572c-.252-.019-.55.074-.715.267-1.168 1.258-.734 2.714.248 3.264 2.17 1.23 3.968 2.52 5.693 3.781a.882.882 0 0 1 .35.72c-.001 1.36-1.253 1.88-2.079 1.265-1.724-1.26-3.502-2.498-5.65-3.675l-1.055-.581-.147-.062a10.736 10.736 0 0 0-1.05-.49l-.073-.032-.037-.015-.037-.016a116.08 116.08 0 0 0-.366-.156l-.147-.063-5.694-2.422c-.33-.14-.664-.063-.935.173l-2.163 1.888a.878.878 0 0 0-.058 1.29c2.787 2.766 9.251 5.516 26.184 12.718 10.21 4.344 13.059 3.932 14.594 2.83.307-.22.608-.53.873-.857.363-.46.175-1.154-.34-1.373l-5.252-2.234c-1.91-.813-2.805-3.036-2.003-4.976l.062-.149c.191-.358.183-.756-.086-1.046a6.431 6.431 0 0 1-.834-1.012c-.137-.19-.243-.455-.135-.716.38-1.55 2.286-1.353 2.454.122.018.271.213.53.454.676l6.2 3.602c2.394 1.414 3.394 4.428 2.33 7.002a6.888 6.888 0 0 1-2.291 2.93c-2.441 1.726-6.144 1.906-16.832-2.64C8.059 24.166 3.284 22.135.95 17.853c-.2-.35-.09-.828.197-1.101l3.093-2.677z"/>
        <path fill="#FFF" d="M35.108 16.72a1.197 1.197 0 0 1-.64-1.587c.263-.634.941-.916 1.566-.65 1.102.468 1.816 1.561 1.824 2.794a2.985 2.985 0 0 1-1.837 2.771c-.313.13-.653.118-.91.008a1.224 1.224 0 0 1-.633-.664c-.255-.635.038-1.344.649-1.566.313-.13.347-.423.356-.55a.573.573 0 0 0-.375-.555M31.138 11.698a1.197 1.197 0 0 1-.639-1.588c.263-.634.94-.916 1.565-.65 1.102.468 1.816 1.561 1.825 2.794a2.984 2.984 0 0 1-1.838 2.772c-.312.13-.653.117-.91.008a1.222 1.222 0 0 1-.632-.664c-.256-.636.037-1.345.648-1.567.313-.13.347-.423.357-.55-.043-.106-.045-.414-.376-.555M42.111 35.863l-24.672-.29"/>
        <path stroke="#FFF" stroke-linecap="round" stroke-width="2" d="M42.111 35.863l-24.672-.29"/>
        <g>
            <path fill="#FFF" d="M11.611 35.729l-5.812-.203"/>
            <path stroke="#FFF" stroke-linecap="round" stroke-width="2" d="M11.611 35.729l-5.812-.203"/>
        </g>
    </g>
</svg>
