<svg xmlns="http://www.w3.org/2000/svg" width="19" height="19" viewBox="0 0 19 19">
    <g fill="none" fill-rule="evenodd">
        <path d="M0 0h19v19H0z"/>
        <path fill="#FFF" d="M1.629 10.314h3.333a4.622 4.622 0 0 0 4.538 3.8 4.622 4.622 0 0 0 4.538-3.8h3.333v6.243c0 .465-.349.814-.814.814H2.443a.795.795 0 0 1-.814-.814v-6.243zm7.871-3.8A2.974 2.974 0 0 1 12.486 9.5 2.974 2.974 0 0 1 9.5 12.486 2.974 2.974 0 0 1 6.514 9.5 2.973 2.973 0 0 1 9.5 6.514zm5.429-3.257a1.086 1.086 0 1 0 0 2.172 1.086 1.086 0 0 0 0-2.172zM2.443 1.63h14.114c.465 0 .814.349.814.814v6.243h-3.333c-.389-2.152-2.278-3.8-4.538-3.8-2.26 0-4.15 1.648-4.538 3.8H1.629V2.443c0-.465.349-.814.814-.814zm0-1.629A2.456 2.456 0 0 0 0 2.443v14.114A2.456 2.456 0 0 0 2.443 19h14.114A2.456 2.456 0 0 0 19 16.557V2.443A2.456 2.456 0 0 0 16.557 0H2.443z"/>
    </g>
</svg>
