<svg xmlns="http://www.w3.org/2000/svg" width="23" height="18" viewBox="0 0 23 18">
    <path fill="#FFF" fill-rule="evenodd" d="M15.367.006V.002h1.078l.394.076c.263.05.501.114.716.194.214.08.421.173.622.28.2.106.382.214.545.325.162.109.307.225.435.347.128.124.326.156.595.096.27-.06.56-.143.871-.25.311-.106.619-.226.923-.359.304-.133.49-.218.556-.254.065-.037.1-.057.103-.06l.005-.005.02-.01.021-.01.02-.01.022-.01.004-.006.006-.004.006-.004.004-.006.021-.006.02-.004-.003.03-.007.03-.01.03-.01.03-.01.02-.011.02-.01.03a.673.673 0 0 0-.021.08 3.293 3.293 0 0 1-.197.399c-.125.232-.28.469-.467.708-.186.24-.354.421-.502.543a4.71 4.71 0 0 0-.296.26.883.883 0 0 1-.176.14l-.104.066-.02.01-.021.01-.005.006-.006.004-.006.004-.004.006-.02.01-.022.01-.004.006-.006.004-.006.004-.004.006-.004.006-.007.004-.006.004-.004.006h.104l.58-.12c.387-.08.757-.177 1.11-.29l.56-.18.062-.02.03-.01.021-.01.021-.01.02-.01.022-.01.041-.005.042-.004v.04l-.01.004-.011.006-.004.006-.007.004-.006.004-.004.006-.004.005-.006.004-.007.004-.004.006-.004.006-.006.004-.01.02-.01.02-.007.004c-.003.004-.09.118-.263.34-.173.223-.266.337-.28.34-.014.003-.033.023-.058.06-.024.036-.17.185-.44.444-.27.26-.533.49-.792.693-.26.204-.391.454-.394.751-.004.296-.02.63-.048 1.002-.027.373-.08.776-.155 1.208-.076.433-.194.922-.353 1.468a13.014 13.014 0 0 1-.58 1.597c-.228.52-.467.985-.716 1.398-.248.413-.477.762-.684 1.048-.207.286-.418.556-.632.809-.215.253-.485.538-.813.854-.33.316-.509.489-.54.52-.031.029-.166.138-.406.327-.237.19-.493.38-.767.571a8.919 8.919 0 0 1-.75.473c-.229.127-.504.271-.826.433-.32.164-.667.316-1.04.456-.374.14-.768.27-1.182.39-.415.119-.816.212-1.203.279-.387.066-.826.123-1.317.17l-.736.07v.01H6.575v-.01l-.176-.01a9.84 9.84 0 0 1-.29-.02 35.818 35.818 0 0 1-.86-.11 12.856 12.856 0 0 1-1.172-.2 15.993 15.993 0 0 1-1.265-.38 12.577 12.577 0 0 1-1.437-.565 58.393 58.393 0 0 1-.747-.359c-.099-.05-.211-.11-.335-.184l-.187-.11-.004-.006-.006-.004-.007-.004-.004-.006-.02-.01-.021-.01L.04 16l-.007-.004-.006-.004-.004-.006-.004-.006-.006-.004h-.01v-.04l.02.004.02.006.094.01c.062.006.232.016.508.03a9.713 9.713 0 0 0 1.835-.09 11.11 11.11 0 0 0 1.15-.24 8.728 8.728 0 0 0 1.22-.403c.37-.157.632-.274.788-.352a7.73 7.73 0 0 0 .71-.423l.476-.31.004-.005.007-.004.006-.004.004-.006.004-.006.006-.004.006-.004.005-.006.02-.006.021-.004.004-.02.006-.02.007-.004.004-.006-.166-.01-.321-.02a3.224 3.224 0 0 1-.488-.09 4.799 4.799 0 0 1-.715-.24 5.59 5.59 0 0 1-.747-.379 3.671 3.671 0 0 1-.524-.365 8.928 8.928 0 0 1-.415-.408 4.063 4.063 0 0 1-.44-.545 4.841 4.841 0 0 1-.356-.645l-.172-.363-.01-.03-.01-.03-.007-.02-.004-.02.03.004.032.006.228.03c.152.02.39.027.715.02.325-.007.55-.02.674-.04.125-.02.2-.033.228-.04l.042-.01.052-.01.051-.01.005-.006.006-.004.006-.004.004-.006-.041-.01-.042-.01-.041-.01-.042-.01-.041-.01a3.925 3.925 0 0 1-.145-.04 8.13 8.13 0 0 1-.56-.22 4.339 4.339 0 0 1-.726-.369 4.985 4.985 0 0 1-.514-.393 5.74 5.74 0 0 1-.533-.555 3.977 3.977 0 0 1-.518-.789 4.688 4.688 0 0 1-.342-.858 4.48 4.48 0 0 1-.15-.829l-.037-.42.02.005.021.006.021.01.02.01.022.01.02.01.322.14c.214.093.48.172.798.239.318.067.508.103.57.11l.094.01h.186l-.004-.006-.006-.004-.006-.004-.005-.006-.004-.006-.006-.004-.006-.004-.004-.006-.021-.01-.02-.01-.005-.006-.006-.004-.006-.004-.005-.006-.02-.01-.021-.01-.004-.006a25.064 25.064 0 0 1-.178-.128 2.679 2.679 0 0 1-.357-.325 11.875 11.875 0 0 1-.373-.42 3.235 3.235 0 0 1-.332-.469 5.593 5.593 0 0 1-.307-.635 4.383 4.383 0 0 1-.336-1.541c-.007-.253 0-.47.02-.65.022-.179.063-.382.125-.608.062-.226.152-.466.27-.719l.176-.38.01-.03.01-.03.007-.003.004-.006.004-.006L1.59.8l.006.004.004.006.004.006.006.004.007.004.004.006.004.006.006.004.01.02.01.02.007.004.004.006.28.3c.187.199.408.422.664.668.255.246.397.374.425.383a.3.3 0 0 1 .103.092c.042.05.18.167.415.354.235.186.543.402.923.649.38.246.801.489 1.265.728.463.24.96.456 1.492.65.533.192.906.319 1.12.379.214.06.58.136 1.1.23.518.093.908.152 1.17.179.263.027.443.042.54.046l.145.004-.004-.03-.006-.03-.042-.25a4.52 4.52 0 0 1-.041-.698c0-.3.024-.576.072-.829.049-.253.121-.51.218-.769.097-.26.191-.468.284-.625.094-.155.217-.333.37-.533.151-.2.348-.406.59-.619.242-.213.518-.402.83-.569.31-.166.597-.293.86-.38.263-.086.484-.142.663-.169.18-.027.27-.042.27-.046"/>
</svg>
