<svg xmlns="http://www.w3.org/2000/svg" width="73" height="18" viewBox="0 0 73 18">
    <g fill="none" fill-rule="evenodd">
        <path d="M0 .042h23.27v17.95H0z"/>
        <path fill="#FFF" d="M9.344 12.802c1.998-1.279 3.958-2.537 5.944-3.807-2.001-1.28-3.957-2.537-5.944-3.808v7.615zm2.807 5.167l-4.774-.097c-1.546-.034-3.096.034-4.611-.318-2.306-.525-2.469-3.1-2.64-5.26a41.1 41.1 0 0 1 .3-9.14C.676 1.464 1.664.457 3.191.346 8.345-.052 13.533-.005 18.676.181c.543.017 1.09.11 1.626.216 2.643.517 2.708 3.435 2.879 5.892.17 2.481.098 4.976-.228 7.44-.262 2.042-.764 3.753-2.88 3.919-2.65.216-5.24.39-7.9.334 0-.013-.014-.013-.022-.013zM70.779 10.41c0-.852.007-1.652-.008-2.457 0-.19-.064-.39-.129-.572-.129-.356-.399-.453-.722-.453-.322 0-.527.182-.607.508-.243.979-.164 1.978-.156 2.982.581-.009 1.11-.009 1.622-.009zm2.184 1.486h-3.844c.042.86.057 1.677.137 2.486.057.563.334.805.77.81.457.008.722-.247.829-.806.034-.182.057-.364.072-.55.015-.165.023-.343.034-.58.65.038 1.284.08 1.91.11.365 1.207-.292 2.757-1.397 3.235-.87.382-1.762.382-2.651.09a2.05 2.05 0 0 1-1.367-1.398c-.206-.67-.4-1.368-.441-2.067-.114-1.724-.156-3.465.08-5.193.041-.288.114-.563.193-.842.32-1.152 1.014-1.86 2.09-1.978a6.026 6.026 0 0 1 1.765.072c.935.182 1.432.931 1.649 1.914.099.462.17.936.186 1.406.004 1.08-.015 2.152-.015 3.291zM29.34 8.944c.202-1.097.392-2.168.6-3.244.262-1.368.555-2.736.813-4.108.065-.335.186-.416.471-.407.612.025 1.235.008 1.888.008-.213.873-.422 1.703-.627 2.52-.65 2.567-1.299 5.142-1.94 7.717-.05.2-.073.415-.073.627-.007 1.406 0 2.808 0 4.214v.457h-2.23c-.007-.127-.022-.254-.022-.38 0-.797-.057-1.597.007-2.385.164-1.893-.376-3.634-.812-5.396-.578-2.33-1.163-4.667-1.74-6.997-.03-.11-.042-.228-.072-.364h2.275c.479 2.571.96 5.142 1.462 7.738zm7.22 2.13c0-.724.016-1.452-.007-2.177a8.279 8.279 0 0 0-.144-1.257c-.092-.479-.365-.708-.707-.7-.334.01-.57.238-.691.683-.042.165-.087.334-.087.5 0 1.134-.008 2.274-.016 3.409-.007 1.059-.129 2.168.171 3.18.091.31.327.48.635.48.3 0 .497-.166.607-.463.088-.228.164-.478.164-.724.026-.974.076-1.952.076-2.93zm2.325.39c-.008.381-.03.762-.05 1.144-.087 1.143-.129 2.765-.957 3.6-.527.525-1.196.715-1.887.74a5.22 5.22 0 0 1-.927-.037c-1.455-.246-2.13-.962-2.374-2.745-.277-2.058-.3-4.15.03-6.209.342-2.13 1.52-2.884 3.35-2.744 1.71.135 2.473 1.385 2.674 3.164.11 1.02.164 2.054.141 3.087zm1.177-6.04h2.294v.48c0 2.545-.007 5.086.008 7.623 0 .364.03.74.099 1.097.087.419.307.554.683.5.52-.081.836-.484.84-1.072V5.44h2.283v11.304h-1.774c-.065-.419-.13-.85-.213-1.397-.114.19-.178.3-.243.415-.592.97-1.424 1.325-2.438 1.152-.813-.136-1.31-.805-1.463-1.902a8.45 8.45 0 0 1-.072-1.025c-.007-2.748-.007-5.51-.007-8.259l.003-.304zm15.717.009h2.283v11.312H56.28l-.205-1.385c-.121.2-.193.327-.27.454-.592.953-1.431 1.279-2.423 1.105-.847-.152-1.355-.88-1.47-2.075-.034-.356-.049-.716-.049-1.072-.007-2.647 0-5.302 0-7.95v-.397h2.31v.461c0 2.558-.008 5.112.007 7.67 0 .364.034.741.091 1.106.065.372.308.508.634.483.528-.047.893-.483.893-1.068V5.933c-.019-.165-.019-.318-.019-.5zm5.925 5.794v2.94c0 .478.228.77.657.88.422.11.764-.072.935-.508.072-.182.144-.373.148-.563.041-1.796.08-3.592.09-5.392 0-.335-.071-.682-.162-1.008-.171-.589-.642-.762-1.106-.42-.35.263-.562.636-.562 1.132v2.939zm-.106 4.421c-.091.416-.171.742-.25 1.089h-1.87V.664h2.18v5.93c.115-.161.171-.23.22-.301.373-.572.855-.945 1.478-1.089.992-.216 1.839.271 2.139 1.334.193.661.319 1.368.334 2.059.03 1.774.008 3.545-.05 5.32-.022.541-.17 1.096-.356 1.604-.612 1.678-2.61 1.932-3.601.48-.06-.09-.118-.187-.224-.353z"/>
        <path fill="#FFF" d="M48.032 3.269h-2.26V1.227h6.745v2.029h-2.244v13.473h-2.237z"/>
    </g>
</svg>
