<svg xmlns="http://www.w3.org/2000/svg" width="282" height="198" viewBox="0 0 282 198">
    <g fill="none" fill-rule="nonzero" stroke="#A2ACE3" stroke-linecap="round" stroke-width="2">
        <path d="M14.197 45.284L1.32 37v139.384c18.647 3.132 40.225 3.685 64.732 1.66 15.284-1.263 41.836.286 55.096 5.49 8.84 3.468 15.369 7.957 19.586 13.466M267.857 45.284L280.734 37v139.384c-18.647 3.132-40.224 3.685-64.731 1.66-15.284-1.263-41.836.286-55.096 5.49-8.84 3.468-15.369 7.957-19.587 13.466"/>
        <path d="M28.92 30.121L15.67 21v138.421c9.131 4.517 28.309 5.869 57.533 4.054 29.225-1.814 51.93 3.633 68.117 16.342M253.491 31.121L266.741 22v137.421c-9.13 4.517-28.307 5.869-57.532 4.054-29.225-1.814-51.854 3.605-67.889 16.258"/>
        <g>
            <path d="M141.504 43l.03 122.28M141.696 165.429c-9.77-5.732-17.57-9.542-23.4-11.429-14.814-4.795-27.703-4.795-47.038-4-23.771.978-37.662-.689-41.671-5M29.876 145V2c16.567 11.187 36.61 18.004 60.128 20.451 23.518 2.448 40.604 9.227 51.258 20.34M141.62 165.38c7.253-5.587 15.418-9.38 24.494-11.38 19.312-4.255 26.954-2.695 46.29-1.899 23.77.978 37.48-1.39 41.13-7.101M253.504 145V2c-16.567 11.187-36.61 18.004-60.128 20.451-23.518 2.448-40.55 9.227-51.096 20.34"/>
        </g>
    </g>
</svg>
