<svg xmlns="http://www.w3.org/2000/svg" xmlns:xlink="http://www.w3.org/1999/xlink" width="443" height="449" viewBox="0 0 443 449">
    <defs>
        <path id="a" d="M0 .982h230.893V127.58H0z"/>
        <path id="c" d="M0 .982h230.893V127.58H0z"/>
        <path id="e" d="M0 0h271.275v179.314H0z"/>
    </defs>
    <g fill="none" fill-rule="evenodd">
        <path fill="#281586" d="M19.734 260.091c3.92 10.35 10.427 19.036 19.887 26.556 9.219 7.326 19.727 15.138 34.202 23.097-17.816-14.662-35.134-31.734-39.087-42.545-.106-.015-.21-.024-.319-.04-.296-.599-.609-1.18-.874-1.81-1.696-4.035-3.481-8.948-6.442-12.495-4.319-6.405-12.733-12.171-18.274-3.698-.576.88-.455 1.697.006 2.307 1.525.105 3.068.514 4.517 1.252 2.909 1.482 5.117 4.034 6.384 7.376"/>
        <path fill="#281586" d="M91.91 318.737c-3.515-4.543-7.218-9.752-9.419-11.738.142-.193-13.994-17.387-23.401-19.176-.39-.074-.773-.024-1.139.083-10.08-17.415-11.885-19.176-17.947-21.127-.242-.105-.71-.11-1.264-.062 4.888 11.788 29.21 34.534 52.937 51.919.075.03.156.066.234.1"/>
        <g transform="rotate(27 -501.695 143.484)">
            <mask id="b" fill="#fff">
                <use xlink:href="#a"/>
            </mask>
            <path fill="#281586" d="M230.326 90.652c-23.606-53.118-14.742-60.585-61.375-72.299-6.188-1.554-47.765-15.335-54.82-16.794a27.305 27.305 0 0 0-5.519-.577c-12.41 0-19.478 9.074-8.005 13.502 12.023 4.642 13.066 6.864 21.08 8.933 3.522.91 17.71 3.197 24.177 6.708-20.762 3.08-37.497 4.308-51.83 4.308-19.51 0-34.56-2.276-49.203-5.247-11.676-2.37-22.258-7.054-31.644-15.579-2.062-1.872-4.324-2.649-6.389-2.649-5.626 0-9.746 5.786-4.105 10.91 1.37 1.243 4.902 4.706 5.445 5.288C37.3 58.427 75.507 62.62 128.182 69.966c1.312.182 11.132.89 14.632.89.552 0 .947-.019 1.127-.058 23.788 7.37 36.074 25.411 51.417 56.237.187.371.582.545 1.152.545 6.869 0 39.025-25.205 33.816-36.928" mask="url(#b)"/>
        </g>
        <path fill="#106" fill-rule="nonzero" d="M126.876 446.392c15.763-16.432 31.678-22.234 47.745-17.406-7.494 14.998-23.409 20.8-47.745 17.406z"/>
        <path fill="#281586" d="M425.266 260.091c-3.92 10.35-10.427 19.036-19.887 26.556-9.219 7.326-19.727 15.138-34.202 23.097 17.816-14.662 35.134-31.734 39.087-42.545.106-.015.21-.024.319-.04.296-.599.609-1.18.874-1.81 1.696-4.035 3.481-8.948 6.442-12.495 4.319-6.405 12.733-12.171 18.274-3.698.576.88.455 1.697-.006 2.307a11.733 11.733 0 0 0-4.517 1.252c-2.909 1.482-5.117 4.034-6.384 7.376"/>
        <path fill="#281586" d="M353.09 318.737c3.515-4.543 7.218-9.752 9.419-11.738-.142-.193 13.994-17.387 23.401-19.176.39-.074.773-.024 1.139.083 10.08-17.415 11.885-19.176 17.947-21.127.242-.105.71-.11 1.264-.062-4.888 11.788-29.21 34.534-52.937 51.919-.075.03-.156.066-.234.1"/>
        <g transform="scale(-1 1) rotate(27 -724.195 -783.296)">
            <mask id="d" fill="#fff">
                <use xlink:href="#c"/>
            </mask>
            <path fill="#281586" d="M230.326 90.652c-23.606-53.118-14.742-60.585-61.375-72.299-6.188-1.554-47.765-15.335-54.82-16.794a27.305 27.305 0 0 0-5.519-.577c-12.41 0-19.478 9.074-8.005 13.502 12.023 4.642 13.066 6.864 21.08 8.933 3.522.91 17.71 3.197 24.177 6.708-20.762 3.08-37.497 4.308-51.83 4.308-19.51 0-34.56-2.276-49.203-5.247-11.676-2.37-22.258-7.054-31.644-15.579-2.062-1.872-4.324-2.649-6.389-2.649-5.626 0-9.746 5.786-4.105 10.91 1.37 1.243 4.902 4.706 5.445 5.288C37.3 58.427 75.507 62.62 128.182 69.966c1.312.182 11.132.89 14.632.89.552 0 .947-.019 1.127-.058 23.788 7.37 36.074 25.411 51.417 56.237.187.371.582.545 1.152.545 6.869 0 39.025-25.205 33.816-36.928" mask="url(#d)"/>
        </g>
        <path fill="#106" fill-rule="nonzero" d="M270.409 428.987c15.762 16.432 31.677 22.233 47.744 17.405-7.494-14.997-23.408-20.8-47.744-17.405z"/>
        <g stroke-width="2">
            <path stroke="#A2ACE3" stroke-linecap="round" d="M186 9a8 8 0 1 1-16 0 8 8 0 0 1 16 0z"/>
            <path stroke="#FFC600" stroke-linecap="round" d="M185 318.5a5.5 5.5 0 1 1-11 0 5.5 5.5 0 1 1 11 0z"/>
            <g stroke="#A2ACE3" stroke-linecap="round">
                <path d="M278.995 292.195h13M284.407 285.195l2.136 14"/>
            </g>
            <g stroke="#1DD4B6" stroke-linecap="round">
                <path d="M69.851 79.172l9.994.354M63.073 60.776l18.544 8.951M81.55 53.97l6.285 9.028"/>
            </g>
            <path stroke="#FF9C9C" d="M14.963 198.176L2 192.889 7.664 179l12.964 5.287z"/>
            <g stroke="#A2ACE3" stroke-linecap="round">
                <path d="M316.47 57.602l.792 9.969M333.972 48.766l-6.773 19.445M342.845 66.344l-8.25 7.275"/>
            </g>
            <g stroke-linecap="round">
                <path stroke="#1DD4B6" d="M216.994 52.479v39"/>
                <path stroke="#A2ACE3" d="M223.994 36.479v22"/>
            </g>
            <g stroke-linecap="round">
                <path stroke="#A2ACE3" d="M379.995 178.479l23-12"/>
                <path stroke="#FFC600" d="M398.995 178.479l18-10"/>
            </g>
        </g>
        <g transform="translate(88 93)">
            <mask id="f" fill="#fff">
                <use xlink:href="#e"/>
            </mask>
            <path fill="#281586" d="M244.117 0v135.267c-10.774 5.785-26.819 5.28-43.76 4.74-20.894-.671-44.288-1.394-61.525 10.312V37.993c13.188-14.121 34.72-17.774 53.787-20.98 7.862-1.322 15.282-2.57 21.617-4.462C228.485 8.293 238.54 3.23 244.117 0zM132.37 37.993V150.42c-16.761-11.402-38.13-12.786-58.366-12.786-3.285 0-6.543.034-9.744.068-14.283.171-27.828.317-37.172-3.066V0c5.581 3.231 15.63 8.293 29.878 12.55 6.338 1.894 13.759 3.144 21.617 4.463 19.067 3.206 40.606 6.856 53.787 20.98zm-73.279 114.03c24.586-1.22 49.994-2.48 76.58 14.077 26.59-16.56 51.979-15.297 76.53-14.077 13.793.686 31.268-2.958 45.566-5.496V21.37c-1.38.31-5.962 3.783-7.185 3.96v113.502s-1.048.745-1.523 1.04c-12.415 7.743-30.135 7.181-48.91 6.595-23.007-.727-46.786-1.478-62.353 12.897-.62.572-2.16 1.922-2.16 1.922s-1.553-1.329-2.161-1.863c-18.09-15.824-45.21-15.514-69.144-15.256-16.02.183-31.156.354-41.79-4.398-.578-.257-1.927-.956-1.927-.956s.01-1.353.01-1.998V25.328c-1.204-.174-5.762-3.64-7.12-3.945v127.26c14.295 2.536 31.782 4.06 45.587 3.38zM264.23 40.643c1.192-.177 5.72-3.643 7.046-3.948v123.983c-27.158 12.932-104.761-6.93-135.672 18.636-30.995-25.61-110.919-7.587-135.604-17.826V36.708c1.325.3 5.857 3.767 7.046 3.941v113.248s1.796.428 2.58.59c15.959 3.283 34.743 4.742 49.79 3.99 25.193-1.24 49.012-2.423 74.494 14.171a472.39 472.39 0 0 1 1.728 1.127s1.263-.782 1.8-1.13c25.475-16.6 49.279-15.408 74.445-14.17 15.033.75 33.808-.71 49.77-3.991.753-.155 2.562-.54 2.562-.54s.018-1.86.018-2.626V40.643h-.003z" mask="url(#f)"/>
        </g>
        <g fill-rule="nonzero" stroke-linecap="round" stroke-width="2">
            <g stroke="#1DD4B6">
                <path d="M97.197 129.284L84.32 121v139.384c18.647 3.132 40.225 3.685 64.732 1.66 15.284-1.263 41.836.286 55.096 5.49 8.84 3.468 15.369 7.957 19.586 13.466M350.857 129.284L363.734 121v139.384c-18.647 3.132-40.224 3.685-64.731 1.66-15.284-1.263-41.836.286-55.096 5.49-8.84 3.468-15.369 7.957-19.587 13.466"/>
            </g>
            <g stroke="#FF9C9C">
                <path d="M111.92 114.121L98.67 105v138.421c9.131 4.517 28.309 5.869 57.533 4.054 29.225-1.814 51.93 3.633 68.117 16.342M336.491 115.121l13.25-9.121v137.421c-9.13 4.517-28.307 5.869-57.532 4.054-29.225-1.814-51.854 3.605-67.889 16.258"/>
            </g>
            <g stroke="#FFC600">
                <path d="M224.504 127l.03 122.28M224.696 249.429c-9.77-5.732-17.57-9.542-23.4-11.429-14.814-4.795-27.703-4.795-47.038-4-23.771.978-37.662-.689-41.671-5M112.876 229V86c16.567 11.187 36.61 18.004 60.128 20.451 23.518 2.448 40.604 9.227 51.258 20.34M224.62 249.38c7.253-5.587 15.418-9.38 24.494-11.38 19.312-4.255 26.954-2.695 46.29-1.899 23.77.978 37.48-1.39 41.13-7.101M336.504 229V86c-16.567 11.187-36.61 18.004-60.128 20.451-23.518 2.448-40.55 9.227-51.096 20.34"/>
            </g>
        </g>
    </g>
</svg>
