<svg xmlns="http://www.w3.org/2000/svg" width="94" height="84" viewBox="0 0 94 84">
    <g fill="#FFF" fill-rule="evenodd">
        <path d="M34.05 31.944a18.224 18.224 0 0 1 9.188 0h.175c.35 0 .787-.261.875-.697.087-.436-.175-.959-.613-1.046a21.802 21.802 0 0 0-10.062 0c-.438.087-.788.61-.613 1.046.175.523.613.785 1.05.697M34.05 37.175a18.224 18.224 0 0 1 9.188 0h.175c.35 0 .787-.261.875-.697.087-.436-.175-.96-.613-1.046a21.802 21.802 0 0 0-10.062 0c-.438.087-.788.61-.613 1.046.175.61.613.872 1.05.697M34.05 42.493a18.224 18.224 0 0 1 9.188 0h.175c.35 0 .787-.261.875-.697.087-.436-.175-.96-.613-1.046a21.802 21.802 0 0 0-10.062 0c-.438.087-.788.61-.613 1.046.175.523.613.784 1.05.697M43.5 47.81c.35 0 .788-.26.875-.697.087-.435-.175-.959-.613-1.046a21.802 21.802 0 0 0-10.062 0c-.525.175-.787.61-.7 1.046.088.436.612.786 1.05.61a18.224 18.224 0 0 1 9.188 0c.087.088.174.088.262.088M50.675 31.944a18.224 18.224 0 0 1 9.188 0h.175c.35 0 .787-.261.875-.697.087-.436-.175-.959-.613-1.046a21.802 21.802 0 0 0-10.062 0c-.438.087-.788.61-.613 1.046.175.523.613.785 1.05.697M50.675 37.175a18.224 18.224 0 0 1 9.188 0h.175c.35 0 .787-.261.875-.697.087-.436-.175-.96-.613-1.046a21.802 21.802 0 0 0-10.062 0c-.438.087-.788.61-.613 1.046.175.61.613.872 1.05.697M50.675 42.493a18.224 18.224 0 0 1 9.188 0h.175c.35 0 .787-.261.875-.697.087-.436-.175-.96-.613-1.046a21.802 21.802 0 0 0-10.062 0c-.438.087-.788.61-.613 1.046.175.523.613.784 1.05.697M50.675 47.81a18.244 18.244 0 0 1 9.188 0h.175c.35 0 .787-.26.875-.697.087-.435-.175-.959-.613-1.046a21.802 21.802 0 0 0-10.062 0c-.438.087-.788.61-.613 1.046.175.524.613.786 1.05.698"/>
        <path d="M66.25 55.396h-38.5v-23.8h1.75v20.923c.087.697.438.959 1.225.784a23 23 0 0 1 16.013 0c.175.088.35.088.612 0a23 23 0 0 1 16.012 0c.263.088.613.088.788-.087.263-.174.35-.436.35-.697V31.596h1.75v23.8zm-35-28.42a22.885 22.885 0 0 1 14.875 0v24.322c-2.45-.784-4.9-1.133-7.438-1.133-2.537 0-4.987.349-7.437 1.133V26.975zm16.625 0a22.885 22.885 0 0 1 14.875 0v24.322a24.089 24.089 0 0 0-14.875 0V26.975zm19.25 2.876H64.5v-3.487c0-.349-.263-.698-.525-.785A24.213 24.213 0 0 0 47 25.493a24.213 24.213 0 0 0-16.975.087c-.262.087-.525.436-.525.785v3.487h-2.625c-.525 0-.875.349-.875.872v25.543c0 .524.35.872.875.872h40.25c.525 0 .875-.348.875-.872V30.724a.875.875 0 0 0-.875-.872z"/>
        <g>
            <path d="M35.942 73.23c-1.217-10.022-11.326-9.698-11.326-9.698s1.417 10.192 11.326 9.698M23.248 76.481s6.374 7.994 14.616 2.373c-6.117-7.954-14.616-2.373-14.616-2.373M21.366 68.39c1.552-9.973-8.254-12.504-8.254-12.504S11.706 66.08 21.366 68.39M9.499 70.097s4.918 8.992 13.995 4.909c-4.675-8.906-13.995-4.91-13.995-4.91M1.967 54.294s.12 10.292 10.01 11.095c.055-10.096-10.01-11.095-10.01-11.095M10.386 54.294c6.96-6.389 1.24-14.173 1.24-14.173s-6.986 6.634-1.24 14.173M5.006 51.289c4.165-8.545-3.964-13.646-3.964-13.646s-4.097 8.785 3.964 13.646M4.584 20.942s-5.636 7.849 1.393 14.156c5.659-7.602-1.393-14.156-1.393-14.156M16.115 23.609s-8.861 3.703-6.098 12.845c8.755-3.481 6.098-12.845 6.098-12.845M14.013 8.74s-8.51 4.476-4.978 13.338c8.424-4.24 4.978-13.337 4.978-13.337M26.985 11.967s-9.583-.487-10.904 8.998c9.389.644 10.904-8.998 10.904-8.998M27.008 0s-9.467 1.596-8.784 11.146C27.537 9.748 27.008 0 27.008 0M26.48 9.5c9.268 1.682 11.806-7.733 11.806-7.733S28.814.217 26.48 9.499M57.4 73.23c9.91.494 11.325-9.698 11.325-9.698s-10.108-.324-11.326 9.698M55.478 78.851c8.242 5.621 14.616-2.373 14.616-2.373s-8.499-5.576-14.616 2.373M71.98 68.39c9.658-2.31 8.25-12.504 8.25-12.504s-9.803 2.531-8.25 12.504M69.852 75.01c9.075 4.083 13.995-4.91 13.995-4.91s-9.322-4-13.995 4.91M81.367 65.389c9.888-.803 10.01-11.095 10.01-11.095s-10.065.999-10.01 11.095M81.719 40.122s-5.72 7.784 1.24 14.173c5.743-7.54-1.24-14.173-1.24-14.173M88.34 51.289c8.065-4.86 3.963-13.646 3.963-13.646s-8.13 5.101-3.964 13.646M88.762 20.942s-7.054 6.554-1.394 14.156c7.03-6.307 1.394-14.156 1.394-14.156M83.326 36.451c2.763-9.142-6.098-12.845-6.098-12.845s-2.655 9.366 6.098 12.845M84.31 22.078c3.532-8.862-4.98-13.338-4.98-13.338s-3.444 9.098 4.98 13.338M66.357 11.967s1.516 9.642 10.906 8.998c-1.32-9.485-10.906-8.998-10.906-8.998M75.116 11.15C75.8 1.595 66.335.002 66.335.002s-.532 9.746 8.78 11.146M66.861 9.5C64.53.216 55.058 1.766 55.058 1.766s2.538 9.412 11.803 7.732M46.672 70.79c3.394 0 6.147 2.8 6.147 6.255 0 3.453-2.753 6.253-6.147 6.253-3.393 0-6.146-2.8-6.146-6.253 0-3.456 2.753-6.256 6.146-6.256"/>
        </g>
    </g>
</svg>
