<svg xmlns="http://www.w3.org/2000/svg" xmlns:xlink="http://www.w3.org/1999/xlink" width="94" height="84" viewBox="0 0 94 84">
    <defs>
        <path id="a" d="M0 0h40.976v52.535H0z"/>
    </defs>
    <g fill="none" fill-rule="evenodd" opacity=".7">
        <g fill="#FFF">
            <path d="M35.942 73.23c-1.217-10.022-11.326-9.698-11.326-9.698s1.417 10.192 11.326 9.698M23.248 76.481s6.374 7.994 14.616 2.373c-6.117-7.954-14.616-2.373-14.616-2.373M21.366 68.39c1.552-9.973-8.254-12.504-8.254-12.504S11.706 66.08 21.366 68.39M9.499 70.097s4.918 8.992 13.995 4.909c-4.675-8.906-13.995-4.91-13.995-4.91M1.967 54.294s.12 10.292 10.01 11.095c.055-10.096-10.01-11.095-10.01-11.095M10.386 54.294c6.96-6.389 1.24-14.173 1.24-14.173s-6.986 6.634-1.24 14.173M5.006 51.289c4.165-8.545-3.964-13.646-3.964-13.646s-4.097 8.785 3.964 13.646M4.584 20.942s-5.636 7.849 1.393 14.156c5.659-7.602-1.393-14.156-1.393-14.156M16.115 23.609s-8.861 3.703-6.098 12.845c8.755-3.481 6.098-12.845 6.098-12.845M14.013 8.74s-8.51 4.476-4.978 13.338c8.424-4.24 4.978-13.337 4.978-13.337M26.985 11.967s-9.583-.487-10.904 8.998c9.389.644 10.904-8.998 10.904-8.998M27.008 0s-9.467 1.596-8.784 11.146C27.537 9.748 27.008 0 27.008 0M26.48 9.5c9.268 1.682 11.806-7.733 11.806-7.733S28.814.217 26.48 9.499M57.4 73.23c9.91.494 11.325-9.698 11.325-9.698s-10.108-.324-11.326 9.698M55.478 78.851c8.242 5.621 14.616-2.373 14.616-2.373s-8.499-5.576-14.616 2.373M71.98 68.39c9.658-2.31 8.25-12.504 8.25-12.504s-9.803 2.531-8.25 12.504M69.852 75.01c9.075 4.083 13.995-4.91 13.995-4.91s-9.322-4-13.995 4.91M81.367 65.389c9.888-.803 10.01-11.095 10.01-11.095s-10.065.999-10.01 11.095M81.719 40.122s-5.72 7.784 1.24 14.173c5.743-7.54-1.24-14.173-1.24-14.173M88.34 51.289c8.065-4.86 3.963-13.646 3.963-13.646s-8.13 5.101-3.964 13.646M88.762 20.942s-7.054 6.554-1.394 14.156c7.03-6.307 1.394-14.156 1.394-14.156M83.326 36.451c2.763-9.142-6.098-12.845-6.098-12.845s-2.655 9.366 6.098 12.845M84.31 22.078c3.532-8.862-4.98-13.338-4.98-13.338s-3.444 9.098 4.98 13.338M66.357 11.967s1.516 9.642 10.906 8.998c-1.32-9.485-10.906-8.998-10.906-8.998M75.116 11.15C75.8 1.595 66.335.002 66.335.002s-.532 9.746 8.78 11.146M66.861 9.5C64.53.216 55.058 1.766 55.058 1.766s2.538 9.412 11.803 7.732M46.672 70.79c3.394 0 6.147 2.8 6.147 6.255 0 3.453-2.753 6.253-6.147 6.253-3.393 0-6.146-2.8-6.146-6.253 0-3.456 2.753-6.256 6.146-6.256"/>
        </g>
        <g transform="translate(27 14)">
            <mask id="b" fill="#fff">
                <use xlink:href="#a"/>
            </mask>
            <path fill="#FFF" d="M38.024 27.581a20.377 20.377 0 0 1-9.555 12.453c-4.418 2.551-9.514 3.358-14.468 2.31l.598-2.23c1.168.237 2.37.373 3.598.373 1.147 0 2.305-.11 3.442-.328C31.5 38.27 37.99 28.711 36.101 18.848c-1.264-6.595-6.01-11.784-12.098-13.832l.598-2.231C34.87 6.143 40.853 17.023 38.024 27.581m-18.856 6.302c-.825-.644-1.698-.786-2.276-.88l-.025-.004c.247-.761.927-1.473 1.647-1.711.497-.165.94-.09 1.355.229 1.94 1.489 4.074.667 5.35.176a8.98 8.98 0 0 1 .688-.247c.515.19 1.823 1.28 3.11 2.569a15.87 15.87 0 0 1-7.8 3.935c-.102.02-.206.026-.308.044.011-.141.033-.275.031-.423-.023-1.44-.703-2.852-1.772-3.688m14.3-6.927c-.668-.011-1.265-.34-1.779-.991-1.145-1.447-1.47-3.936-.709-5.434 1.01-1.987 1.146-3.387-.8-5.976-.142-.189-.165-.298-.164-.317.036-.21.667-.592 1.433-.861a15.88 15.88 0 0 1 2.441 5.896c.508 2.648.322 5.27-.423 7.683M2.54 25.273a15.876 15.876 0 0 1 .428-7.74c.4.534.871 1.002 1.305 1.432.716.708 1.392 1.377 1.74 2.209.44 1.058.216 2.569.02 3.902-.247 1.661-.5 3.377.866 4.097.47.247 1.291.383 2.22.383 1.756 0 3.898-.488 4.766-1.638.262-.346 1.004-1.596-.438-3.111-.543-.571-.615-.885-.597-.958.164-.667 2.965-1.623 4.64-2.193 3.054-1.042 4.666-2.378 4.66-3.863-.002-.441-.176-1.524-1.747-2.045-.605-.201-1.106-.574-.598-2.907.428-1.961.176-2.601-.613-4.164l-.216-.43c-.304-.609-.73-.996-1.27-1.148-.894-.252-1.692.242-2.397.68-.56.348-1.138.703-1.65.683-.517-.025-1.028-.469-1.44-.981a16.106 16.106 0 0 1 6.017-1.17c4.607 0 8.824 1.996 11.767 5.223-.846.385-1.746.992-2.09 1.91-.21.56-.299 1.442.47 2.465 1.446 1.924 1.213 2.381.592 3.605-1.153 2.271-.735 5.718.951 7.849.744.94 1.68 1.533 2.701 1.75a16.106 16.106 0 0 1-2.063 3.259c-3.404-3.453-4.568-3.24-4.968-3.162-.374.072-.768.224-1.185.384-1.306.503-2.299.808-3.169.14-1.008-.774-2.227-.981-3.435-.581-1.448.48-2.706 1.814-3.129 3.319-.14.495-.277 1.227.13 1.867.431.676 1.148.792 1.724.887.454.074.883.144 1.253.433.531.414.895 1.198.907 1.95.004.265-.037.464-.094.611-.133.003-.267.019-.399.019-7.636-.002-14.22-5.454-15.659-12.966m7.625-16.769c.692.984 1.821 2.126 3.383 2.203 1.215.063 2.216-.563 2.95-1.019.155-.097.362-.225.526-.313l.16.315c.648 1.286.702 1.391.422 2.671-.243 1.114-.983 4.504 2.088 5.522.034.011.065.022.092.033-.29.33-1.132.964-3.024 1.609-3.15 1.075-5.64 1.924-6.098 3.787-.358 1.459.78 2.653 1.152 3.046.118.124.182.215.214.272-.549.538-3.06.848-3.944.602-.045-.374.083-1.234.17-1.827.23-1.543.513-3.463-.169-5.098-.52-1.248-1.43-2.148-2.233-2.942-1.154-1.142-1.758-1.815-1.545-2.908.22-.388.446-.774.7-1.147a15.913 15.913 0 0 1 5.156-4.806M24.105.291L23.02 0l-1.188 4.432a18.137 18.137 0 0 0-3.597-.373c-1.147 0-2.306.11-3.442.328a18.097 18.097 0 0 0-11.645 7.66A18.09 18.09 0 0 0 .33 25.696c1.262 6.595 6.008 11.785 12.097 13.833l-1.188 4.435 1.086.291c1.577.423 3.171.665 4.764.747v5.283H6.806v2.25h22.817v-2.25H19.34v-5.28a22.641 22.641 0 0 0 10.255-3.023 22.612 22.612 0 0 0 10.604-13.819C43.445 16.042 36.226 3.539 24.105.291" mask="url(#b)"/>
        </g>
    </g>
</svg>
