<svg xmlns="http://www.w3.org/2000/svg" width="11" height="10" viewBox="0 0 11 10">
    <path fill="#1DD4B6" fill-rule="nonzero" d="M5.5 9.964a.454.454 0 0 1-.206-.06C5.088 9.763.344 6.322.069 3.19-.011 2.31.264 1.524.882.87 1.753-.036 2.876-.202 4.148.393a6.026 6.026 0 0 1 1.34.893A6.026 6.026 0 0 1 6.83.393c1.272-.595 2.406-.44 3.266.476.619.655.894 1.429.813 2.321-.275 3.131-5.03 6.572-5.225 6.715a.309.309 0 0 1-.183.06zM2.75.774c-.458 0-.928.166-1.352.607-.47.5-.676 1.06-.619 1.726.103 1.143.974 2.56 2.532 4.12A23.134 23.134 0 0 0 5.5 9.142c.894-.679 4.503-3.572 4.72-6.036.058-.667-.137-1.238-.618-1.726C8.95.702 8.124.595 7.127 1.06c-.79.369-1.375.976-1.386.976a.35.35 0 0 1-.505 0C5.18 1.976 4 .774 2.75.774z"/>
</svg>
