<svg xmlns="http://www.w3.org/2000/svg" width="94" height="84" viewBox="0 0 94 84">
    <g fill="none" fill-rule="evenodd" opacity=".7">
        <g fill="#FFF">
            <path d="M35.942 73.23c-1.217-10.022-11.326-9.698-11.326-9.698s1.417 10.192 11.326 9.698M23.248 76.481s6.374 7.994 14.616 2.373c-6.117-7.954-14.616-2.373-14.616-2.373M21.366 68.39c1.552-9.973-8.254-12.504-8.254-12.504S11.706 66.08 21.366 68.39M9.499 70.097s4.918 8.992 13.995 4.909c-4.675-8.906-13.995-4.91-13.995-4.91M1.967 54.294s.12 10.292 10.01 11.095c.055-10.096-10.01-11.095-10.01-11.095M10.386 54.294c6.96-6.389 1.24-14.173 1.24-14.173s-6.986 6.634-1.24 14.173M5.006 51.289c4.165-8.545-3.964-13.646-3.964-13.646s-4.097 8.785 3.964 13.646M4.584 20.942s-5.636 7.849 1.393 14.156c5.659-7.602-1.393-14.156-1.393-14.156M16.115 23.609s-8.861 3.703-6.098 12.845c8.755-3.481 6.098-12.845 6.098-12.845M14.013 8.74s-8.51 4.476-4.978 13.338c8.424-4.24 4.978-13.337 4.978-13.337M26.985 11.967s-9.583-.487-10.904 8.998c9.389.644 10.904-8.998 10.904-8.998M27.008 0s-9.467 1.596-8.784 11.146C27.537 9.748 27.008 0 27.008 0M26.48 9.5c9.268 1.682 11.806-7.733 11.806-7.733S28.814.217 26.48 9.499M57.4 73.23c9.91.494 11.325-9.698 11.325-9.698s-10.108-.324-11.326 9.698M55.478 78.851c8.242 5.621 14.616-2.373 14.616-2.373s-8.499-5.576-14.616 2.373M71.98 68.39c9.658-2.31 8.25-12.504 8.25-12.504s-9.803 2.531-8.25 12.504M69.852 75.01c9.075 4.083 13.995-4.91 13.995-4.91s-9.322-4-13.995 4.91M81.367 65.389c9.888-.803 10.01-11.095 10.01-11.095s-10.065.999-10.01 11.095M81.719 40.122s-5.72 7.784 1.24 14.173c5.743-7.54-1.24-14.173-1.24-14.173M88.34 51.289c8.065-4.86 3.963-13.646 3.963-13.646s-8.13 5.101-3.964 13.646M88.762 20.942s-7.054 6.554-1.394 14.156c7.03-6.307 1.394-14.156 1.394-14.156M83.326 36.451c2.763-9.142-6.098-12.845-6.098-12.845s-2.655 9.366 6.098 12.845M84.31 22.078c3.532-8.862-4.98-13.338-4.98-13.338s-3.444 9.098 4.98 13.338M66.357 11.967s1.516 9.642 10.906 8.998c-1.32-9.485-10.906-8.998-10.906-8.998M75.116 11.15C75.8 1.595 66.335.002 66.335.002s-.532 9.746 8.78 11.146M66.861 9.5C64.53.216 55.058 1.766 55.058 1.766s2.538 9.412 11.803 7.732M46.672 70.79c3.394 0 6.147 2.8 6.147 6.255 0 3.453-2.753 6.253-6.147 6.253-3.393 0-6.146-2.8-6.146-6.253 0-3.456 2.753-6.256 6.146-6.256"/>
        </g>
        <path fill="#FFF" d="M28.474 33.963a.864.864 0 0 0 .268-.718 8.777 8.777 0 0 1 1.022-4.452l2.886-5.335c.272-.5.605-.935 1.049-1.326a3.196 3.196 0 0 1 3.238-.571l.037.014c1.118.43 1.883 1.46 2.024 2.682.226 1.904 1.844 3.391 4.055 3.29.088-.01.228-.042.317-.05l4.772-2.058c.14-.033.257-.117.397-.15.523-.145.748-.75.517-1.272l-.2-.38c-.222-.43-.706-.617-1.131-.392l-.976.447c-.873.4-1.93-.31-1.626-1.578.047-.24.257-.462.463-.557l3.236-1.48c.41-.187.947-.025 1.132.393l3.085 6.118.184.417c.093.209.134.44.05.668-.43 1.262-1.902 1.214-2.328.186-.17-.455-.707-.618-1.155-.445l-2.9 1.264a.924.924 0 0 0-.428 1.262c.07.157.153.275.139.313.338.693.027 1.525-.626 1.792a8.322 8.322 0 0 1-3.583.698c-.252-.01-.547.093-.705.291-1.124 1.298-.64 2.739.361 3.254 2.211 1.153 4.054 2.38 5.822 3.58a.882.882 0 0 1 .375.707c.046 1.359-1.187 1.923-2.033 1.337-1.768-1.199-3.587-2.374-5.775-3.476l-1.075-.543-.149-.057c-.321-.167-.694-.31-1.066-.454l-.075-.029-.037-.014-.037-.014a116.08 116.08 0 0 0-.372-.144l-.15-.057-5.774-2.221c-.335-.13-.666-.04-.929.205l-2.095 1.962a.878.878 0 0 0-.014 1.292c2.882 2.666 9.439 5.189 26.612 11.796 10.356 3.984 13.188 3.473 14.684 2.319.3-.231.59-.552.842-.887.347-.472.135-1.16-.386-1.36l-5.327-2.05c-1.938-.745-2.91-2.936-2.176-4.903l.057-.151c.179-.364.156-.762-.122-1.042a6.431 6.431 0 0 1-.87-.983c-.143-.185-.258-.446-.16-.71.327-1.562 2.238-1.432 2.457.036.028.27.232.522.478.66l6.32 3.383c2.444 1.33 3.548 4.307 2.575 6.916a6.888 6.888 0 0 1-2.188 3.008c-2.38 1.81-6.073 2.12-16.914-2.051-21.905-8.428-26.747-10.291-29.228-14.49-.213-.341-.118-.824.158-1.107l2.998-2.783z"/>
        <path fill="#FFF" d="M59.415 35.53a1.197 1.197 0 0 1-.695-1.565c.24-.644.908-.949 1.542-.705 1.117.43 1.869 1.497 1.92 2.729a2.985 2.985 0 0 1-1.739 2.834c-.308.141-.648.14-.91.04-.26-.1-.515-.329-.654-.642-.278-.626-.01-1.344.593-1.588.308-.142.332-.435.337-.563a.573.573 0 0 0-.394-.54M55.272 30.648a1.197 1.197 0 0 1-.694-1.565c.24-.643.908-.948 1.541-.705 1.117.43 1.87 1.498 1.921 2.73a2.984 2.984 0 0 1-1.74 2.834c-.307.14-.648.14-.909.04-.26-.1-.516-.33-.655-.642-.277-.626-.01-1.345.593-1.589.308-.14.333-.434.337-.562-.046-.104-.058-.412-.394-.541M67.081 54.416l-24.667.57"/>
        <path stroke="#FFF" stroke-linecap="round" stroke-width="2" d="M67.081 54.416l-24.667.57"/>
        <g>
            <path fill="#FFF" d="M36.595 55.346H30.78"/>
            <path stroke="#FFF" stroke-linecap="round" stroke-width="2" d="M36.595 55.346H30.78"/>
        </g>
    </g>
</svg>
