<?xml version="1.0" encoding="UTF-8"?>
<svg width="70px" height="70px" viewBox="0 0 70 70" version="1.1" xmlns="http://www.w3.org/2000/svg" xmlns:xlink="http://www.w3.org/1999/xlink">
    <!-- Generator: sketchtool 57.1 (101010) - https://sketch.com -->
    <title>46CFF5D0-CF08-48F3-809E-A724044AB799</title>
    <desc>Created with sketchtool.</desc>
    <defs>
        <polygon id="path-1" points="0 0.0802400807 40.142984 0.0802400807 40.142984 31.2942874 0 31.2942874"></polygon>
        <polygon id="path-3" points="0.0981629034 0.0867107021 33.8779645 0.0867107021 33.8779645 17.386958 0.0981629034 17.386958"></polygon>
    </defs>
    <g id="AUTOPORTRAIT" stroke="none" stroke-width="1" fill="none" fill-rule="evenodd">
        <g id="D-AUTOPORTRAIT-GUIDELINE-PICTO" transform="translate(-1145.000000, -223.000000)">
            <g id="08_on-" transform="translate(1129.000000, 150.000000)">
                <g id="ILLUS-C7" transform="translate(16.000000, 73.000000)">
                    <circle id="Oval" fill="#C2E86D" fill-rule="nonzero" cx="35" cy="35" r="35"></circle>
                    <g id="handshake" transform="translate(12.000000, 17.000000)">
                        <g id="Group-3" transform="translate(1.440000, 2.939019)">
                            <mask id="mask-2" fill="white">
                                <use xlink:href="#path-1"></use>
                            </mask>
                            <g id="Clip-2"></g>
                            <path d="M38.5937573,17.0191521 C37.8871119,16.6771264 36.8829572,15.9212738 34.8557198,14.377064 C32.9498157,12.9255165 30.3411489,10.9378861 29.0880181,10.3561998 C26.7865673,9.28694485 23.3159485,7.42787732 22.1079537,6.77536014 C20.252039,6.80932014 18.3107055,6.85007215 17.2376335,6.87918072 C17.1983215,6.95486301 17.1590095,7.0305453 17.1240655,7.09895045 C16.3455908,8.6189031 15.1676867,10.9155695 13.2239266,11.6932536 C12.5575639,11.9586267 11.7489985,12.105625 10.9467425,12.105625 C9.6712864,12.105625 8.71178234,11.7247878 8.17112098,11.0048358 C7.79838496,10.5080495 7.65715295,9.89240317 7.77120629,9.28548942 C7.9430143,7.60349904 8.40165433,4.27008229 9.44900372,2.06704846 C8.51716367,1.63915243 7.04029425,0.89348782 5.88471552,0.301613502 C4.9184168,-0.194202525 4.26467277,0.297732359 4.26467277,0.297732359 C3.79195807,0.563105516 3.56676339,1.17293012 3.56676339,1.17293012 L0.241744547,10.6671764 C0.241744547,10.6671764 -0.0615888034,11.6360067 0.0112112006,12.1337633 C0.0694512038,12.5262439 0.158267209,12.9327936 0.913445917,13.4844011 C1.82296063,14.146136 2.98436336,15.07664 3.68858207,15.9571744 C4.22390476,16.6257013 4.35494477,17.490711 4.61265679,18.4391654 C5.30037416,17.6338282 6.24968621,17.0603893 7.35576094,17.0603893 C7.58580895,17.0603893 7.81585696,17.0856167 8.03813964,17.1365567 C9.20779304,17.4029002 10.0396544,18.2582071 10.4929558,19.296898 C10.8904438,19.1537808 11.3020065,19.0698511 11.7121132,19.0698511 C12.2945132,19.0698511 12.8647799,19.225582 13.3607906,19.5186083 C14.0567586,19.9304946 14.5183107,20.5505072 14.7580653,21.2893798 C14.9885987,21.2413506 15.2230147,21.2088461 15.4627694,21.2088461 C16.1077774,21.2088461 16.7532708,21.3932004 17.3303321,21.7400775 C18.4267002,22.4061787 18.9193136,23.6170953 18.7984656,25.1307411 C19.3333029,25.1559686 19.832711,25.2952046 20.250583,25.5484492 C21.6808604,26.4212212 22.0293297,28.6557893 21.630871,30.3164334 L21.6080604,30.4139471 L21.576999,30.5007877 C21.8128711,30.7064883 22.0535964,30.9073375 22.2249191,30.96701 C25.1247859,32.1983027 26.7195913,29.6488768 26.3308393,28.3972082 C27.3456714,29.1220116 29.4088235,28.7630059 30.3901675,27.7437207 C31.3710262,26.7268612 30.8944289,24.9391097 30.8944289,24.9391097 C30.8944289,24.9391097 33.5962797,26.4838046 35.5541145,24.5582725 C36.8261732,23.3090296 35.8161945,21.7565724 35.8161945,21.7565724 C35.8161945,21.7565724 38.3782693,22.7855604 39.5794694,21.0802832 C40.7185468,19.4671831 39.9992827,18.2106631 38.5937573,17.0191521" id="Fill-1" fill="#89A942" mask="url(#mask-2)"></path>
                        </g>
                        <path d="M20.0852944,34.1647075 C19.7606064,34.1404503 19.4393157,34.0376 19.1466597,33.8488794 C18.224041,33.2492428 18.014377,32.1804731 18.612793,31.2572462 L18.7821744,30.9414181 C19.3820464,30.0191615 20.8001905,29.6412352 21.4694652,30.0472998 C22.0256572,30.3864147 22.2925906,31.7176468 22.0256572,32.8305645 L21.9572252,33.0212257 C21.3466758,34.129292 20.7870865,34.2156475 20.0852944,34.1647075" id="Fill-4" fill="#89A942"></path>
                        <g id="Group-8" transform="translate(10.901334, 0.998448)">
                            <mask id="mask-4" fill="white">
                                <use xlink:href="#path-3"></use>
                            </mask>
                            <g id="Clip-7"></g>
                            <path d="M0.116428806,11.513217 C0.116428806,11.513217 0.748332841,5.1515384 2.31062093,3.76694061 C3.87145301,2.38234282 5.09594908,1.97967422 7.21928253,1.62018335 C9.34164531,1.26020733 13.9401789,-0.29030933 15.5267336,0.172031838 C17.1123177,0.634858149 19.7452512,1.34995876 21.3167606,1.65899478 C22.8897261,1.96997136 24.7538915,3.12946286 25.6862169,3.19301657 C26.2142596,3.228432 27.5115556,2.60793426 28.5584197,2.11114794 C29.0913157,1.8583885 29.5654864,2.02867365 29.8984251,2.25038395 C30.4177318,2.59629083 30.5696411,3.21533315 30.5696411,3.21533315 L33.757796,13.1331091 C33.757796,13.1331091 33.92378,13.686172 33.8660253,14.1126126 C33.8213746,14.4395989 33.71994,14.8097629 33.0919186,15.2216492 C31.9674012,15.9600367 30.3696838,17.044331 30.2017585,17.3587036 C29.9396784,17.8448168 23.1420994,11.9144302 20.3975392,10.6399598 C17.6520084,9.36548948 13.0937575,6.88010249 13.0937575,6.88010249 C13.0937575,6.88010249 7.24743186,6.98586364 6.78927717,7.03049678 C6.33063715,7.07415964 5.07799174,11.1406273 3.0842423,11.9367468 C1.9087649,12.4068502 -0.115075206,12.3064256 0.116428806,11.513217" id="Fill-6" fill="#89A942" mask="url(#mask-4)"></path>
                        </g>
                        <path d="M8.43540099,26.8657813 C8.33493699,26.8585042 8.23641432,26.844435 8.13643564,26.8211482 C7.06336359,26.5771213 6.39020622,25.5107772 6.6328729,24.4361857 L6.74886757,23.9287263 C6.99153425,22.8546199 7.9990863,21.6102284 9.0726437,21.856681 C10.1462011,22.101193 10.6902598,23.5993143 10.4466224,24.6729355 L10.3364518,25.3860955 C10.1156251,26.3597773 9.40267038,26.9366122 8.43540099,26.8657813" id="Fill-9" fill="#89A942"></path>
                        <path d="M11.7661468,29.5354741 C11.4696081,29.5136426 11.2614001,29.5286821 10.9862161,29.3661592 C10.0393307,28.8063043 9.63601866,27.4794385 10.1975494,26.5319545 L11.1274481,25.155119 C11.6899494,24.2066646 12.9226962,23.4687623 13.8715229,24.0291023 C14.8193789,24.5899275 14.6480563,25.9095162 14.2238749,26.8933859 L13.4764615,28.4754369 C13.0784882,29.14833 12.4965735,29.5878695 11.7661468,29.5354741" id="Fill-11" fill="#89A942"></path>
                        <path d="M16.3192532,31.7763976 C16.0139785,31.7531107 15.7106451,31.6614187 15.4310931,31.4921038 C14.4900317,30.9210907 14.1896104,29.69659 14.7608477,28.7544425 L15.9950505,26.9924036 C16.5667732,26.0517115 17.6116959,25.6728149 18.5532426,26.2423727 C19.4938187,26.8124156 19.1788373,28.436674 18.7789226,29.4831272 L18.1693439,30.8211512 C17.7689439,31.4838564 17.0419145,31.8278227 16.3192532,31.7763976" id="Fill-13" fill="#89A942"></path>
                        <path d="M11.8968757,4.42392226 C12.7492194,3.31171394 14.2481258,2.4857451 16.3935946,1.94601573 C19.6117979,1.13642169 24.1945326,0 25.6132045,0 C27.0318765,0 33.0107831,1.36078917 34.8956269,2.339297 C36.7804708,3.31780484 38.8825802,1.72193167 39.7628928,1.72193167 C40.6432053,1.72193167 42.1125023,2.06823492 42.5561742,3.73411761 C42.8519555,4.84470607 43.8599243,8.01257856 45.5800806,13.2377351 C46.5682057,15.212579 46.4119557,16.5600009 45.1113306,17.2800009 C43.8107055,18.000001 42.4717211,18.880001 41.0943772,19.9200011" id="Path-3" stroke="#FFFFFF" stroke-width="0.600000024" stroke-linecap="round" fill-rule="nonzero"></path>
                        <path d="M5.73843781,22.3434012 C4.564844,25.3622222 5.5737503,27.1231723 8.76515673,27.6262515 C9.69484428,30.3963739 11.2591412,31.2954365 13.4580476,30.3234392 C13.9374226,32.4278143 15.3054696,33.2000018 17.5621885,32.6400018 C16.9183603,34.1756704 20.1932824,36.0874238 22.19672,34.9200019" id="Path-4" stroke="#FFFFFF" stroke-width="0.600000024" stroke-linecap="round" fill-rule="nonzero"></path>
                        <path d="M0.362460957,14.4516805 C2.71003921,7.38884918 4.08417991,3.49015895 4.48488306,2.75560978 C4.8855862,2.02106061 5.66015656,1.86268031 6.80859412,2.28046887 L11.9812507,4.42392226 C10.82086,8.8226099 10.2406646,11.6249616 10.2406646,12.8309773 C10.2406646,14.6400008 13.8867195,14.3872798 14.5760164,13.8211208 C15.0355477,13.4436814 16.2121493,11.8505475 18.1058213,9.04171924 L23.6594544,8.81367236 C29.0006266,11.1196881 32.8261737,13.257032 35.1360957,15.225704 C38.5200021,17.7428916 41.897932,19.8906217 42.4964086,21.8251156 C43.0948852,23.7596094 41.0974241,26.3220125 39.1797678,25.9742882 C39.9621116,27.0600015 38.821174,30.7593973 33.7171893,29.5396994 C33.7171893,32.1665677 32.0905486,33.2000018 28.8372672,32.6400018 C28.8372672,35.2178144 26.6877358,35.9778145 22.3886731,34.9200019 C23.2358606,30.8400017 22.2781262,28.8000016 19.5154698,28.8000016 C19.6170323,26.0837514 18.2979697,24.9237514 15.5582821,25.3200014 C14.6707039,23.0400013 13.5168757,21.9600012 11.313985,23.6400013 C10.5984381,21.3178137 8.7519536,20.8778136 5.77453157,22.3200012 C4.63031275,19.5658036 3.25937518,18.0823661 1.66171884,17.8696885 C0.0640625035,17.6570109 -0.369023458,16.5176749 0.362460957,14.4516805 Z" id="Path-2" stroke="#FFFFFF" stroke-width="0.600000024" stroke-linecap="round" fill-rule="nonzero"></path>
                    </g>
                </g>
            </g>
        </g>
    </g>
</svg>