<svg xmlns="http://www.w3.org/2000/svg" width="70" height="70" viewBox="0 0 70 70">
    <g fill="none" fill-rule="evenodd">
        <circle cx="35" cy="35" r="35" fill="#FFC600" fill-rule="nonzero"/>
        <g fill="#F6AE02" fill-rule="nonzero" stroke="#FFF" stroke-width=".627">
            <path d="M55.3 24.41a.323.323 0 0 0-.403-.221l-14.804 4.293a.332.332 0 0 0-.228.407l2.547 8.982a.323.323 0 0 0 .402.221L57.618 33.8a.332.332 0 0 0 .228-.407L55.3 24.41z"/>
            <path d="M48.504 15.292a.327.327 0 0 0-.463-.012l-11.29 10.528a.327.327 0 0 0-.02.462l6.358 6.818c.122.131.33.137.463.013l11.29-10.528a.327.327 0 0 0 .02-.463l-6.358-6.818z"/>
            <path d="M36.739 11.284a.332.332 0 0 0-.426.192l-5.566 14.375a.323.323 0 0 0 .185.42l8.725 3.32a.332.332 0 0 0 .425-.191l5.566-14.376a.323.323 0 0 0-.184-.42l-8.725-3.32z"/>
            <g>
                <path d="M24.178 14.55a.323.323 0 0 0-.214.406l4.55 14.727a.332.332 0 0 0 .412.221l8.936-2.703a.323.323 0 0 0 .214-.406l-4.55-14.727a.332.332 0 0 0-.412-.22l-8.936 2.702z"/>
                <path d="M15.18 21.504a.327.327 0 0 0-.004.463l10.723 11.105a.327.327 0 0 0 .463.011l6.706-6.475a.327.327 0 0 0 .004-.463L22.35 15.04a.327.327 0 0 0-.463-.011l-6.706 6.475z"/>
                <path d="M11.378 33.338c-.061.17.028.36.2.422l14.47 5.314a.323.323 0 0 0 .417-.192l3.167-8.781a.332.332 0 0 0-.2-.423l-14.47-5.314a.323.323 0 0 0-.417.192l-3.167 8.782z"/>
            </g>
        </g>
        <path fill="#F6AE02" d="M41.021 41.793a1.014 1.014 0 0 1-.035-.394c-.045-.446-.166-.88-.313-1.31-.059-.204-.2-.262-.427-.199-.61.15-.908.597-.998 1.197a5.872 5.872 0 0 0-.08 1c-.01.427 0 .826.014 1.25-.005.134.067.256.088.386.008.052.02.13-.001.16-.256.387-.293.819-.326 1.277-.014.242-.003.48-.017.723.004.026-.018.056-.035.112-.034-.048-.034-.048-.038-.074l-.285-1.794c-.028-.182-.027-.342-.056-.524a5.273 5.273 0 0 1-.099-1.29 25.15 25.15 0 0 0-.008-2.051c-.022-.637-.073-1.295-.12-1.927-.027-.502-.08-1-.081-1.506a11.561 11.561 0 0 0-.193-1.889c-.037-.234-.126-.46-.31-.617-.055-.018-.063-.07-.071-.122-.05-.152-.17-.24-.311-.297-.056-.018-.09-.066-.15-.11l-.309.05c-.112.123-.194.27-.306.394a1.002 1.002 0 0 0-.31.715c-.059.623-.067 1.237-.097 1.881.004.187-.02.377-.02.537l-.052.008c-.034-.048-.063-.07-.097-.118-.426-.519-.927-.52-1.49-.244-.22.115-.315.343-.41.572-.118.258-.21.513-.323.797-.035.112-.108.15-.245.119-.522-.13-1.007-.027-1.36.402-.307.395-.588.786-.806 1.247-.035.112-.108.15-.219.114-.39-.124-.767-.011-1.073.224-.422.333-.716.806-1.04 1.257-.17.267-.12.579-.122.9.01.397.02.795.053 1.163.01.399.072.789.078 1.16.023.477-.006.961-.01 1.441-.006.455.093.919.19 1.356.117.408.208.82.3 1.232.187.85.319 1.682.61 2.516.104.33.257.625.336.96.096.437.166.88.206 1.3l.108 1.181c.017.61.06 1.217.052 1.831-.025.67-.153 2.848-.205 3.522 2.234-1.404 4.41-1.616 6.531-.637.267-2.172.336-2.794.425-3.235.085-.466.199-.91.258-1.373.059-.622.178-1.201.49-1.73.122-.233.3-.447.446-.684.256-.387.515-.748.744-1.13.273-.443.568-.917.81-1.381.343-.668.682-1.36.965-2.072.096-.229.076-.519.086-.787.021-.536.072-1.05.092-1.587.02-.536.045-1.046.04-1.579a2.884 2.884 0 0 0 0-.666c-.011-.238-.07-.442-.133-.672-.105-.33-.235-.655-.34-.985z"/>
        <path fill="#FFC600" stroke="#FFC600" stroke-width=".5" d="M35.443 42.824c-.004-.052-.035-.13-.013-.183.064-.585.101-1.169.165-1.754.036-.24.017-.502.053-.742.037-.214.128-.405.193-.594l.052-.004c-.13 1.118-.263 2.209-.372 3.272l-.078.005zM33.361 43.316l-.01-.158c.04-.53.082-1.061.099-1.564.011-.212-.005-.448.032-.662.013-.185.08-.348.145-.538l.026-.001c-.064.954-.152 1.937-.24 2.92l-.052.003zM31.145 43.933l.004.052c-.02.08-.04.188-.145.169-.026.002-.088-.126-.093-.205l.057-1.429-.026.002c.017-.133.034-.266.076-.401-.002-.026.075-.058.099-.086.03.05.085.1.089.152.016.236.005.448-.006.66 0 .37-.027.74-.055 1.086z"/>
        <path fill="#F69601" fill-rule="nonzero" d="M30.818 60.341c1.83-1.651 3.882-1.837 6.154-.56-1.855 1.29-3.906 1.476-6.154.56z"/>
    </g>
</svg>
