<svg xmlns="http://www.w3.org/2000/svg" xmlns:xlink="http://www.w3.org/1999/xlink" width="70" height="70" viewBox="0 0 70 70">
    <defs>
        <path id="a" d="M0 .124h29.057v15.984H0z"/>
        <path id="c" d="M0 .124h29.057v15.984H0z"/>
        <path id="e" d="M0 0h34.138v22.64H0z"/>
    </defs>
    <g fill="none" fill-rule="evenodd">
        <circle cx="35" cy="35" r="35" fill="#FF8F5E" fill-rule="nonzero"/>
        <path fill="#E8723E" d="M9.91 35.648c.492 1.305 1.31 2.4 2.5 3.347 1.16.923 2.481 1.907 4.303 2.909-2.241-1.847-4.42-3.998-4.915-5.362l-.04-.005c-.038-.075-.077-.149-.11-.228-.213-.509-.437-1.128-.81-1.576-.542-.807-1.6-1.533-2.3-.463-.073.111-.058.214 0 .291.192.013.387.064.569.157.366.187.644.508.803.93"/>
        <path fill="#E8723E" d="M18.99 43.035c-.443-.572-.908-1.229-1.185-1.48.018-.023-1.76-2.19-2.944-2.415a.303.303 0 0 0-.143.011c-1.267-2.196-1.494-2.418-2.257-2.663a.39.39 0 0 0-.159-.007c.614 1.486 3.673 4.352 6.658 6.542l.03.012"/>
        <g transform="rotate(27 -65.488 34.984)">
            <mask id="b" fill="#fff">
                <use xlink:href="#a"/>
            </mask>
            <path fill="#E8723E" d="M28.985 11.446c-2.97-6.707-1.855-7.65-7.724-9.129-.778-.196-6.01-1.936-6.898-2.12a3.425 3.425 0 0 0-.695-.073c-1.562 0-2.451 1.146-1.007 1.705 1.513.586 1.644.866 2.653 1.128.443.114 2.228.403 3.042.847-2.613.389-4.719.543-6.522.543-2.456 0-4.35-.287-6.192-.662-1.47-.3-2.801-.89-3.982-1.967a1.192 1.192 0 0 0-.804-.334c-.709 0-1.227.73-.517 1.377.172.157.617.594.685.668 3.67 3.948 8.478 4.477 15.107 5.405.165.023 1.4.112 1.841.112.07 0 .12-.002.142-.007 2.994.93 4.54 3.208 6.47 7.1.024.047.074.07.146.07.864 0 4.91-3.183 4.255-4.663" mask="url(#b)"/>
        </g>
        <path fill="#C65D2F" fill-rule="nonzero" d="M23.37 59.136c1.989-2.076 3.994-2.81 6.016-2.204-.946 1.893-2.951 2.628-6.015 2.204z"/>
        <g>
            <path fill="#E8723E" d="M60.924 35.648c-.492 1.305-1.31 2.4-2.5 3.347-1.16.923-2.482 1.907-4.304 2.909 2.242-1.847 4.42-3.998 4.916-5.362l.04-.005c.037-.075.076-.149.11-.228.212-.509.436-1.128.809-1.575.542-.808 1.601-1.534 2.3-.464.073.111.058.214 0 .291a1.472 1.472 0 0 0-.569.157c-.366.187-.643.508-.802.93"/>
            <path fill="#E8723E" d="M51.844 43.035c.442-.572.908-1.229 1.184-1.48-.017-.023 1.76-2.19 2.944-2.415a.303.303 0 0 1 .144.011c1.266-2.196 1.493-2.418 2.256-2.663a.39.39 0 0 1 .16-.007c-.614 1.486-3.673 4.352-6.658 6.542l-.03.012"/>
            <g transform="scale(-1 1) rotate(27 -100.905 -112.537)">
                <mask id="d" fill="#fff">
                    <use xlink:href="#c"/>
                </mask>
                <path fill="#E8723E" d="M28.985 11.446c-2.97-6.707-1.855-7.65-7.724-9.129-.778-.196-6.01-1.936-6.898-2.12a3.425 3.425 0 0 0-.695-.073c-1.562 0-2.451 1.146-1.007 1.705 1.513.586 1.644.866 2.653 1.128.443.114 2.228.403 3.042.847-2.613.389-4.719.543-6.522.543-2.456 0-4.35-.287-6.192-.662-1.47-.3-2.801-.89-3.982-1.967a1.192 1.192 0 0 0-.804-.334c-.709 0-1.227.73-.517 1.377.172.157.617.594.685.668 3.67 3.948 8.478 4.477 15.107 5.405.165.023 1.4.112 1.841.112.07 0 .12-.002.142-.007 2.994.93 4.54 3.208 6.47 7.1.024.047.074.07.146.07.864 0 4.91-3.183 4.255-4.663" mask="url(#d)"/>
            </g>
            <path fill="#C65D2F" fill-rule="nonzero" d="M41.45 56.932c1.989 2.076 3.994 2.81 6.016 2.204-.946-1.893-2.951-2.628-6.015-2.204z"/>
        </g>
        <g transform="translate(18.49 14.532)">
            <mask id="f" fill="#fff">
                <use xlink:href="#e"/>
            </mask>
            <path fill="#E8723E" d="M30.72 0v17.079c-1.355.73-3.374.666-5.506.598-2.63-.085-5.574-.176-7.743 1.302V4.797c1.66-1.783 4.37-2.244 6.769-2.649.99-.167 1.923-.324 2.72-.563C28.753 1.047 30.02.408 30.72 0zM16.659 4.797v14.195c-2.11-1.44-4.798-1.614-7.345-1.614-.413 0-.823.004-1.226.008-1.798.022-3.502.04-4.678-.387V0c.702.408 1.967 1.047 3.76 1.585.797.239 1.731.397 2.72.563 2.4.405 5.11.866 6.769 2.649zM7.436 19.194c3.094-.154 6.292-.313 9.637 1.778 3.347-2.091 6.542-1.932 9.631-1.778 1.736.087 3.935-.373 5.734-.694V2.698c-.173.04-.75.478-.904.5V17.53s-.132.094-.191.131c-1.563.978-3.793.907-6.155.833-2.896-.092-5.888-.187-7.847 1.628-.078.072-.272.243-.272.243l-.272-.235c-2.276-1.998-5.69-1.96-8.701-1.927-2.016.024-3.921.045-5.26-.555-.072-.032-.242-.12-.242-.12l.001-.253V3.198c-.151-.022-.725-.46-.896-.498v16.067c1.8.32 4 .513 5.737.427zM33.252 5.132c.15-.023.72-.46.886-.499v15.654c-3.417 1.633-13.183-.875-17.073 2.353-3.9-3.233-13.959-.958-17.065-2.25V4.634c.167.038.737.475.887.497V19.431s.226.054.324.074c2.009.415 4.372.599 6.266.504 3.17-.157 6.168-.306 9.375 1.79l.217.142.227-.143c3.206-2.096 6.201-1.946 9.368-1.79 1.892.096 4.255-.089 6.263-.503l.323-.068.002-.332V5.132z" mask="url(#f)"/>
        </g>
        <g fill-rule="nonzero" stroke="#FFF" stroke-linecap="round" stroke-width=".5">
            <path d="M19.648 19.114l-1.62-1.046v17.598c2.346.396 5.062.465 8.146.21 1.923-.16 5.264.036 6.933.693 1.113.438 1.934 1.005 2.465 1.7M51.57 19.114l1.62-1.046v17.598c-2.346.396-5.062.465-8.146.21-1.923-.16-5.265.036-6.933.693-1.113.438-1.934 1.005-2.465 1.7"/>
            <path d="M21.5 17.2l-1.666-1.152v17.476c1.148.57 3.562.741 7.24.512 3.677-.229 6.535.459 8.572 2.064M49.762 17.325l1.667-1.151v17.35c-1.149.57-3.562.741-7.24.512-3.678-.229-6.525.455-8.543 2.053"/>
            <g>
                <path d="M35.669 18.825l.004 15.44M35.693 34.283c-1.23-.724-2.211-1.205-2.945-1.443-1.864-.606-3.486-.606-5.92-.505-2.99.123-4.739-.087-5.243-.631M21.621 31.704V13.649c2.085 1.412 4.607 2.273 7.567 2.582 2.96.309 5.11 1.165 6.45 2.568M35.683 34.277a7.694 7.694 0 0 1 3.083-1.437c2.43-.537 3.392-.34 5.825-.24 2.992.124 4.717-.175 5.176-.896M49.763 31.704V13.649c-2.084 1.412-4.607 2.273-7.566 2.582-2.96.309-5.103 1.165-6.43 2.568"/>
            </g>
        </g>
    </g>
</svg>
