<svg width="10" height="10" viewBox="0 0 10 10" fill="none" xmlns="http://www.w3.org/2000/svg">
<path d="M9.73214 3.125H0.267857C0.120536 3.125 0 3.01953 0 2.89062V2.1875C0 1.66992 0.479911 1.25 1.07143 1.25H2.14286V0.234375C2.14286 0.105469 2.26339 0 2.41071 0H3.30357C3.45089 0 3.57143 0.105469 3.57143 0.234375V1.25H6.42857V0.234375C6.42857 0.105469 6.54911 0 6.69643 0H7.58929C7.73661 0 7.85714 0.105469 7.85714 0.234375V1.25H8.92857C9.52009 1.25 10 1.66992 10 2.1875V2.89062C10 3.01953 9.87946 3.125 9.73214 3.125ZM0.267857 3.75H9.73214C9.87946 3.75 10 3.85547 10 3.98438V9.0625C10 9.58008 9.52009 10 8.92857 10H1.07143C0.479911 10 0 9.58008 0 9.0625V3.98438C0 3.85547 0.120536 3.75 0.267857 3.75ZM7.32143 6.48438C7.32143 6.35547 7.20089 6.25 7.05357 6.25H5.71429V5.07812C5.71429 4.94922 5.59375 4.84375 5.44643 4.84375H4.55357C4.40625 4.84375 4.28571 4.94922 4.28571 5.07812V6.25H2.94643C2.79911 6.25 2.67857 6.35547 2.67857 6.48438V7.26562C2.67857 7.39453 2.79911 7.5 2.94643 7.5H4.28571V8.67188C4.28571 8.80078 4.40625 8.90625 4.55357 8.90625H5.44643C5.59375 8.90625 5.71429 8.80078 5.71429 8.67188V7.5H7.05357C7.20089 7.5 7.32143 7.39453 7.32143 7.26562V6.48438Z" fill="#432CB4"/>
</svg>
