<svg width="11" height="11" viewBox="0 0 11 11" fill="currentColor" xmlns="http://www.w3.org/2000/svg">
<path clip-rule="evenodd" d="M1.47637 1.3097C1.79206 0.994016 2.22022 0.816666 2.66667 0.816666H5.08334C5.35948 0.816666 5.58334 1.04052 5.58334 1.31667V2.01667C5.58334 2.29281 5.35948 2.51667 5.08334 2.51667H3.18334C2.9072 2.51667 2.68334 2.74052 2.68334 3.01667V7.81667C2.68334 8.09281 2.90719 8.31667 3.18334 8.31667H7.98334C8.25948 8.31667 8.48334 8.09281 8.48334 7.81667V5.91667C8.48334 5.64052 8.70719 5.41667 8.98334 5.41667H9.68334C9.95948 5.41667 10.1833 5.64052 10.1833 5.91667V8.33333C10.1833 8.77978 10.006 9.20794 9.6903 9.52363C9.37461 9.83931 8.94645 10.0167 8.5 10.0167H2.66667C2.22022 10.0167 1.79206 9.83931 1.47637 9.52363C1.16069 9.20794 0.983337 8.77978 0.983337 8.33333V2.5C0.983337 2.05355 1.16069 1.62539 1.47637 1.3097Z" fill="currentColor"/>
<path d="M6.12129 6.36396L4.50005 6.5L4.70708 4.94975L9.4447 0.21213C9.56185 0.0949723 9.7518 0.0949723 9.86896 0.21213L10.8589 1.20208C10.9761 1.31924 10.9761 1.50919 10.8589 1.62634L6.12129 6.36396Z" fill="currentColor"/>
</svg>
