<svg width="25" height="19" viewBox="0 0 25 19" fill="none" xmlns="http://www.w3.org/2000/svg">
<path d="M23.87 1.72001V12.63C23.87 12.7865 23.8078 12.9366 23.6972 13.0472C23.6177 13.1267 23.5179 13.1811 23.41 13.2055V3.54C23.41 3.11831 23.2425 2.71389 22.9443 2.41571C22.6461 2.11752 22.2417 1.95 21.82 1.95H3.04999V1.72001C3.04999 1.56353 3.11215 1.41346 3.22279 1.30281C3.33344 1.19217 3.48351 1.13 3.63999 1.13H23.28C23.4365 1.13 23.5865 1.19217 23.6972 1.30281C23.8078 1.41346 23.87 1.56353 23.87 1.72001Z" fill="#432CB4" stroke="#432CB4"/>
<path d="M22.91 3.54001V14.45C22.91 14.7391 22.7952 15.0163 22.5907 15.2208C22.3863 15.4252 22.1091 15.54 21.82 15.54H8.94L4 18.45L4.73 15.54H2.18C1.89091 15.54 1.61366 15.4252 1.40925 15.2208C1.20484 15.0163 1.09 14.7391 1.09 14.45V3.54001C1.09 3.25093 1.20484 2.97368 1.40925 2.76927C1.61366 2.56485 1.89091 2.45001 2.18 2.45001H21.82C22.1091 2.45001 22.3863 2.56485 22.5907 2.76927C22.7952 2.97368 22.91 3.25093 22.91 3.54001Z" stroke="#432CB4" stroke-width="0.5" stroke-miterlimit="10"/>
<path d="M4.72998 7H19.27" stroke="#432CB4" stroke-width="0.75" stroke-linecap="round" stroke-linejoin="round"/>
<path d="M7.44998 11H16.55" stroke="#432CB4" stroke-width="0.75" stroke-linecap="round" stroke-linejoin="round"/>
</svg>
