<svg width="28" height="26" viewBox="0 0 28 26" fill="none" xmlns="http://www.w3.org/2000/svg">
<path d="M1.45002 2.90001H3.16002V4.40001H3.15997L3.16007 4.40706C3.16455 4.72501 3.294 5.02841 3.52044 5.25166C3.74686 5.47489 4.05206 5.60003 4.37002 5.60001C4.37004 5.60001 4.37005 5.60001 4.37007 5.60001H6.00002C6.32093 5.60001 6.6287 5.47253 6.85562 5.24561C7.08254 5.0187 7.21002 4.71093 7.21002 4.39001V2.89001H16.98V4.38997C16.98 4.38998 16.98 4.39 16.98 4.39001C16.98 4.70798 17.1051 5.01317 17.3284 5.23959C17.5516 5.46603 17.855 5.59549 18.173 5.59997L18.173 5.60001H18.18H19.82C19.82 5.60001 19.82 5.60001 19.82 5.60001C19.979 5.60002 20.1365 5.56843 20.2832 5.50706C20.4299 5.44568 20.563 5.35575 20.6746 5.2425C20.7863 5.12925 20.8743 4.99493 20.9336 4.84736C20.9924 4.70105 21.0217 4.5446 21.02 4.38697V2.89001H22.7381C22.983 2.89214 23.2173 2.99083 23.3899 3.16468C23.5629 3.33891 23.66 3.57447 23.66 3.82001V6.60754C23.5096 6.54379 23.3466 6.51001 23.18 6.51001H1.00002C0.833485 6.51001 0.670433 6.54379 0.52002 6.60754V3.82195C0.522143 3.57699 0.620833 3.34274 0.794687 3.1701C0.96891 2.9971 1.20448 2.90001 1.45001 2.90001H1.45002Z" fill="white" stroke="white"/>
<mask id="path-2-inside-1" fill="white">
<path d="M23.18 6.76001H1C0.734784 6.76001 0.48043 6.86537 0.292893 7.0529C0.105357 7.24044 0 7.49479 0 7.76001V20.47C0 20.7352 0.105357 20.9896 0.292893 21.1771C0.48043 21.3647 0.734784 21.47 1 21.47H19.28C19.275 21.3901 19.275 21.3099 19.28 21.23C19.2748 21.1434 19.2748 21.0566 19.28 20.97H0.99C0.925671 20.9701 0.862 20.9571 0.802929 20.9316C0.743859 20.9061 0.690646 20.8688 0.646586 20.8219C0.602527 20.775 0.568558 20.7196 0.546784 20.6591C0.52501 20.5986 0.515894 20.5342 0.52 20.47V7.74001C0.522556 7.61351 0.573948 7.4929 0.663418 7.40343C0.752887 7.31396 0.873497 7.26257 1 7.26001H23.18C23.3073 7.26001 23.4294 7.31058 23.5194 7.4006C23.6094 7.49062 23.66 7.61271 23.66 7.74001V16.57H24.16V7.74001C24.1549 7.4817 24.05 7.2354 23.8673 7.05271C23.6846 6.87002 23.4383 6.76513 23.18 6.76001Z"/>
</mask>
<path d="M23.18 6.76001H1C0.734784 6.76001 0.48043 6.86537 0.292893 7.0529C0.105357 7.24044 0 7.49479 0 7.76001V20.47C0 20.7352 0.105357 20.9896 0.292893 21.1771C0.48043 21.3647 0.734784 21.47 1 21.47H19.28C19.275 21.3901 19.275 21.3099 19.28 21.23C19.2748 21.1434 19.2748 21.0566 19.28 20.97H0.99C0.925671 20.9701 0.862 20.9571 0.802929 20.9316C0.743859 20.9061 0.690646 20.8688 0.646586 20.8219C0.602527 20.775 0.568558 20.7196 0.546784 20.6591C0.52501 20.5986 0.515894 20.5342 0.52 20.47V7.74001C0.522556 7.61351 0.573948 7.4929 0.663418 7.40343C0.752887 7.31396 0.873497 7.26257 1 7.26001H23.18C23.3073 7.26001 23.4294 7.31058 23.5194 7.4006C23.6094 7.49062 23.66 7.61271 23.66 7.74001V16.57H24.16V7.74001C24.1549 7.4817 24.05 7.2354 23.8673 7.05271C23.6846 6.87002 23.4383 6.76513 23.18 6.76001Z" fill="white"/>
<path d="M23.18 6.76001L23.1998 5.76021L23.1899 5.76001H23.18V6.76001ZM0 7.76001H-1H0ZM0 20.47H-1H0ZM19.28 21.47V22.47H20.3442L20.2781 21.4078L19.28 21.47ZM19.28 21.23L20.2781 21.2922L20.2819 21.2311L20.2782 21.1701L19.28 21.23ZM19.28 20.97L20.2782 21.0299L20.3418 19.97H19.28V20.97ZM0.99 20.97L0.99 19.97L0.98796 19.97L0.99 20.97ZM0.52 20.47L1.51796 20.5338L1.52 20.502V20.47H0.52ZM0.52 7.74001L-0.479796 7.71981L-0.48 7.72991V7.74001H0.52ZM1 7.26001V6.26001H0.989897L0.979796 6.26021L1 7.26001ZM23.66 7.74001L24.66 7.74001L23.66 7.74001ZM23.66 16.57H22.66V17.57H23.66V16.57ZM24.16 16.57V17.57H25.16V16.57H24.16ZM24.16 7.74001H25.16V7.73011L25.1598 7.72021L24.16 7.74001ZM23.18 5.76001H1V7.76001H23.18V5.76001ZM1 5.76001C0.469567 5.76001 -0.0391412 5.97072 -0.414214 6.3458L1 7.76001L1 7.76001V5.76001ZM-0.414214 6.3458C-0.789286 6.72087 -1 7.22958 -1 7.76001L1 7.76001L1 7.76001L-0.414214 6.3458ZM-1 7.76001V20.47H1V7.76001H-1ZM-1 20.47C-1 21.0004 -0.789287 21.5092 -0.414214 21.8842L1 20.47L1 20.47H-1ZM-0.414214 21.8842C-0.0391394 22.2593 0.469569 22.47 1 22.47V20.47L1 20.47L-0.414214 21.8842ZM1 22.47H19.28V20.47H1V22.47ZM20.2781 21.4078C20.2757 21.3693 20.2757 21.3307 20.2781 21.2922L18.2819 21.1678C18.2744 21.2892 18.2744 21.4109 18.2819 21.5322L20.2781 21.4078ZM20.2782 21.1701C20.2754 21.1234 20.2754 21.0766 20.2782 21.0299L18.2818 20.9101C18.2742 21.0366 18.2742 21.1634 18.2818 21.2899L20.2782 21.1701ZM19.28 19.97H0.99V21.97H19.28V19.97ZM0.98796 19.97C1.0605 19.9699 1.1323 19.9846 1.19891 20.0133L0.406946 21.8498C0.591699 21.9295 0.790841 21.9704 0.992039 21.97L0.98796 19.97ZM1.19891 20.0133C1.26553 20.0421 1.32554 20.0842 1.37521 20.137L-0.0820412 21.5068C0.0557556 21.6534 0.222184 21.7702 0.406946 21.8498L1.19891 20.0133ZM1.37521 20.137C1.42489 20.1899 1.4632 20.2524 1.48776 20.3206L-0.394189 20.9976C-0.326085 21.1869 -0.219841 21.3602 -0.0820412 21.5068L1.37521 20.137ZM1.48776 20.3206C1.51231 20.3889 1.52259 20.4615 1.51796 20.5338L-0.477961 20.4062C-0.490804 20.607 -0.462292 20.8083 -0.394189 20.9976L1.48776 20.3206ZM1.52 20.47V7.74001H-0.48V20.47H1.52ZM1.5198 7.76021C1.51714 7.89188 1.46365 8.01741 1.37052 8.11053L-0.0436892 6.69632C-0.31575 6.96838 -0.472022 7.33514 -0.479796 7.71981L1.5198 7.76021ZM1.37052 8.11053C1.2774 8.20366 1.15187 8.25714 1.0202 8.25981L0.979796 6.26021C0.595126 6.26799 0.228372 6.42426 -0.0436892 6.69632L1.37052 8.11053ZM1 8.26001H23.18V6.26001H1V8.26001ZM23.18 8.26001C23.0421 8.26001 22.9098 8.20523 22.8123 8.10771L24.2265 6.69349C23.949 6.41594 23.5725 6.26001 23.18 6.26001V8.26001ZM22.8123 8.10771C22.7148 8.01018 22.66 7.87791 22.66 7.74001L24.66 7.74001C24.66 7.3475 24.5041 6.97105 24.2265 6.69349L22.8123 8.10771ZM22.66 7.74001V16.57H24.66V7.74001H22.66ZM23.66 17.57H24.16V15.57H23.66V17.57ZM25.16 16.57V7.74001H23.16V16.57H25.16ZM25.1598 7.72021C25.1496 7.20359 24.9398 6.71098 24.5744 6.3456L23.1602 7.75981L23.1602 7.75981L25.1598 7.72021ZM24.5744 6.3456C24.209 5.98022 23.7164 5.77044 23.1998 5.76021L23.1602 7.75981L23.1602 7.75981L24.5744 6.3456Z" fill="white" mask="url(#path-2-inside-1)"/>
<path d="M2.95996 10.97V8.94H5.95996V10.97H2.95996Z" fill="white" stroke="white"/>
<path d="M8.05005 10.97V8.94H11.05V10.97H8.05005Z" fill="white" stroke="white"/>
<path d="M13.22 10.97V8.94H16.22V10.97H13.22Z" fill="white" stroke="white"/>
<path d="M18.23 10.97V8.94H21.23V10.97H18.23Z" fill="white" stroke="white"/>
<path d="M6.09996 12.56H2.81996C2.62114 12.56 2.45996 12.7212 2.45996 12.92V15.23C2.45996 15.4288 2.62114 15.59 2.81996 15.59H6.09996C6.29878 15.59 6.45996 15.4288 6.45996 15.23V12.92C6.45996 12.7212 6.29878 12.56 6.09996 12.56Z" fill="white"/>
<path d="M8.05005 15.09V13.06H11.05V15.09H8.05005Z" fill="white" stroke="white"/>
<path d="M13.22 15.09V13.06H16.22V15.09H13.22Z" fill="white" stroke="white"/>
<path d="M18.23 15.09V13.06H21.23V15.09H18.23Z" fill="white" stroke="white"/>
<path d="M2.95996 19.21V17.18H5.95996V19.21H2.95996Z" fill="white" stroke="white"/>
<path d="M8.05005 19.21V17.18H11.05V19.21H8.05005Z" fill="white" stroke="white"/>
<path d="M13.22 19.21V17.18H16.22V19.21H13.22Z" fill="white" stroke="white"/>
<path d="M18.23 17.18H20.7163C20.0432 17.715 19.5122 18.4123 19.1757 19.21H18.23V17.18Z" fill="white" stroke="white"/>
<path d="M4.65991 0.5H5.70991V4.1H4.65991V0.5Z" fill="white" stroke="white"/>
<path d="M18.48 4.1V0.5L19.52 4.1H18.48ZM18.48 0.209433C18.48 0.209622 18.48 0.209811 18.48 0.21L18.48 0.209433Z" fill="white" stroke="white"/>
<mask id="path-18-inside-2" fill="white">
<path d="M23.92 25.08C23.1498 25.082 22.3963 24.8552 21.7551 24.4286C21.1138 24.0019 20.6137 23.3945 20.318 22.6832C20.0224 21.972 19.9445 21.1891 20.0943 20.4335C20.2441 19.678 20.6147 18.984 21.1594 18.4393C21.704 17.8947 22.3981 17.524 23.1536 17.3742C23.9091 17.2245 24.6921 17.3023 25.4033 17.598C26.1145 17.8937 26.7219 18.3938 27.1486 19.0351C27.5753 19.6763 27.802 20.4298 27.8 21.2C27.7974 22.2282 27.3877 23.2136 26.6607 23.9406C25.9336 24.6677 24.9482 25.0773 23.92 25.08V25.08ZM23.92 17.81C23.2491 17.808 22.5927 18.0051 22.0339 18.3764C21.4751 18.7477 21.0391 19.2765 20.7809 19.8957C20.5228 20.515 20.4543 21.1969 20.5839 21.8552C20.7136 22.5134 21.0357 23.1184 21.5094 23.5935C21.9831 24.0686 22.5871 24.3925 23.245 24.5241C23.9028 24.6557 24.585 24.5892 25.205 24.3329C25.825 24.0766 26.355 23.6421 26.728 23.0844C27.1009 22.5267 27.3 21.8709 27.3 21.2C27.3 20.3026 26.9442 19.4419 26.3106 18.8064C25.6771 18.171 24.8174 17.8126 23.92 17.81V17.81Z"/>
</mask>
<path d="M23.92 25.08C23.1498 25.082 22.3963 24.8552 21.7551 24.4286C21.1138 24.0019 20.6137 23.3945 20.318 22.6832C20.0224 21.972 19.9445 21.1891 20.0943 20.4335C20.2441 19.678 20.6147 18.984 21.1594 18.4393C21.704 17.8947 22.3981 17.524 23.1536 17.3742C23.9091 17.2245 24.6921 17.3023 25.4033 17.598C26.1145 17.8937 26.7219 18.3938 27.1486 19.0351C27.5753 19.6763 27.802 20.4298 27.8 21.2C27.7974 22.2282 27.3877 23.2136 26.6607 23.9406C25.9336 24.6677 24.9482 25.0773 23.92 25.08V25.08ZM23.92 17.81C23.2491 17.808 22.5927 18.0051 22.0339 18.3764C21.4751 18.7477 21.0391 19.2765 20.7809 19.8957C20.5228 20.515 20.4543 21.1969 20.5839 21.8552C20.7136 22.5134 21.0357 23.1184 21.5094 23.5935C21.9831 24.0686 22.5871 24.3925 23.245 24.5241C23.9028 24.6557 24.585 24.5892 25.205 24.3329C25.825 24.0766 26.355 23.6421 26.728 23.0844C27.1009 22.5267 27.3 21.8709 27.3 21.2C27.3 20.3026 26.9442 19.4419 26.3106 18.8064C25.6771 18.171 24.8174 17.8126 23.92 17.81V17.81Z" fill="white"/>
<path d="M27.8 21.2L26.8 21.1974L27.8 21.2ZM27.3 21.2L28.3 21.2L27.3 21.2ZM23.9174 24.08C23.3452 24.0814 22.7854 23.913 22.3091 23.596L21.2011 25.2611C22.0072 25.7975 22.9544 26.0825 23.9226 26.08L23.9174 24.08ZM22.3091 23.596C21.8327 23.279 21.4611 22.8278 21.2414 22.2994L19.3947 23.0671C19.7663 23.9612 20.395 24.7247 21.2011 25.2611L22.3091 23.596ZM21.2414 22.2994C21.0218 21.771 20.9639 21.1893 21.0752 20.628L19.1134 20.2391C18.9251 21.1888 19.023 22.1731 19.3947 23.0671L21.2414 22.2994ZM21.0752 20.628C21.1865 20.0667 21.4619 19.5511 21.8665 19.1465L20.4523 17.7322C19.7676 18.4169 19.3017 19.2893 19.1134 20.2391L21.0752 20.628ZM21.8665 19.1465C22.2711 18.7418 22.7867 18.4664 23.348 18.3552L22.9591 16.3933C22.0094 16.5816 21.1369 17.0476 20.4523 17.7322L21.8665 19.1465ZM23.348 18.3552C23.9093 18.2439 24.491 18.3017 25.0194 18.5214L25.7871 16.6746C24.8931 16.303 23.9088 16.2051 22.9591 16.3933L23.348 18.3552ZM25.0194 18.5214C25.5478 18.7411 25.9991 19.1126 26.3161 19.589L27.9811 18.4811C27.4448 17.675 26.6812 17.0463 25.7871 16.6746L25.0194 18.5214ZM26.3161 19.589C26.633 20.0654 26.8015 20.6252 26.8 21.1974L28.8 21.2025C28.8025 20.2343 28.5175 19.2872 27.9811 18.4811L26.3161 19.589ZM26.8 21.1974C26.7981 21.9613 26.4937 22.6934 25.9536 23.2335L27.3678 24.6477C28.2818 23.7338 28.7967 22.4951 28.8 21.2025L26.8 21.1974ZM25.9536 23.2335C25.4134 23.7737 24.6813 24.078 23.9174 24.08L23.9226 26.08C25.2151 26.0767 26.4538 25.5617 27.3678 24.6477L25.9536 23.2335ZM23.923 16.81C23.0542 16.8074 22.2041 17.0627 21.4805 17.5435L22.5873 19.2093C22.9813 18.9476 23.4441 18.8086 23.9171 18.81L23.923 16.81ZM21.4805 17.5435C20.7569 18.0243 20.1922 18.7091 19.8579 19.511L21.704 20.2805C21.8859 19.8439 22.1934 19.4711 22.5873 19.2093L21.4805 17.5435ZM19.8579 19.511C19.5236 20.3129 19.4349 21.196 19.6028 22.0485L21.5651 21.6619C21.4737 21.1978 21.522 20.7171 21.704 20.2805L19.8579 19.511ZM19.6028 22.0485C19.7707 22.9009 20.1878 23.6843 20.8012 24.2996L22.2175 22.8874C21.8836 22.5525 21.6565 22.126 21.5651 21.6619L19.6028 22.0485ZM20.8012 24.2996C21.4147 24.9148 22.1969 25.3342 23.0488 25.5047L23.4411 23.5435C22.9773 23.4507 22.5515 23.2224 22.2175 22.8874L20.8012 24.2996ZM23.0488 25.5047C23.9007 25.6751 24.7841 25.5889 25.587 25.257L24.823 23.4087C24.3859 23.5894 23.905 23.6363 23.4411 23.5435L23.0488 25.5047ZM25.587 25.257C26.3899 24.9252 27.0763 24.3625 27.5593 23.6403L25.8967 22.5285C25.6338 22.9217 25.2601 23.228 24.823 23.4087L25.587 25.257ZM27.5593 23.6403C28.0422 22.9181 28.3 22.0688 28.3 21.2L26.3 21.2C26.3 21.673 26.1597 22.1353 25.8967 22.5285L27.5593 23.6403ZM28.3 21.2C28.3 20.0379 27.8393 18.9233 27.0188 18.1004L25.6025 19.5125C26.0492 19.9605 26.3 20.5673 26.3 21.2L28.3 21.2ZM27.0188 18.1004C26.1983 17.2774 25.085 16.8134 23.923 16.81L23.9171 18.81C24.5497 18.8118 25.1558 19.0645 25.6025 19.5125L27.0188 18.1004Z" fill="white" mask="url(#path-18-inside-2)"/>
<path d="M25.8099 21.47H23.9399C23.9059 21.47 23.8726 21.4631 23.842 21.45H23.9399H24.1899H25.8099C25.7436 21.45 25.6801 21.4237 25.6332 21.3768C25.5958 21.3394 25.5715 21.2914 25.5631 21.2399C25.5621 21.2333 25.5613 21.2267 25.5607 21.22C25.5607 21.2133 25.561 21.2066 25.5615 21.2C25.5632 21.179 25.5676 21.1582 25.5745 21.1382C25.5858 21.1055 25.6038 21.0755 25.6273 21.0501C25.6508 21.0248 25.6793 21.0045 25.711 20.9907C25.7422 20.9772 25.7759 20.9701 25.8099 20.97V21.47ZM25.8099 21.47C25.8445 21.4701 25.8788 21.463 25.9105 21.4492M25.8099 21.47L25.9105 21.4492M26.047 21.3018C26.0583 21.2691 26.0627 21.2345 26.0599 21.2L26.047 21.3018ZM26.047 21.3018C26.0357 21.3345 26.0177 21.3645 25.9942 21.3898M26.047 21.3018L25.9942 21.3898M25.9942 21.3898C25.9707 21.4152 25.9422 21.4354 25.9105 21.4492M25.9942 21.3898L25.9105 21.4492" fill="white" stroke="white"/>
</svg>
