<svg width="29" height="26" viewBox="0 0 29 26" fill="none" xmlns="http://www.w3.org/2000/svg">
<path d="M2.08001 3.43004H3.79001V4.93004H3.78996L3.79006 4.93709C3.79454 5.25504 3.92399 5.55844 4.15043 5.78169C4.37685 6.00492 4.68204 6.13006 5.00001 6.13004C5.00003 6.13004 5.00004 6.13004 5.00006 6.13004H6.63001C6.95092 6.13004 7.25869 6.00256 7.48561 5.77564C7.71253 5.54872 7.84001 5.24096 7.84001 4.92004V3.42004H17.61V4.91999C17.61 4.92001 17.61 4.92003 17.61 4.92004C17.61 5.23801 17.7351 5.5432 17.9584 5.76962C18.1816 5.99606 18.485 6.12552 18.803 6.12999V6.13004H18.81H20.45C20.45 6.13004 20.45 6.13004 20.45 6.13004C20.609 6.13005 20.7665 6.09845 20.9132 6.03709C21.0599 5.97571 21.1929 5.88578 21.3046 5.77253C21.4163 5.65928 21.5043 5.52496 21.5636 5.37739C21.6224 5.23108 21.6517 5.07463 21.65 4.91699V3.42004H23.3681C23.613 3.42217 23.8473 3.52086 24.0199 3.69471C24.1929 3.86894 24.29 4.1045 24.29 4.35003V7.13757C24.1396 7.07382 23.9765 7.04004 23.81 7.04004H1.63001C1.46347 7.04004 1.30042 7.07382 1.15001 7.13757V4.35198C1.15213 4.10702 1.25082 3.87277 1.42468 3.70013C1.5989 3.52713 1.83447 3.43004 2.08 3.43004H2.08001Z" fill="#432CB4" stroke="#432CB4"/>
<mask id="path-2-inside-1" fill="white">
<path d="M23.81 7.29004H1.63C1.36479 7.29004 1.11043 7.3954 0.922898 7.58293C0.735362 7.77047 0.630005 8.02482 0.630005 8.29004V21C0.630005 21.2653 0.735362 21.5196 0.922898 21.7071C1.11043 21.8947 1.36479 22 1.63 22H19.91C19.905 21.9201 19.905 21.84 19.91 21.76C19.9048 21.6735 19.9048 21.5866 19.91 21.5H1.62C1.55568 21.5002 1.492 21.4871 1.43293 21.4616C1.37386 21.4361 1.32065 21.3988 1.27659 21.3519C1.23253 21.3051 1.19856 21.2497 1.17679 21.1891C1.15501 21.1286 1.1459 21.0642 1.15 21V8.27004C1.15256 8.14354 1.20395 8.02293 1.29342 7.93346C1.38289 7.84399 1.5035 7.7926 1.63 7.79004H23.81C23.9373 7.79004 24.0594 7.84061 24.1494 7.93063C24.2394 8.02065 24.29 8.14274 24.29 8.27004V17.1H24.79V8.27004C24.7849 8.01173 24.68 7.76542 24.4973 7.58274C24.3146 7.40005 24.0683 7.29516 23.81 7.29004Z"/>
</mask>
<path d="M23.81 7.29004H1.63C1.36479 7.29004 1.11043 7.3954 0.922898 7.58293C0.735362 7.77047 0.630005 8.02482 0.630005 8.29004V21C0.630005 21.2653 0.735362 21.5196 0.922898 21.7071C1.11043 21.8947 1.36479 22 1.63 22H19.91C19.905 21.9201 19.905 21.84 19.91 21.76C19.9048 21.6735 19.9048 21.5866 19.91 21.5H1.62C1.55568 21.5002 1.492 21.4871 1.43293 21.4616C1.37386 21.4361 1.32065 21.3988 1.27659 21.3519C1.23253 21.3051 1.19856 21.2497 1.17679 21.1891C1.15501 21.1286 1.1459 21.0642 1.15 21V8.27004C1.15256 8.14354 1.20395 8.02293 1.29342 7.93346C1.38289 7.84399 1.5035 7.7926 1.63 7.79004H23.81C23.9373 7.79004 24.0594 7.84061 24.1494 7.93063C24.2394 8.02065 24.29 8.14274 24.29 8.27004V17.1H24.79V8.27004C24.7849 8.01173 24.68 7.76542 24.4973 7.58274C24.3146 7.40005 24.0683 7.29516 23.81 7.29004Z" fill="#432CB4"/>
<path d="M23.81 7.29004L23.8298 6.29024L23.8199 6.29004H23.81V7.29004ZM0.630005 8.29004H-0.369995H0.630005ZM0.630005 21H-0.369995H0.630005ZM19.91 22V23H20.9742L20.9081 21.9379L19.91 22ZM19.91 21.76L20.9081 21.8222L20.9119 21.7612L20.9082 21.7001L19.91 21.76ZM19.91 21.5L20.9082 21.5599L20.9718 20.5H19.91V21.5ZM1.62 21.5V20.5L1.61797 20.5L1.62 21.5ZM1.15 21L2.14797 21.0639L2.15 21.032V21H1.15ZM1.15 8.27004L0.150209 8.24984L0.150005 8.25994V8.27004H1.15ZM1.63 7.79004V6.79004H1.6199L1.6098 6.79024L1.63 7.79004ZM24.29 8.27004H25.29H24.29ZM24.29 17.1H23.29V18.1H24.29V17.1ZM24.79 17.1V18.1H25.79V17.1H24.79ZM24.79 8.27004H25.79V8.26014L25.7898 8.25024L24.79 8.27004ZM23.81 6.29004H1.63V8.29004H23.81V6.29004ZM1.63 6.29004C1.09957 6.29004 0.590864 6.50075 0.215791 6.87583L1.63 8.29004L1.63 8.29004V6.29004ZM0.215791 6.87583C-0.159281 7.2509 -0.369995 7.75961 -0.369995 8.29004H1.63L1.63 8.29004L0.215791 6.87583ZM-0.369995 8.29004V21H1.63V8.29004H-0.369995ZM-0.369995 21C-0.369995 21.5305 -0.159282 22.0392 0.215791 22.4143L1.63 21L1.63 21H-0.369995ZM0.215791 22.4143C0.590865 22.7893 1.09957 23 1.63 23V21L1.63 21L0.215791 22.4143ZM1.63 23H19.91V21H1.63V23ZM20.9081 21.9379C20.9057 21.8994 20.9057 21.8607 20.9081 21.8222L18.9119 21.6979C18.9044 21.8192 18.9044 21.9409 18.9119 22.0622L20.9081 21.9379ZM20.9082 21.7001C20.9054 21.6534 20.9054 21.6066 20.9082 21.5599L18.9118 21.4401C18.9042 21.5666 18.9042 21.6935 18.9118 21.8199L20.9082 21.7001ZM19.91 20.5H1.62V22.5H19.91V20.5ZM1.61797 20.5C1.69051 20.4999 1.76231 20.5146 1.82892 20.5434L1.03695 22.3799C1.2217 22.4596 1.42085 22.5004 1.62204 22.5L1.61797 20.5ZM1.82892 20.5434C1.89554 20.5721 1.95554 20.6142 2.00522 20.667L0.547964 22.0369C0.68576 22.1834 0.852189 22.3002 1.03695 22.3799L1.82892 20.5434ZM2.00522 20.667C2.0549 20.7199 2.09321 20.7824 2.11776 20.8506L0.235816 21.5276C0.30392 21.7169 0.410164 21.8903 0.547964 22.0369L2.00522 20.667ZM2.11776 20.8506C2.14232 20.9189 2.1526 20.9915 2.14797 21.0639L0.152044 20.9362C0.139201 21.137 0.167713 21.3383 0.235816 21.5276L2.11776 20.8506ZM2.15 21V8.27004H0.150005V21H2.15ZM2.1498 8.29024C2.14714 8.42191 2.09365 8.54744 2.00053 8.64056L0.586316 7.22635C0.314254 7.49841 0.157982 7.86517 0.150209 8.24984L2.1498 8.29024ZM2.00053 8.64056C1.90741 8.73369 1.78187 8.78717 1.65021 8.78983L1.6098 6.79024C1.22513 6.79802 0.858377 6.95429 0.586316 7.22635L2.00053 8.64056ZM1.63 8.79004H23.81V6.79004H1.63V8.79004ZM23.81 8.79004C23.6721 8.79004 23.5398 8.73526 23.4423 8.63773L24.8565 7.22352C24.579 6.94597 24.2025 6.79004 23.81 6.79004V8.79004ZM23.4423 8.63773C23.3448 8.54021 23.29 8.40794 23.29 8.27004H25.29C25.29 7.87753 25.1341 7.50108 24.8565 7.22352L23.4423 8.63773ZM23.29 8.27004V17.1H25.29V8.27004H23.29ZM24.29 18.1H24.79V16.1H24.29V18.1ZM25.79 17.1V8.27004H23.79V17.1H25.79ZM25.7898 8.25024C25.7796 7.73362 25.5698 7.241 25.2044 6.87563L23.7902 8.28984L23.7902 8.28984L25.7898 8.25024ZM25.2044 6.87563C24.839 6.51025 24.3464 6.30047 23.8298 6.29024L23.7902 8.28984L23.7902 8.28984L25.2044 6.87563Z" fill="#432CB4" mask="url(#path-2-inside-1)"/>
<path d="M3.59001 11.5V9.47003H6.59001V11.5H3.59001Z" fill="#432CB4" stroke="#432CB4"/>
<path d="M8.68001 11.5V9.47003H11.68V11.5H8.68001Z" fill="#432CB4" stroke="#432CB4"/>
<path d="M13.85 11.5V9.47003H16.85V11.5H13.85Z" fill="#432CB4" stroke="#432CB4"/>
<path d="M18.86 11.5V9.47003H21.86V11.5H18.86Z" fill="#432CB4" stroke="#432CB4"/>
<path d="M6.73001 13.09H3.45001C3.25119 13.09 3.09001 13.2512 3.09001 13.45V15.76C3.09001 15.9588 3.25119 16.12 3.45001 16.12H6.73001C6.92883 16.12 7.09001 15.9588 7.09001 15.76V13.45C7.09001 13.2512 6.92883 13.09 6.73001 13.09Z" fill="#432CB4"/>
<path d="M8.68001 15.62V13.59H11.68V15.62H8.68001Z" fill="#432CB4" stroke="#432CB4"/>
<path d="M13.85 15.62V13.59H16.85V15.62H13.85Z" fill="#432CB4" stroke="#432CB4"/>
<path d="M18.86 15.62V13.59H21.86V15.62H18.86Z" fill="#432CB4" stroke="#432CB4"/>
<path d="M3.59001 19.74V17.71H6.59001V19.74H3.59001Z" fill="#432CB4" stroke="#432CB4"/>
<path d="M8.68001 19.74V17.71H11.68V19.74H8.68001Z" fill="#432CB4" stroke="#432CB4"/>
<path d="M13.85 19.74V17.71H16.85V19.74H13.85Z" fill="#432CB4" stroke="#432CB4"/>
<path d="M18.86 17.71H21.3463C20.6732 18.245 20.1422 18.9423 19.8058 19.74H18.86V17.71Z" fill="#432CB4" stroke="#432CB4"/>
<path d="M5.29001 1.03003H6.34001V4.63003H5.29001V1.03003Z" fill="#432CB4" stroke="#432CB4"/>
<path d="M20.65 0.740029V4.92003C20.6501 4.97404 20.6293 5.02599 20.5921 5.06509C20.5548 5.1042 20.504 5.12746 20.45 5.13003L20.65 0.740029ZM20.65 0.740029C20.6501 0.686024 20.6293 0.634071 20.5921 0.594964M20.65 0.740029L20.5921 0.594964M20.5921 0.594964C20.5548 0.555856 20.504 0.532601 20.45 0.530029L20.5921 0.594964ZM19.11 4.63003V1.03003L20.15 4.63003H19.11ZM19.11 0.739462C19.11 0.739651 19.11 0.73984 19.11 0.740029L19.11 0.739462Z" fill="#432CB4" stroke="#432CB4"/>
<mask id="path-18-inside-2" fill="white">
<path d="M24.55 25.61C23.7798 25.612 23.0263 25.3853 22.3851 24.9586C21.7439 24.5319 21.2437 23.9245 20.948 23.2133C20.6524 22.5021 20.5745 21.7191 20.7243 20.9636C20.8741 20.208 21.2448 19.514 21.7894 18.9694C22.334 18.4247 23.0281 18.0541 23.7836 17.9043C24.5391 17.7545 25.3221 17.8324 26.0333 18.128C26.7445 18.4237 27.3519 18.9238 27.7786 19.5651C28.2053 20.2063 28.432 20.9598 28.43 21.73C28.4274 22.7582 28.0177 23.7436 27.2907 24.4707C26.5636 25.1977 25.5782 25.6074 24.55 25.61ZM24.55 18.34C23.8791 18.338 23.2227 18.5352 22.6639 18.9065C22.1051 19.2777 21.6691 19.8065 21.4109 20.4258C21.1528 21.045 21.0843 21.727 21.2139 22.3852C21.3436 23.0435 21.6657 23.6484 22.1394 24.1235C22.6131 24.5986 23.2171 24.9225 23.875 25.0541C24.5328 25.1857 25.215 25.1192 25.835 24.8629C26.455 24.6066 26.9851 24.1721 27.358 23.6144C27.7309 23.0567 27.93 22.4009 27.93 21.73C27.93 20.8327 27.5742 19.9719 26.9406 19.3364C26.3071 18.701 25.4474 18.3427 24.55 18.34Z"/>
</mask>
<path d="M24.55 25.61C23.7798 25.612 23.0263 25.3853 22.3851 24.9586C21.7439 24.5319 21.2437 23.9245 20.948 23.2133C20.6524 22.5021 20.5745 21.7191 20.7243 20.9636C20.8741 20.208 21.2448 19.514 21.7894 18.9694C22.334 18.4247 23.0281 18.0541 23.7836 17.9043C24.5391 17.7545 25.3221 17.8324 26.0333 18.128C26.7445 18.4237 27.3519 18.9238 27.7786 19.5651C28.2053 20.2063 28.432 20.9598 28.43 21.73C28.4274 22.7582 28.0177 23.7436 27.2907 24.4707C26.5636 25.1977 25.5782 25.6074 24.55 25.61ZM24.55 18.34C23.8791 18.338 23.2227 18.5352 22.6639 18.9065C22.1051 19.2777 21.6691 19.8065 21.4109 20.4258C21.1528 21.045 21.0843 21.727 21.2139 22.3852C21.3436 23.0435 21.6657 23.6484 22.1394 24.1235C22.6131 24.5986 23.2171 24.9225 23.875 25.0541C24.5328 25.1857 25.215 25.1192 25.835 24.8629C26.455 24.6066 26.9851 24.1721 27.358 23.6144C27.7309 23.0567 27.93 22.4009 27.93 21.73C27.93 20.8327 27.5742 19.9719 26.9406 19.3364C26.3071 18.701 25.4474 18.3427 24.55 18.34Z" fill="#432CB4"/>
<path d="M28.43 21.73L27.43 21.7274L28.43 21.73ZM27.93 21.73L28.93 21.73L27.93 21.73ZM24.5474 24.61C23.9752 24.6115 23.4155 24.443 22.9391 24.1261L21.8311 25.7911C22.6372 26.3275 23.5844 26.6125 24.5526 26.61L24.5474 24.61ZM22.9391 24.1261C22.4627 23.8091 22.0911 23.3578 21.8714 22.8294L20.0247 23.5971C20.3963 24.4912 21.025 25.2548 21.8311 25.7911L22.9391 24.1261ZM21.8714 22.8294C21.6518 22.301 21.5939 21.7193 21.7052 21.158L19.7434 20.7691C19.5551 21.7188 19.653 22.7031 20.0247 23.5971L21.8714 22.8294ZM21.7052 21.158C21.8165 20.5967 22.0919 20.0811 22.4965 19.6765L21.0823 18.2623C20.3976 18.9469 19.9317 19.8194 19.7434 20.7691L21.7052 21.158ZM22.4965 19.6765C22.9011 19.2719 23.4167 18.9965 23.978 18.8852L23.5891 16.9234C22.6394 17.1116 21.7669 17.5776 21.0823 18.2623L22.4965 19.6765ZM23.978 18.8852C24.5393 18.7739 25.121 18.8318 25.6494 19.0514L26.4171 17.2047C25.5231 16.833 24.5388 16.7351 23.5891 16.9234L23.978 18.8852ZM25.6494 19.0514C26.1778 19.2711 26.6291 19.6427 26.9461 20.1191L28.6111 19.0111C28.0748 18.205 27.3112 17.5763 26.4171 17.2047L25.6494 19.0514ZM26.9461 20.1191C27.2631 20.5954 27.4315 21.1552 27.43 21.7274L29.43 21.7326C29.4325 20.7644 29.1475 19.8172 28.6111 19.0111L26.9461 20.1191ZM27.43 21.7274C27.4281 22.4913 27.1237 23.2234 26.5836 23.7636L27.9978 25.1778C28.9118 24.2638 29.4267 23.0251 29.43 21.7326L27.43 21.7274ZM26.5836 23.7636C26.0434 24.3037 25.3113 24.608 24.5474 24.61L24.5526 26.61C25.8451 26.6067 27.0838 26.0917 27.9978 25.1778L26.5836 23.7636ZM24.553 17.34C23.6842 17.3374 22.8341 17.5927 22.1105 18.0736L23.2173 19.7394C23.6113 19.4776 24.0741 19.3386 24.5471 19.34L24.553 17.34ZM22.1105 18.0736C21.3869 18.5544 20.8222 19.2391 20.4879 20.041L22.334 20.8105C22.5159 20.3739 22.8234 20.0011 23.2173 19.7394L22.1105 18.0736ZM20.4879 20.041C20.1537 20.843 20.0649 21.7261 20.2328 22.5785L22.1951 22.1919C22.1037 21.7279 22.152 21.2471 22.334 20.8105L20.4879 20.041ZM20.2328 22.5785C20.4007 23.4309 20.8178 24.2144 21.4312 24.8296L22.8475 23.4175C22.5136 23.0825 22.2865 22.656 22.1951 22.1919L20.2328 22.5785ZM21.4312 24.8296C22.0447 25.4448 22.8269 25.8642 23.6788 26.0347L24.0711 24.0735C23.6073 23.9808 23.1815 23.7524 22.8475 23.4175L21.4312 24.8296ZM23.6788 26.0347C24.5307 26.2051 25.4141 26.119 26.217 25.7871L25.453 23.9387C25.0159 24.1194 24.535 24.1663 24.0711 24.0735L23.6788 26.0347ZM26.217 25.7871C27.0199 25.4552 27.7063 24.8925 28.1893 24.1703L26.5267 23.0585C26.2638 23.4517 25.8901 23.7581 25.453 23.9387L26.217 25.7871ZM28.1893 24.1703C28.6722 23.4481 28.93 22.5988 28.93 21.73L26.93 21.73C26.93 22.203 26.7897 22.6654 26.5267 23.0585L28.1893 24.1703ZM28.93 21.73C28.93 20.5679 28.4693 19.4533 27.6488 18.6304L26.2325 20.0425C26.6792 20.4905 26.93 21.0974 26.93 21.73L28.93 21.73ZM27.6488 18.6304C26.8283 17.8075 25.715 17.3434 24.553 17.34L24.5471 19.34C25.1797 19.3419 25.7858 19.5945 26.2325 20.0425L27.6488 18.6304Z" fill="#432CB4" mask="url(#path-18-inside-2)"/>
<path d="M26.44 22H24.57C24.536 22 24.5027 21.9931 24.472 21.98H24.57H24.82H26.44C26.3737 21.98 26.3101 21.9537 26.2632 21.9068C26.2259 21.8694 26.2015 21.8214 26.1932 21.7699C26.1921 21.7633 26.1913 21.7567 26.1908 21.75C26.1908 21.7433 26.1911 21.7367 26.1916 21.73C26.1933 21.709 26.1976 21.6882 26.2046 21.6682C26.2159 21.6355 26.2339 21.6055 26.2574 21.5802C26.2809 21.5548 26.3094 21.5346 26.3411 21.5208C26.3723 21.5072 26.406 21.5001 26.44 21.5V22ZM26.44 22C26.4746 22.0001 26.5088 21.9931 26.5405 21.9793M26.44 22L26.5405 21.9793M26.677 21.8318C26.6884 21.7992 26.6928 21.7645 26.69 21.73L26.677 21.8318ZM26.677 21.8318C26.6657 21.8645 26.6477 21.8945 26.6242 21.9199M26.677 21.8318L26.6242 21.9199M26.6242 21.9199C26.6008 21.9452 26.5722 21.9655 26.5405 21.9793M26.6242 21.9199L26.5405 21.9793" fill="#432CB4" stroke="#432CB4"/>
</svg>
