<svg width="13" height="12" viewBox="0 0 13 12" fill="none" xmlns="http://www.w3.org/2000/svg">
<path fill-rule="evenodd" clip-rule="evenodd" d="M1.16727 4.12928C1.2461 3.83129 1.48912 3.6051 1.79199 3.54782L11.1488 1.77814C11.4829 1.71496 11.8204 1.86979 11.9903 2.1642L12.2722 2.65245C12.4422 2.94686 12.4075 3.31654 12.1858 3.57423L5.9748 10.7927C5.77376 11.0263 5.45636 11.1237 5.15888 11.043L4.56506 10.8818C4.26758 10.8011 4.04293 10.5566 3.98757 10.2534L3.51975 7.69089C3.48657 7.50913 3.39149 7.34446 3.25068 7.22485L1.26537 5.53843C1.03045 5.33888 0.931069 5.0221 1.0099 4.72412L1.16727 4.12928ZM3.68822 5.02109C3.60561 5.03672 3.57799 5.14113 3.64207 5.19556L4.90596 6.26917C5.04677 6.38879 5.14184 6.55346 5.17503 6.73521L5.47285 8.36658C5.48795 8.44929 5.59219 8.47758 5.64703 8.41384L9.32806 4.13575C9.38976 4.06404 9.32663 3.95469 9.23368 3.97227L3.68822 5.02109Z" fill="#432CB4"/>
</svg>
