<svg width="12" height="12" viewBox="0 0 12 12" fill="none" xmlns="http://www.w3.org/2000/svg">
<path fill-rule="evenodd" clip-rule="evenodd" d="M7.41434 5.99997L11.4951 1.91925C11.6122 1.8021 11.6122 1.61215 11.4951 1.49499L10.5051 0.50504C10.3879 0.387883 10.198 0.387883 10.0808 0.50504L6.00012 4.58575L1.91941 0.50504C1.80225 0.387882 1.6123 0.387882 1.49514 0.50504L0.505194 1.49499C0.388037 1.61215 0.388037 1.8021 0.505194 1.91925L4.58591 5.99997L0.505101 10.0808C0.387944 10.1979 0.387944 10.3879 0.505101 10.505L1.49505 11.495C1.61221 11.6121 1.80216 11.6121 1.91931 11.495L6.00012 7.41418L10.0809 11.495C10.1981 11.6121 10.388 11.6121 10.5052 11.495L11.4951 10.505C11.6123 10.3879 11.6123 10.1979 11.4951 10.0808L7.41434 5.99997Z" fill="#FF0000"/>
</svg>
