<svg width="10" height="10" viewBox="0 0 10 10" fill="none" xmlns="http://www.w3.org/2000/svg">
<g clip-path="url(#clip0)">
<path d="M1.98395 9.61713C1.99313 9.83119 2.16934 10 2.3836 10C4.12811 9.99995 5.87262 9.99994 7.61712 10C7.83138 10 8.0076 9.83119 8.01677 9.61712L8.33366 2.22221H1.66699L1.98395 9.61713Z" fill="#FF0000"/>
<path d="M6.94466 0.555547L6.38909 0H3.61133L3.05576 0.555547H1.31133C1.20087 0.555547 1.11133 0.64509 1.11133 0.755547V1.46667C1.11133 1.57712 1.20087 1.66667 1.31133 1.66667H8.68909C8.79955 1.66667 8.88909 1.57712 8.88909 1.46667V0.755547C8.88909 0.64509 8.79955 0.555547 8.68909 0.555547H6.94466Z" fill="#FF0000"/>
</g>
<defs>
<clipPath id="clip0">
<rect width="10" height="10" fill="white"/>
</clipPath>
</defs>
</svg>
