<?xml version="1.0" encoding="UTF-8"?>
<svg width="46px" height="46px" viewBox="0 0 46 46" version="1.1" xmlns="http://www.w3.org/2000/svg" xmlns:xlink="http://www.w3.org/1999/xlink">
    <!-- Generator: sketchtool 52.6 (67491) - http://www.bohemiancoding.com/sketch -->
    <title>3FDFB15B-4632-4FE4-A9C9-2F8FB2CC2E46</title>
    <desc>Created with sketchtool.</desc>
    <defs>
        <polygon id="path-1" points="0 0.0378011313 45.9652715 0.0378011313 45.9652715 45.9520334 0 45.9520334"></polygon>
    </defs>
    <g id="ACTIVITES-PREMIERES-RENCONTRES" stroke="none" stroke-width="1" fill="none" fill-rule="evenodd">
        <g id="D-ACTIVITE-P-R-6" transform="translate(-703.000000, -222.000000)">
            <g id="yellow" transform="translate(690.000000, 209.000000)">
                <g id="PICTO">
                    <g id="picto" transform="translate(13.000000, 13.000000)">
                        <g id="Group-3" transform="translate(0.000000, 0.010169)">
                            <mask id="mask-2" fill="white">
                                <use xlink:href="#path-1"></use>
                            </mask>
                            <g id="Clip-2"></g>
                            <path d="M31.689376,34.8354355 C30.433115,35.7906909 29.0657914,36.589863 27.6160232,37.2144845 C26.1421505,37.8089829 24.6008624,38.2204886 23.026923,38.4416628 C21.4512069,38.6260945 19.858781,38.6193312 18.2847935,38.421229 C17.2443676,38.2665846 16.2185388,38.0303489 15.2158541,37.7118984 C14.9616537,37.6311226 14.709614,37.5437754 14.4590148,37.4525429 C14.3334031,37.4067827 14.2085597,37.3591518 14.0839564,37.3107535 C14.0285931,37.2893124 13.8850232,37.2304094 13.7962883,37.1941466 C13.3247643,36.9912478 12.8618353,36.7686346 12.4079334,36.5289454 C11.9067351,36.2642655 11.4188374,35.9747389 10.9431839,35.6667452 C10.7126557,35.517521 10.486209,35.3620611 10.2624031,35.2031477 C10.1532612,35.1256815 10.0454157,35.0463927 9.93795428,34.9666242 C9.88571211,34.9261404 9.83342192,34.8856086 9.78146785,34.8445491 C8.86007537,34.1180465 8.00921942,33.3030934 7.23341357,32.4234813 C7.02516514,32.1873896 6.82407119,31.9449662 6.62792296,31.6987055 C5.67099812,30.443083 4.87055971,29.0762738 4.24504614,27.62701 C3.65035929,26.1552978 3.23871211,24.6163364 3.01740313,23.0447577 C2.83277891,21.4705887 2.83959729,19.8797274 3.03790626,18.3071894 C3.19271211,17.2679923 3.42919436,16.2432811 3.74797724,15.2417858 C3.82878935,14.9878505 3.91622777,14.7360736 4.00755553,14.4857358 C4.05336347,14.3602551 4.10109207,14.2355418 4.1494929,14.1110204 C4.17100438,14.0557629 4.22996889,13.9122947 4.26626952,13.8237003 C4.46933215,13.35262 4.69217766,12.8901737 4.93211712,12.4367452 C5.19712129,11.9360694 5.48690209,11.4486805 5.79521733,10.9734751 C5.94459729,10.7432352 6.1001714,10.5170246 6.25929875,10.2934521 C6.33756597,10.1835606 6.41751378,10.0749162 6.49803779,9.96670344 C6.53793967,9.91537914 6.57784154,9.86400688 6.61817557,9.81297039 C7.34548455,8.89253869 8.16124029,8.04256997 9.04181858,7.2675731 C9.2782048,7.05954181 9.52083319,6.85865756 9.76735094,6.6626659 C11.0240921,5.70697873 12.3919438,4.90747091 13.8423363,4.28270553 C15.3159689,3.68835099 16.8569209,3.27703712 18.4305722,3.05591095 C20.0091213,2.87114348 21.6043802,2.87838644 23.1811046,3.07749593 C24.1087392,3.21573577 25.0248019,3.41868259 25.9235785,3.68719979 C26.4134929,3.83354599 26.896733,4.00195683 27.3732987,4.1868682 C27.4613134,4.22102044 27.5488478,4.25646778 27.6362862,4.29205902 C27.6829585,4.31210907 27.7295827,4.33220709 27.7761589,4.35259291 C28.0227246,4.46032596 28.2663614,4.57453452 28.5080775,4.69253243 C29.4257246,5.14049281 30.3043823,5.66659082 31.1387205,6.2545658 C31.2326411,6.32075975 31.3256495,6.38829677 31.4182737,6.45612158 C31.456591,6.48418206 31.4945722,6.51262628 31.5326495,6.54107049 C31.7458916,6.70602774 31.9549564,6.87626131 32.1610921,7.04999645 C32.5746119,7.39847404 32.9713739,7.76613827 33.3544031,8.14732909 C33.8795618,8.67381084 34.3743739,9.22849698 34.8377351,9.80975662 C35.7903864,11.0616857 36.5876557,12.4238421 37.2111526,13.8678776 C37.8064637,15.3403572 38.218543,16.8801821 38.439948,18.4527201 C38.6246203,20.0268891 38.6178499,21.6177024 38.4194929,23.1901925 C38.2646871,24.2294855 38.0282528,25.2542926 37.7094219,26.2558838 C37.6285618,26.5098192 37.5411234,26.761644 37.4497956,27.0119819 C37.4040837,27.1374146 37.3563551,27.2621758 37.3079063,27.3866492 C37.2863948,27.4419068 37.2274303,27.5854229 37.1911296,27.6739693 C36.988067,28.1450496 36.7651735,28.6074959 36.525234,29.0609245 C36.2602779,29.5616002 35.9704491,30.0489892 35.6621338,30.5241946 C35.5127539,30.7544344 35.3572278,30.980645 35.1980524,31.2042175 C35.1205054,31.3132457 35.0411818,31.4210267 34.9613301,31.528424 C34.9207559,31.5806117 34.8801818,31.6327994 34.8391756,31.6846513 C34.1118186,32.605131 33.2960148,33.4551477 32.4154846,34.2300966 C32.1789063,34.4383197 31.9361338,34.6393479 31.689376,34.8354355 M9.89160261,34.9558479 C9.80691976,34.8717876 9.71699995,34.7807953 9.89160261,34.9558479 M6.54163695,9.92310083 C6.62597483,9.83812225 6.71648915,9.74871245 6.54163695,9.92310083 M34.9504105,31.5884782 C34.8663242,31.6731611 34.7753766,31.7630809 34.9504105,31.5884782 M45.543923,43.4951393 C44.1262779,42.0800277 42.7085848,40.6649162 41.2909397,39.2498526 C39.6495848,37.6114083 38.0081818,35.9729641 36.3667789,34.3345679 C36.5897685,34.0768432 36.806804,33.8141299 37.0161088,33.5453729 C38.5354052,31.5939464 39.7010587,29.4330017 40.4682695,27.0791831 C41.1799731,24.8958859 41.5062946,22.5591914 41.4516996,20.2650913 C41.3966244,17.9575606 40.9587121,15.641204 40.1371944,13.4833771 C39.2475409,11.1468745 37.9766829,9.02718102 36.3426745,7.13360229 C36.0358478,6.77797769 35.7141359,6.43520813 35.3824365,6.10255954 C35.3819084,6.10207987 35.3814762,6.10150428 35.380948,6.10102461 C33.6865347,4.41446986 31.6949459,3.00204442 29.5231025,1.99800688 C27.3098687,0.974878624 24.9776495,0.357452138 22.5509814,0.125917205 C17.9242841,-0.315519708 13.1249188,0.916167466 9.26490418,3.4944219 C5.1844929,6.21983796 2.15319854,10.3404594 0.795190188,15.0543802 C0.159881211,17.2596941 -0.0988807933,19.6008494 0.0337893528,21.8912081 C0.175054489,24.330839 0.745829019,26.681156 1.69300647,28.929352 C3.5503405,33.3378213 7.05959311,37.0491435 11.3275096,39.207498 C15.5819814,41.3590413 20.474019,41.9659631 25.13428,40.9836544 C28.5216662,40.2696231 31.7167935,38.6466722 34.3320712,36.372718 C35.4238269,37.4625199 36.5156307,38.5522738 37.6073384,39.6420757 C39.4651046,41.4965137 41.3229188,43.3509516 43.180685,45.2052936 C43.2929,45.3173437 43.405163,45.4293458 43.5173781,45.5414438 C44.071923,46.0949787 45.0053676,46.0863927 45.5549188,45.5305074 C46.1080712,44.9708327 46.0996203,44.0498254 45.543923,43.4951393" id="Fill-1" fill="#FFFFFF" mask="url(#mask-2)"></path>
                        </g>
                        <path d="M30.1397533,29.117645 C30.0728533,29.2047242 29.9913533,29.2905007 30.1397533,29.117645 M27.7781948,29.6599078 L24.0325559,29.6599078 L14.993796,29.6599078 L12.8967626,29.6599078 C12.6041969,29.6599078 12.3044766,29.6735783 12.0103743,29.6542478 C11.9277856,29.6362123 11.8460612,29.6148192 11.7647689,29.5891091 C11.7233785,29.567668 11.6824683,29.5453155 11.6419422,29.5222916 C11.6096269,29.5039203 11.578272,29.4839182 11.5471572,29.4635324 C11.5428837,29.4597431 11.5388983,29.4561935 11.5341447,29.4519725 C11.4764286,29.4012717 11.4224578,29.3465418 11.3709359,29.2896534 C11.3211906,29.2143458 11.2757668,29.1366878 11.2339923,29.0567754 C11.207199,28.9736492 11.1840549,28.8896117 11.1656165,28.8040872 C11.1548608,28.59596 11.161343,28.386058 11.161343,28.1783145 L11.161343,26.6575324 L11.161343,22.1387879 L11.161343,21.3626398 C12.8901843,21.74479 14.6190257,22.1268922 16.347867,22.5089944 C16.690034,22.5846377 17.032201,22.6602811 17.3743681,22.7359245 C17.5370006,23.8989714 18.5028086,24.7757535 19.7233451,24.7757535 L21.4162699,24.7757535 L21.6474223,24.7757535 C22.0538357,24.7757535 22.3567731,24.6749276 22.7219401,24.5207629 C23.4423347,24.2163666 23.877558,23.4607483 23.9759923,22.7089673 C26.0454641,22.2515095 28.1148879,21.7941477 30.1843597,21.3367379 L30.1843117,24.1173155 C30.1843597,25.6335408 30.1843597,27.1499579 30.1843597,28.6662311 C30.1836875,28.7153489 30.1814307,28.764035 30.1784537,28.8127691 C30.1604474,28.89484 30.13908,28.9760955 30.1134871,29.0569673 C30.0920236,29.0983625 30.0695998,29.139326 30.0465518,29.1798098 C30.0282094,29.2120434 30.0082825,29.2433176 29.9878754,29.2743041 C29.984034,29.2786211 29.9804328,29.2826503 29.9761593,29.2875429 C29.9253576,29.3451987 29.8706666,29.3991132 29.8136708,29.4505814 C29.7383806,29.5001789 29.6607376,29.5455074 29.5807418,29.5872384 C29.4914307,29.6159704 29.4012073,29.6406252 29.3092073,29.659716 C28.8029192,29.6960747 28.2805455,29.6599078 27.7781948,29.6599078 M11.7083764,29.6151251 C11.6210735,29.5484251 11.535685,29.4677251 11.7083764,29.6151251 M11.2579548,17.1426745 C11.3248548,17.0555209 11.4061548,16.9698734 11.2579548,17.1426745 M20.2234871,21.9061018 C20.2268962,21.7593239 20.2316019,21.6129777 20.2316019,21.4689339 C20.2316019,21.3029693 20.2256478,21.1340788 20.2219985,20.9648526 C20.3618232,20.9681623 20.5012157,20.9724792 20.6385434,20.9724792 C20.7975267,20.9724792 20.959199,20.9670111 21.1212553,20.9634136 C21.1180862,21.0942665 21.1142449,21.2246878 21.1142449,21.3531904 L21.1142449,21.9044229 C20.9776374,21.9011132 20.841462,21.8969881 20.7073033,21.8969881 C20.5479359,21.8969881 20.3858795,21.9025522 20.2234871,21.9061018 M13.5675079,16.5961477 L17.3130987,16.5961477 L26.3518106,16.5961477 L28.4488921,16.5961477 C28.7414578,16.5961477 29.0411781,16.5824772 29.3352804,16.6018557 C29.4177731,16.6198911 29.4994015,16.6412843 29.5806937,16.6669464 C29.6221322,16.6883875 29.6630904,16.7107879 29.7037125,16.7338119 C29.7360278,16.7521831 29.7673827,16.7721852 29.7984975,16.792571 C29.802771,16.7963604 29.8067564,16.7999579 29.81151,16.804131 C29.8691781,16.8548797 29.9231489,16.9095616 29.9747188,16.9664021 C30.0244161,17.0417097 30.0697438,17.1192717 30.1115184,17.1991842 C30.1384077,17.2824542 30.1615038,17.3665877 30.1800382,17.4521602 C30.1907459,17.6602874 30.1843117,17.8701414 30.1843117,18.0777889 L30.1843117,18.3920184 C28.204391,18.8296179 26.2245184,19.2672175 24.2446937,19.7048171 C24.1290215,19.7303833 24.0133493,19.7559495 23.8977251,19.7815157 C23.8460591,19.582838 23.7695685,19.3892926 23.6568253,19.2021268 C23.2296687,18.4926044 22.439938,18.0938578 21.6224056,18.0938578 L19.7263701,18.0938578 C18.8608691,18.0938578 18.0976916,18.5244063 17.6523848,19.2638119 C17.5482365,19.4367796 17.4796207,19.6181894 17.4343409,19.8046836 C15.522604,19.3821456 13.610867,18.9596075 11.6991781,18.5370215 C11.5175789,18.4969214 11.3359317,18.4567733 11.1543326,18.4166252 C11.1471781,18.0966878 11.1402637,17.7736325 11.16432,17.4571967 C11.1828545,17.3703771 11.2051342,17.2845168 11.2322157,17.1990882 C11.2536791,17.157693 11.2761029,17.1167295 11.2991509,17.0761977 C11.3174933,17.0439641 11.3374683,17.0126899 11.3578754,16.9816555 C11.3616687,16.9773385 11.3652699,16.9733572 11.3695434,16.9685126 C11.4202971,16.9109047 11.4749881,16.8570382 11.5318879,16.80557 C11.6073221,16.7558765 11.6850612,16.7105001 11.765105,16.6687691 C11.854272,16.6400851 11.9443994,16.6154782 12.0363033,16.5963395 C12.5426395,16.5600288 13.0651092,16.5961477 13.5675079,16.5961477 M17.9413973,12.7966148 C17.9420215,12.747497 17.9442783,12.6988108 17.9472553,12.6500767 C17.9652616,12.5679579 17.986629,12.4867024 18.0122219,12.4058307 C18.0337334,12.3643875 18.0561572,12.3234719 18.0792052,12.2829401 C18.0975956,12.2506586 18.1175706,12.2193364 18.1380257,12.188254 C18.141819,12.183985 18.1453722,12.1800038 18.1495977,12.1752551 C18.2003514,12.1175992 18.2550904,12.0636847 18.3120382,12.0122165 C18.3874244,11.962571 18.4651154,11.9172425 18.5451113,11.8754636 C18.636295,11.846156 18.7285351,11.8212613 18.8225518,11.8019308 C19.4300111,11.755547 20.0588378,11.8028421 20.6625038,11.8028421 C21.2780299,11.8028421 21.9197731,11.7538202 22.5383242,11.8049527 C22.6266269,11.8236596 22.7139693,11.846204 22.8007835,11.8736409 C22.8422699,11.8951299 22.8832282,11.9174824 22.9238023,11.9405543 C22.9560695,11.9588776 22.9873764,11.9787837 23.0184432,11.9991696 C23.0227167,12.0030069 23.0267501,12.0066044 23.0315998,12.0108254 C23.0893159,12.0615741 23.1432386,12.1162561 23.1948086,12.1731925 C23.2445058,12.2484042 23.2898336,12.3259662 23.3315601,12.4057827 C23.3582094,12.4884292 23.3811614,12.5718911 23.3995518,12.65684 C23.4016165,12.6964125 23.4038253,12.735937 23.4043534,12.7757973 C23.4091551,13.1318056 23.5407209,13.4621518 23.7570841,13.7174302 L17.5906353,13.7174302 C17.8047898,13.4675241 17.9366916,13.1453802 17.9413973,12.7966148 M18.0380682,12.3494298 C18.1049682,12.262258 18.1861682,12.1766421 18.0380682,12.3494298 M22.8616687,11.8994099 C22.9488219,11.9663099 23.03447,12.0476099 22.8616687,11.8994099 M29.641819,16.6928635 C29.7290287,16.7596635 29.8145788,16.8406635 29.641819,16.6928635 M32.3624933,15.3703604 C31.8409839,14.6783458 31.2185434,14.2189214 30.4068211,13.9128943 C29.6780236,13.6381894 28.7927397,13.7174302 28.0217355,13.7174302 L25.9385789,13.7174302 C26.1566708,13.4675721 26.2907334,13.1454282 26.2859797,12.7965189 C26.2759443,12.0538515 26.0749944,11.2968421 25.6560486,10.6773051 C25.1745852,9.96538436 24.5338503,9.48720501 23.7443597,9.16573264 C23.0722699,8.89203504 22.3452491,8.92417268 21.6353221,8.92417268 L19.4295309,8.92417268 C18.5262407,8.92417268 17.6529129,9.01670031 16.8663514,9.51867112 C15.7528441,10.2292968 15.0775852,11.458058 15.059771,12.7757493 C15.0549213,13.1318056 15.1888399,13.4621518 15.4092365,13.7174302 L15.3322658,13.7174302 L12.5305873,13.7174302 C12.3396248,13.7174302 12.1477981,13.7125856 11.9572198,13.7254407 C10.3113033,13.8365794 8.99228455,14.8884876 8.45459353,16.4336847 C8.28855177,16.9108088 8.27976472,17.4197347 8.27976472,17.9186357 L8.27976472,19.3029047 L8.27976472,23.7382832 L8.27976472,27.7627796 L8.27976472,28.6335658 C8.27976472,29.0498682 8.33647244,29.4803208 8.47360814,29.8745585 C8.75940355,30.6957472 9.25416764,31.3220955 9.94354342,31.8405189 C10.8589338,32.5290319 11.931771,32.5384334 13.0074891,32.5384334 L16.3591029,32.5384334 L25.501963,32.5384334 L28.5900612,32.5384334 L29.1719276,32.5384334 C29.6036937,32.5384334 30.053082,32.4753093 30.4584871,32.3224876 C30.7977731,32.1945606 31.1215977,32.0535867 31.4114265,31.8357222 C31.8223054,31.5266732 32.0950883,31.2378181 32.404796,30.8267921 C32.8369463,30.253399 33.0409213,29.4772989 33.0637292,28.7648984 C33.0651697,28.7390444 33.066034,28.7130945 33.066034,28.6869527 L33.066034,21.9039912 L33.066034,18.1648964 C33.066034,17.9291883 33.0719881,17.692521 33.0624328,17.4568609 C33.0327104,16.7234991 32.8077522,15.9611654 32.3624933,15.3703604" id="Fill-4" fill="#FFFFFF"></path>
                    </g>
                </g>
            </g>
        </g>
    </g>
</svg>