<svg width="9" height="11" viewBox="0 0 9 11" fill="none" xmlns="http://www.w3.org/2000/svg">
<path d="M8.15625 4.96094C8.27344 4.84375 8.27344 4.65625 8.15625 4.5625L7.6875 4.09375C7.59375 3.97656 7.40625 3.97656 7.28906 4.09375L5.08594 6.36719V0.53125C5.08594 0.390625 4.96875 0.25 4.80469 0.25H4.14844C4.00781 0.25 3.86719 0.390625 3.86719 0.53125V6.36719L1.6875 4.09375C1.57031 3.97656 1.38281 3.97656 1.28906 4.09375L0.820312 4.5625C0.703125 4.65625 0.703125 4.84375 0.820312 4.96094L4.28906 8.42969C4.40625 8.54688 4.57031 8.54688 4.6875 8.42969L8.15625 4.96094ZM8.71875 9.53125H0.28125C0.117188 9.53125 0 9.67188 0 9.8125V10.4688C0 10.6328 0.117188 10.75 0.28125 10.75H8.71875C8.85938 10.75 9 10.6328 9 10.4688V9.8125C9 9.67188 8.85938 9.53125 8.71875 9.53125Z" fill="white"/>
</svg>
