<?xml version="1.0" encoding="UTF-8"?>
<svg width="27px" height="25px" viewBox="0 0 27 25" version="1.1" xmlns="http://www.w3.org/2000/svg" xmlns:xlink="http://www.w3.org/1999/xlink">
    <!-- Generator: sketchtool 52.6 (67491) - http://www.bohemiancoding.com/sketch -->
    <title>1D089C50-6933-452B-BF72-DFA597066EA1</title>
    <desc>Created with sketchtool.</desc>
    <defs>
        <polygon id="path-1" points="0 0.00711111111 26.7848604 0.00711111111 26.7848604 23.7037037 0 23.7037037"></polygon>
    </defs>
    <g id="Symbols" stroke="none" stroke-width="1" fill="none" fill-rule="evenodd">
        <g id="ICON-/-CALENDAR-/-inactive">
            <g>
                <path d="M4.13126703,12.7783704 L6.77133297,12.7783704 C7.18286044,12.7783704 7.51665165,12.445037 7.51665165,12.0334815 C7.51665165,11.6225185 7.18286044,11.2891852 6.77133297,11.2891852 L4.13126703,11.2891852 C3.71914615,11.2891852 3.38535495,11.6225185 3.38535495,12.0334815 C3.38535495,12.445037 3.71914615,12.7783704 4.13126703,12.7783704" id="Fill-1" fill="#A2ACE3"></path>
                <path d="M9.02802857,12.7783704 L11.6680945,12.7783704 C12.079622,12.7783704 12.4134132,12.445037 12.4134132,12.0334815 C12.4134132,11.6225185 12.079622,11.2891852 11.6680945,11.2891852 L9.02802857,11.2891852 C8.61590769,11.2891852 8.28211648,11.6225185 8.28211648,12.0334815 C8.28211648,12.445037 8.61590769,12.7783704 9.02802857,12.7783704" id="Fill-3" fill="#A2ACE3"></path>
                <path d="M4.13126703,16.2514667 L6.77133297,16.2514667 C7.18286044,16.2514667 7.51665165,15.9181333 7.51665165,15.5071704 C7.51665165,15.0956148 7.18286044,14.7622815 6.77133297,14.7622815 L4.13126703,14.7622815 C3.71914615,14.7622815 3.38535495,15.0956148 3.38535495,15.5071704 C3.38535495,15.9181333 3.71914615,16.2514667 4.13126703,16.2514667" id="Fill-5" fill="#A2ACE3"></path>
                <path d="M9.02802857,16.2514667 L11.6680945,16.2514667 C12.079622,16.2514667 12.4134132,15.9181333 12.4134132,15.5071704 C12.4134132,15.0956148 12.079622,14.7622815 11.6680945,14.7622815 L9.02802857,14.7622815 C8.61590769,14.7622815 8.28211648,15.0956148 8.28211648,15.5071704 C8.28211648,15.9181333 8.61590769,16.2514667 9.02802857,16.2514667" id="Fill-7" fill="#A2ACE3"></path>
                <path d="M4.13126703,19.550963 L6.84343187,19.550963 C7.25495934,19.550963 7.58875055,19.2176296 7.58875055,18.8063704 C7.58875055,18.3951111 7.25495934,18.0617778 6.84343187,18.0617778 L4.13126703,18.0617778 C3.71914615,18.0617778 3.38535495,18.3951111 3.38535495,18.8063704 C3.38535495,19.2176296 3.71914615,19.550963 4.13126703,19.550963" id="Fill-9" fill="#A2ACE3"></path>
                <g id="Group-13" transform="translate(0.000000, 0.289185)">
                    <mask id="mask-2" fill="white">
                        <use xlink:href="#path-1"></use>
                    </mask>
                    <g id="Clip-12"></g>
                    <path d="M1.4909044,3.89096296 L4.04255275,3.89096296 L4.04255275,5.07496296 C4.04255275,5.48622222 4.37634396,5.81955556 4.78846484,5.81955556 C5.19999231,5.81955556 5.53378352,5.48622222 5.53378352,5.07496296 L5.53378352,3.89096296 L10.0421901,3.89096296 L10.0421901,5.07496296 C10.0421901,5.48622222 10.3759813,5.81955556 10.7881022,5.81955556 C11.1996297,5.81955556 11.5334209,5.48622222 11.5334209,5.07496296 L11.5334209,3.89096296 L16.0424209,3.89096296 L16.0424209,5.07496296 C16.0424209,5.48622222 16.3762121,5.81955556 16.788333,5.81955556 C17.1998604,5.81955556 17.5336516,5.48622222 17.5336516,5.07496296 L17.5336516,3.89096296 L20.082333,3.89096296 L20.082333,6.88 L1.4909044,6.88 L1.4909044,3.89096296 Z M23.0386846,8.38607407 L24.9850582,10.3300741 L17.3126077,17.9911111 L16.877344,17.557037 L15.365344,16.0471111 L23.0386846,8.38607407 Z M14.6200253,17.4091852 L15.949256,18.7362963 L13.8931022,19.4625185 L14.6200253,17.4091852 Z M0.00175054945,22.9588148 C0.00175054945,23.3703704 0.335541758,23.7037037 0.747069231,23.7037037 L18.8088824,23.7037037 C20.3342341,23.7037037 21.5747505,22.464 21.5747505,20.9416296 L21.5747505,19.3368889 C21.5747505,18.9259259 21.2409593,18.5925926 20.8294319,18.5925926 C20.4176077,18.5925926 20.0838165,18.9259259 20.0838165,19.3368889 L20.0838165,20.9416296 C20.0838165,21.6435556 19.5114758,22.2148148 18.8085857,22.2148148 L1.49268462,22.2148148 L1.49268462,8.37037037 L20.8294319,8.37037037 C20.873344,8.37037037 20.9163659,8.36474074 20.9587945,8.35733333 L13.7839154,15.5211852 C13.7545418,15.5508148 13.7287286,15.5837037 13.705289,15.6171852 C13.7008385,15.6231111 13.6957945,15.6275556 13.6916407,15.6334815 C13.6598934,15.6802963 13.6355637,15.7318519 13.6150912,15.7845926 C13.613311,15.7899259 13.6097505,15.7943704 13.6076736,15.7997037 L11.9672011,20.4361481 C11.8716626,20.7063704 11.9399044,21.008 12.1434429,21.2103704 C12.2855637,21.3522963 12.4760473,21.4284444 12.6700912,21.4284444 C12.7534648,21.4284444 12.8374319,21.4145185 12.9187286,21.3854815 L17.5609484,19.7454815 C17.5651022,19.7442963 17.5683659,19.7413333 17.5725198,19.7395556 C17.6265198,19.72 17.6778495,19.6945185 17.7268055,19.6619259 C17.7336297,19.6571852 17.7389703,19.6515556 17.7454978,19.6468148 C17.7778385,19.6237037 17.8104758,19.5994074 17.8398495,19.5697778 L26.5664868,10.856 C26.7068275,10.7161481 26.7848604,10.5268148 26.7848604,10.3294815 C26.7848604,10.1321481 26.7065308,9.94251852 26.5664868,9.80296296 L23.565333,6.80681481 C23.2745637,6.51644444 22.8022121,6.51644444 22.5111462,6.80681481 L21.5619923,7.75496296 C21.5694099,7.71288889 21.5747505,7.66992593 21.5747505,7.62577778 C21.5747505,7.61896296 21.5729703,7.61244444 21.5729703,7.60562963 L21.5729703,3.14637037 C21.5729703,2.73511111 21.2391791,2.40177778 20.8270582,2.40177778 L17.5333549,2.40177778 L17.5333549,0.751703704 C17.5333549,0.340444444 17.1995637,0.00711111111 16.7880363,0.00711111111 C16.3759154,0.00711111111 16.0421242,0.340444444 16.0421242,0.751703704 L16.0421242,2.40177778 L11.5331242,2.40177778 L11.5331242,0.751703704 C11.5331242,0.340444444 11.199333,0.00711111111 10.7878055,0.00711111111 C10.3756846,0.00711111111 10.0418934,0.340444444 10.0418934,0.751703704 L10.0418934,2.40177778 L5.53348681,2.40177778 L5.53348681,0.751703704 C5.53348681,0.340444444 5.1996956,0.00711111111 4.78816813,0.00711111111 C4.37604725,0.00711111111 4.04225604,0.340444444 4.04225604,0.751703704 L4.04225604,2.40177778 L0.745882418,2.40177778 C0.333761538,2.40177778 -2.96703297e-05,2.73511111 -2.96703297e-05,3.14637037 L-2.96703297e-05,7.6242963 C-2.96703297e-05,7.62933333 0.00175054945,7.63377778 0.00175054945,7.63851852 L0.00175054945,22.9588148 Z" id="Fill-11" fill="#A2ACE3" mask="url(#mask-2)"></path>
                </g>
            </g>
        </g>
    </g>
</svg>