<svg xmlns="http://www.w3.org/2000/svg" viewBox="0 0 80 80"><defs><style>.cls-1{fill:#fff;}.cls-2{fill:none;}</style></defs><title>2Fichier 10</title><g id="Calque_2" data-name="Calque 2"><g id="Calque_1-2" data-name="Calque 1"><path class="cls-1" d="M40,7.5A32.5,32.5,0,1,1,7.5,40,32.54,32.54,0,0,1,40,7.5M40,0A40,40,0,1,0,80,40,40,40,0,0,0,40,0Z"/><path class="cls-1" d="M55.28,37.5v5a1,1,0,0,1-1,1H36.5V20a1,1,0,0,1,1-1h5a1,1,0,0,1,1,1V36.5H54.28A1,1,0,0,1,55.28,37.5Z"/><rect class="cls-2" width="80" height="80"/></g></g></svg>