<svg xmlns="http://www.w3.org/2000/svg" viewBox="0 0 80 80"><defs><style>.cls-1{fill:#fff;}.cls-2{fill:none;}</style></defs><title>2Fichier 11</title><g id="Calque_2" data-name="Calque 2"><g id="Calque_1-2" data-name="Calque 1"><circle class="cls-1" cx="40" cy="40" r="8.07"/><path class="cls-1" d="M40,61.22C17.48,61.22,2.46,43,1.83,42.2L.56,40.63a1,1,0,0,1,0-1.26L1.83,37.8c.63-.78,15.65-19,38.17-19S77.54,37,78.17,37.8l1.27,1.57a1,1,0,0,1,0,1.26L78.17,42.2C77.54,43,62.51,61.22,40,61.22ZM9.32,40C13.78,44.48,25.2,54.22,40,54.22S66.21,44.48,70.68,40C66.21,35.52,54.79,25.78,40,25.78S13.78,35.52,9.32,40Z"/><rect class="cls-2" width="80" height="80"/></g></g></svg>