<svg xmlns="http://www.w3.org/2000/svg" viewBox="0 0 9 8.99"><defs><style>.cls-1{fill:#fff;}</style></defs><title>2Fichier 3</title><g id="Calque_2" data-name="Calque 2"><g id="Calque_1-2" data-name="Calque 1"><path class="cls-1" d="M4,7.18l-.53.53A1.54,1.54,0,0,1,1.28,5.53l1-1,.22-.22.58-.58a1.24,1.24,0,0,1,.4-.29l.12-.06a1.8,1.8,0,0,1,.57-.11,1.48,1.48,0,0,1,.75.2,1.43,1.43,0,0,1,.24.16.15.15,0,0,0,.21,0l.36-.36a.16.16,0,0,0,0-.23.9.9,0,0,0-.19-.15,2.21,2.21,0,0,0-1-.37.45.45,0,0,0-.16,0,2.39,2.39,0,0,0-1.23.25,1,1,0,0,0-.23.12,2.08,2.08,0,0,0-.36.29L.69,5A2.37,2.37,0,0,0,2.37,9,2.4,2.4,0,0,0,4.05,8.3L5.21,7.12A2.29,2.29,0,0,1,4,7.18Z"/><path class="cls-1" d="M8.31.69A2.39,2.39,0,0,0,5,.69L3.72,1.93a2.49,2.49,0,0,1,.77-.07,2,2,0,0,1,.41.06l.64-.65A1.53,1.53,0,0,1,6.63.83,1.52,1.52,0,0,1,8,1.57a1.59,1.59,0,0,1-.26,1.92L6.51,4.66l-.58.58a1.32,1.32,0,0,1-.4.28A1.61,1.61,0,0,1,5,5.69a1.53,1.53,0,0,1-.93-.2,1.14,1.14,0,0,1-.23-.15.17.17,0,0,0-.22,0l-.36.36a.17.17,0,0,0,0,.23l.19.15a2.4,2.4,0,0,0,.78.36,1.76,1.76,0,0,0,.4.06h.18a2.25,2.25,0,0,0,.58-.07,2.36,2.36,0,0,0,.71-.31h0a1.86,1.86,0,0,0,.38-.3L8.31,4A2.38,2.38,0,0,0,8.31.69Z"/></g></g></svg>