<svg width="13" height="13" viewBox="0 0 13 13" fill="none" xmlns="http://www.w3.org/2000/svg">
<path d="M8.05469 9.75781C9.22656 8.58594 9.22656 6.64062 8.05469 5.44531C7.75 5.16406 7.42188 4.95312 7.07031 4.78906C6.92969 4.74219 6.74219 4.8125 6.69531 4.97656C6.67188 5.07031 6.64844 5.23438 6.625 5.32812C6.625 5.44531 6.69531 5.5625 6.8125 5.60938C7.04688 5.70312 7.25781 5.86719 7.44531 6.05469C8.3125 6.89844 8.3125 8.30469 7.46875 9.14844L7.44531 9.17188L5.59375 11.0234C4.72656 11.8906 3.34375 11.8906 2.47656 11.0234C1.60938 10.1562 1.60938 8.77344 2.47656 7.90625C2.47656 7.90625 3.85938 6.52344 4.23438 6.14844C4.30469 6.07812 4.32812 5.98438 4.32812 5.91406C4.30469 5.79688 4.30469 5.67969 4.30469 5.5625C4.28125 5.32812 4 5.21094 3.8125 5.375C3.78906 5.39844 3.76562 5.42188 3.74219 5.44531L1.89062 7.32031C0.695312 8.49219 0.695312 10.4375 1.89062 11.6094C3.0625 12.8047 5.00781 12.8047 6.17969 11.6094L8.05469 9.75781ZM5.92188 7.57812C6.22656 7.85938 6.55469 8.07031 6.90625 8.23438C7.04688 8.28125 7.23438 8.21094 7.28125 8.04688C7.30469 7.95312 7.32812 7.78906 7.35156 7.69531C7.35156 7.57812 7.28125 7.46094 7.16406 7.41406C6.92969 7.32031 6.71875 7.15625 6.53125 6.96875C5.66406 6.125 5.66406 4.71875 6.50781 3.875L6.53125 3.85156L8.38281 2C9.25 1.13281 10.6328 1.13281 11.5 2C12.3672 2.86719 12.3672 4.25 11.5 5.11719C11.5 5.11719 10.1172 6.5 9.74219 6.875C9.67188 6.94531 9.64844 7.03906 9.64844 7.10938C9.67188 7.20312 9.67188 7.36719 9.67188 7.46094C9.69531 7.69531 9.97656 7.8125 10.1641 7.64844C10.1875 7.625 10.2109 7.60156 10.2344 7.57812L12.0859 5.70312C13.2812 4.53125 13.2812 2.58594 12.0859 1.41406C10.9141 0.21875 8.96875 0.21875 7.79688 1.41406L5.92188 3.26562C4.75 4.4375 4.75 6.38281 5.92188 7.57812Z" fill="#27AAFF"/>
</svg>
