<svg xmlns="http://www.w3.org/2000/svg" viewBox="0 0 80 80"><defs><style>.cls-1{fill:none;}.cls-2{fill:#fff;}</style></defs><title>2Fichier 9</title><g id="Calque_2" data-name="Calque 2"><g id="Calque_1-2" data-name="Calque 1"><rect class="cls-1" width="80" height="80"/><path class="cls-2" d="M16.81,63.77l-4,2.95-2,1.47-.5.36c-.17.12-.28.31-.52.35l-1.24.42c-2.42.8-4.82,1.63-7.25,2.43A1,1,0,0,1,.17,70.26c1.42-2.12,2.87-4.21,4.3-6.33l.73-1.08c.1-.21.32-.27.47-.41l.49-.38,2-1.53L12,57.47Z"/><rect class="cls-2" x="12.15" y="34.89" width="63.11" height="7.91" transform="translate(-14.54 33.72) rotate(-36.61)"/><path class="cls-2" d="M74.39,20.21l-4.78-6.3,4.9-3.71a1,1,0,0,1,1.38.19l3.58,4.73a1,1,0,0,1-.19,1.39Z"/></g></g></svg>