<?xml version="1.0" encoding="UTF-8"?>
<svg width="23px" height="23px" viewBox="0 0 23 23" version="1.1" xmlns="http://www.w3.org/2000/svg" xmlns:xlink="http://www.w3.org/1999/xlink">
    <!-- Generator: sketchtool 52.6 (67491) - http://www.bohemiancoding.com/sketch -->
    <title>F1A72DAD-EC50-40CC-802D-B76B295443A5</title>
    <desc>Created with sketchtool.</desc>
    <g id="EXPLORATION" stroke="none" stroke-width="1" fill="none" fill-rule="evenodd">
        <g id="M-DASBOARD_EXPLORATION-2_1" transform="translate(-279.000000, -799.000000)" fill="#A2ACE3">
            <g id="CONTENT" transform="translate(0.000000, 280.000000)">
                <g id="plan-d'action" transform="translate(18.000000, 179.000000)">
                    <g id="1" transform="translate(2.000000, 147.000000)">
                        <g transform="translate(1.000000, 59.000000)" id="action">
                            <g transform="translate(29.000000, 19.000000)">
                                <g id="act1" transform="translate(0.000000, 45.000000)">
                                    <g id="ICON-/-Edit-exploration-/-inactive" transform="translate(229.800005, 70.700002)">
                                        <g id="ICON-/-Edit-exploration-/-active">
                                            <path d="M20.9447679,22.0000005 L0.991279091,22.0000005 C0.447674428,22.0000005 0,21.5908445 0,21.0557944 C0,20.5207444 0.447674428,20.1115884 0.991279091,20.1115884 L20.9767446,20.1115884 C21.5203493,20.1115884 21.9680237,20.5207444 21.9680237,21.0557944 C21.9680237,21.5908445 21.5203493,22.0000005 20.9447679,22.0000005 Z M17.7790702,2.76967102 L19.1220934,4.09155946 L8.85755833,14.194564 L7.38662807,14.3204581 L7.51453505,12.8726755 L17.7790702,2.76967102 Z M5.85174431,11.7396283 C5.75581408,11.8340489 5.69186059,11.9284695 5.65988384,12.0228901 L3.51744194,17.8454939 C3.45348845,18.0343352 3.64534892,18.2231764 3.83720939,18.1602293 L9.75290719,16.0515025 C9.88081417,15.9885554 9.9767444,15.9256084 10.0406979,15.8626613 L22.0000005,4.09155946 L17.8430236,0 L5.85174431,11.7396283 Z" id="Fill-1"></path>
                                        </g>
                                    </g>
                                </g>
                            </g>
                        </g>
                    </g>
                </g>
            </g>
        </g>
    </g>
</svg>