<?xml version="1.0" encoding="UTF-8"?>
<svg width="20px" height="20px" viewBox="0 0 20 20" version="1.1" xmlns="http://www.w3.org/2000/svg" xmlns:xlink="http://www.w3.org/1999/xlink">
    <!-- Generator: sketchtool 52.6 (67491) - http://www.bohemiancoding.com/sketch -->
    <title>373952B5-7755-46C4-A81D-CF62A53E785E</title>
    <desc>Created with sketchtool.</desc>
    <g id="DASHBOARD" stroke="none" stroke-width="1" fill="none" fill-rule="evenodd">
        <g id="D-DASBOARD" transform="translate(-245.000000, -256.000000)" fill="#FFFFFF">
            <g id="TOP" transform="translate(0.000000, 80.000000)">
                <g id="PROFILE">
                    <g id="avatar" transform="translate(122.000000, 35.000000)">
                        <g id="Group-2" transform="translate(0.000000, 3.000000)">
                            <g id="ICON-/-Edit_white" transform="translate(123.843602, 138.744186)">
                                <g id="Shape">
                                    <path d="M0.896376262,18.9553074 C0.976158442,18.9553074 1.05594062,18.9459213 1.1357228,18.922456 L6.89881207,17.303347 C7.1850893,17.2235648 7.44790119,17.0686935 7.65439625,16.8575054 L18.1715648,6.34033681 C18.6784163,5.83348531 18.9600005,5.16237638 18.9600005,4.44902982 C18.9600005,3.73568327 18.6831094,3.06457434 18.1762579,2.55772284 L16.4069707,0.788435665 C15.9001192,0.281584166 15.2290103,0 14.5109707,0 C13.7976241,0 13.1265152,0.276891097 12.6196637,0.783742596 L2.10249511,11.3056043 C1.89130698,11.5167924 1.74112876,11.7749112 1.65665351,12.0611884 L0.0375445553,17.8242777 C-0.051623764,18.1340203 0.0375445553,18.4672282 0.267504958,18.6971886 C0.431762388,18.8661391 0.66172279,18.9553074 0.896376262,18.9553074 Z M7.03021801,15.2290103 L3.73568327,11.9344756 L11.7514459,3.91871298 L15.0459806,7.21324772 L7.03021801,15.2290103 Z M14.5109707,1.59564361 C14.7972479,1.59564361 15.069446,1.70827727 15.275941,1.91007926 L17.0452282,3.67936644 C17.2470302,3.88116842 17.3596638,4.15336645 17.3596638,4.44433675 C17.3596638,4.73530706 17.2470302,5.00281202 17.0452282,5.20930707 L16.1723173,6.08221799 L12.8777825,2.78768324 L13.7506934,1.91477233 C13.9524954,1.70827727 14.2246935,1.59564361 14.5109707,1.59564361 Z M2.93786147,13.3987132 L5.56128728,16.022139 L1.91007926,17.0499213 L2.93786147,13.3987132 Z" fill-rule="nonzero"></path>
                                </g>
                            </g>
                        </g>
                    </g>
                </g>
            </g>
        </g>
    </g>
</svg>