<?xml version="1.0" encoding="UTF-8"?>
<svg width="22px" height="28px" viewBox="0 0 22 28" version="1.1" xmlns="http://www.w3.org/2000/svg" xmlns:xlink="http://www.w3.org/1999/xlink">
    <!-- Generator: sketchtool 52.6 (67491) - http://www.bohemiancoding.com/sketch -->
    <title>87BEABB9-21D6-4EDE-99A7-32388995AAC7</title>
    <desc>Created with sketchtool.</desc>
    <defs>
        <polygon id="path-1" points="0.000104379394 0.000160322969 19.5999226 0.000160322969 19.5999226 23.942029 0.000104379394 23.942029"></polygon>
    </defs>
    <g id="EXPLORATION" stroke="none" stroke-width="1" fill="none" fill-rule="evenodd">
        <g id="D-DASBOARD_EXPLORATION-2_1-test" transform="translate(-1279.000000, -969.000000)">
            <g id="RIGHT" transform="translate(119.000000, 331.000000)">
                <g id="domaine-1" transform="translate(103.000000, 431.000000)">
                    <g id="delete" transform="translate(1057.000000, 207.000000)">
                        <g id="Group-3" transform="translate(1.200000, 4.057971)">
                            <mask id="mask-2" fill="white">
                                <use xlink:href="#path-1"></use>
                            </mask>
                            <g id="Clip-2"></g>
                            <path d="M17.6008,0.976834783 L16.8596,21.2699362 C16.8472,21.6181101 16.5448,21.9131246 16.2,21.9131246 L3.4,21.9131246 C3.0556,21.9131246 2.7528,21.6168928 2.7404,21.2699362 L1.9992,0.976834783 C1.9788,0.41724058 1.5148,-0.0202086957 0.9628,0.000892753623 C0.4112,0.0215884058 -0.0196,0.492313043 0.000800000002,1.05231304 L0.7416,21.3446029 C0.794,22.782342 1.9796,23.9421101 3.4,23.9421101 L16.2,23.9421101 C17.6196,23.9421101 18.806,22.784371 18.8588,21.3446029 L19.5992,1.05231304 C19.62,0.492313043 19.1892,0.0215884058 18.6372,0.000892753623 C18.0852,-0.0202086957 17.6212,0.41724058 17.6008,0.976834783" id="Fill-1" fill="#A2ACE3" mask="url(#mask-2)"></path>
                        </g>
                        <path d="M10.2,9.13043478 L10.2,22.9275362 C10.2,23.3755362 10.5584,23.7391304 11,23.7391304 C11.4416,23.7391304 11.8,23.3755362 11.8,22.9275362 L11.8,9.13043478 C11.8,8.68243478 11.4416,8.31884058 11,8.31884058 C10.5584,8.31884058 10.2,8.68243478 10.2,9.13043478" id="Fill-4" fill="#A2ACE3"></path>
                        <path d="M5.8004,9.15421449 L6.2004,22.9513159 C6.2132,23.3993159 6.582,23.7519536 7.0236,23.7385623 C7.4652,23.7255768 7.8128,23.3514319 7.7996,22.9038377 L7.3996,9.10673623 C7.3868,8.65833043 7.018,8.30609855 6.5764,8.31908406 C6.1348,8.33247536 5.7872,8.70621449 5.8004,9.15421449" id="Fill-6" fill="#A2ACE3"></path>
                        <path d="M14.6004,9.10665507 L14.2004,22.9037565 C14.1876,23.3517565 14.5348,23.7254957 14.9764,23.738887 C15.418,23.7518725 15.7868,23.3996406 15.7996,22.9512348 L16.1996,9.15413333 C16.2124,8.70613333 15.8652,8.3323942 15.4236,8.3194087 C14.982,8.30601739 14.6132,8.65865507 14.6004,9.10665507" id="Fill-8" fill="#A2ACE3"></path>
                        <path d="M1,5.47826087 L21,5.47826087 C21.5524,5.47826087 22,5.02417391 22,4.46376812 C22,3.90336232 21.5524,3.44927536 21,3.44927536 L1,3.44927536 C0.4476,3.44927536 0,3.90336232 0,4.46376812 C0,5.02417391 0.4476,5.47826087 1,5.47826087" id="Fill-10" fill="#A2ACE3"></path>
                        <path d="M7.96152,4.13385507 L8.37792,2.65513043 C8.46712,2.3386087 8.87152,2.02898551 9.19672,2.02898551 L12.80352,2.02898551 C13.12832,2.02898551 13.53272,2.3382029 13.62232,2.65513043 L14.03832,4.13385507 L15.96152,3.57628986 L15.54512,2.09797101 C15.21072,0.909797101 14.02152,0 12.80352,0 L9.19672,0 C7.97872,0 6.78952,0.910202899 6.45472,2.09797101 L6.03832,3.57628986 L7.96152,4.13385507 Z" id="Fill-12" fill="#A2ACE3"></path>
                    </g>
                </g>
            </g>
        </g>
    </g>
</svg>