<svg width="10" height="10" viewBox="0 0 10 10" fill="none" xmlns="http://www.w3.org/2000/svg">
<g clip-path="url(#clip0)">
<path d="M1.98362 9.61712C1.99279 9.83118 2.16901 10 2.38327 10C4.12777 9.99994 5.87228 9.99993 7.61679 9.99999C7.83105 10 8.00727 9.83118 8.01644 9.61712L8.33332 2.22221H1.66666L1.98362 9.61712Z" fill="white"/>
<path d="M6.94445 0.555547L6.38887 0H3.61111L3.05554 0.555547H1.31111C1.20066 0.555547 1.11111 0.64509 1.11111 0.755547V1.46667C1.11111 1.57712 1.20066 1.66667 1.31111 1.66667H8.68888C8.79933 1.66667 8.88888 1.57712 8.88888 1.46667V0.755547C8.88888 0.64509 8.79933 0.555547 8.68888 0.555547H6.94445Z" fill="white"/>
</g>
<defs>
<clipPath id="clip0">
<rect width="10" height="10" fill="white"/>
</clipPath>
</defs>
</svg>
