<svg width="14" height="9" viewBox="0 0 14 9" fill="none" xmlns="http://www.w3.org/2000/svg">
<path d="M12.9766 0.75C12.8359 0.75 12.6953 0.796875 12.5547 0.890625L10 2.53125V1.125C10 0.515625 9.4375 0 8.78125 0H1.44531C0.789062 0 0.25 0.515625 0.25 1.125V7.89844C0.25 8.50781 0.789062 9 1.44531 9H8.78125C9.4375 9 10 8.50781 10 7.89844V6.49219L12.5547 8.13281C12.6953 8.22656 12.8359 8.25 12.9766 8.25C13.375 8.25 13.7266 7.94531 13.7266 7.52344V1.5C13.75 1.05469 13.375 0.75 12.9766 0.75ZM9.25 7.89844C9.25 8.08594 9.01562 8.25 8.78125 8.25H1.44531C1.21094 8.25 1 8.08594 1 7.89844V1.125C1 0.9375 1.21094 0.75 1.44531 0.75H8.78125C9.01562 0.75 9.25 0.9375 9.25 1.125V7.89844ZM13 7.52344L12.9531 7.5L10 5.60156V3.42188L13 1.5V7.52344Z" fill="#27AAFF"/>
</svg>
