<svg xmlns="http://www.w3.org/2000/svg" width="43" height="50" viewBox="0 0 43 50">
    <path fill="#FFF" fill-rule="evenodd" d="M20.476 46.939h2.048a.998.998 0 0 1-1.024 1.02.998.998 0 0 1-1.024-1.02zm-3.583-4.082h9.214v1.02c0 .614-.494 1.021-1.024 1.021h-7.166c-.53 0-1.024-.407-1.024-1.02v-1.02zm0-2.04h9.214v-2.041h-9.214v2.04zM37.88 20.407c-.565 0-1.024.457-1.024 1.02 0 .564.459 1.021 1.024 1.021h4.095c.565 0 1.024-.457 1.024-1.02 0-.564-.459-1.02-1.024-1.02h-4.095zm-36.857 0c-.565 0-1.024.457-1.024 1.02 0 .564.459 1.021 1.024 1.021h4.095c.565 0 1.024-.457 1.024-1.02 0-.564-.459-1.02-1.024-1.02H1.024zm19.34-8.61c-4.833.562-8.59 4.673-8.59 9.63 0 .991.154 1.938.432 2.838.115.554.753.93 1.295.766.543-.164.87-.831.656-1.355a7.617 7.617 0 0 1-.336-2.248 7.646 7.646 0 0 1 6.767-7.606c.536-.041.986-.565.944-1.1-.017-.703-.616-.964-1.168-.925zm1.136-1.594c5.713 0 11.262 4.407 11.262 10.635 0 4.174-1.498 6.555-3.136 8.865-1.47 2.073-3.13 4.126-3.455 7.03H16.83c-.325-2.904-1.985-4.957-3.455-7.03-1.638-2.31-3.136-4.69-3.136-8.865 0-6.228 5.549-10.635 11.262-10.635zm0-2.04c-6.772 0-13.31 5.247-13.31 12.675 0 4.684 1.83 7.66 3.52 10.044 1.69 2.384 3.135 4.135 3.135 6.872v6.123c0 1.732 1.44 3.06 3.072 3.06h.512c0 1.679 1.387 3.062 3.071 3.062 1.684 0 3.071-1.383 3.071-3.061h.512c1.631 0 3.072-1.33 3.072-3.061v-6.123c0-2.737 1.445-4.488 3.135-6.872 1.69-2.384 3.52-5.36 3.52-10.044 0-7.428-6.538-12.676-13.31-12.676zm14.477-2.185c-.261 0-.52.104-.72.303l-2.895 2.886c-.4.398-.4 1.036 0 1.435.4.398 1.04.398 1.44 0l2.895-2.886c.4-.399.4-1.036 0-1.435a1.017 1.017 0 0 0-.72-.303zm-28.954 0c-.262 0-.52.104-.72.303-.4.399-.4 1.036 0 1.435l2.895 2.886c.4.398 1.04.398 1.44 0 .4-.399.4-1.037 0-1.435L7.743 6.282a1.019 1.019 0 0 0-.72-.303zM21.5 0c-.565 0-1.024.457-1.024 1.02v4.082c0 .563.459 1.02 1.024 1.02s1.024-.457 1.024-1.02V1.02C22.524.457 22.065 0 21.5 0z"/>
</svg>
