<svg xmlns="http://www.w3.org/2000/svg" xmlns:xlink="http://www.w3.org/1999/xlink" width="38" height="33" viewBox="0 0 38 33">
    <defs>
        <path id="a" d="M0 .044h10.155v10.07H0z"/>
    </defs>
    <g fill="none" fill-rule="evenodd">
        <g transform="translate(0 .489)">
            <mask id="b" fill="#fff">
                <use xlink:href="#a"/>
            </mask>
            <path fill="#FFF" d="M8.564.045A1.524 1.524 0 0 0 7.27.899L4.594 6.201l-2.08-1.759a1.535 1.535 0 0 0-2.15.17 1.5 1.5 0 0 0 .172 2.13l3.55 3.015a1.532 1.532 0 0 0 2.347-.478l3.551-7.035c.386-.74.093-1.65-.653-2.032a1.54 1.54 0 0 0-.767-.167" mask="url(#b)"/>
        </g>
        <path fill="#FFF" d="M8.254 18.95c0 1.623-1.329 2.94-2.967 2.94-1.64 0-2.968-1.317-2.968-2.94 0-1.624 1.329-2.94 2.968-2.94 1.638 0 2.967 1.316 2.967 2.94M8.254 30.017c0 1.623-1.329 2.94-2.967 2.94-1.64 0-2.968-1.317-2.968-2.94 0-1.624 1.329-2.94 2.968-2.94 1.638 0 2.967 1.316 2.967 2.94"/>
        <path stroke="#FFF" stroke-linecap="round" stroke-linejoin="round" stroke-width="3.6" d="M15.76 8.385h20.015M15.76 19.03h20.015M15.76 29.676h20.015"/>
    </g>
</svg>
