<svg xmlns="http://www.w3.org/2000/svg" xmlns:xlink="http://www.w3.org/1999/xlink" width="41" height="32" viewBox="0 0 41 32">
    <defs>
        <path id="a" d="M0 .669h40.8V31.9H0z"/>
    </defs>
    <g fill="none" fill-rule="evenodd">
        <path fill="#FFF" d="M28.669 18.092H17.643c-.611 0-1.108.493-1.108 1.1 0 .607.497 1.1 1.108 1.1H28.67c.612 0 1.108-.493 1.108-1.1 0-.607-.496-1.1-1.108-1.1"/>
        <g transform="translate(0 -.569)">
            <mask id="b" fill="#fff">
                <use xlink:href="#a"/>
            </mask>
            <path fill="#FFF" d="M32.292 23.622a1.115 1.115 0 0 0-1.108.242c-4.971 4.433-12.623 4.026-17.088-.909a11.95 11.95 0 0 1 .916-16.963c4.971-4.434 12.621-4.027 17.087.909a11.942 11.942 0 0 1 2.32 12.266c-.116.302-.09.64.067.924l2.826 5.049-5.02-1.518zm-17.73 5.5a11.917 11.917 0 0 1-6.449-1.892 1.117 1.117 0 0 0-1.02-.1l-3.889 1.585 1.629-3.741c.168-.358.13-.778-.1-1.1C1.104 18.472 2.575 11.17 8.018 7.567c1.237-.818 2.62-1.399 4.074-1.71-5.033 6.054-4.168 15.012 1.93 20.007a14.345 14.345 0 0 0 4.618 2.532 11.93 11.93 0 0 1-4.078.726zm25.996-1.496c.28-.35.32-.832.101-1.221l-3.901-7.04c2.494-7.448-1.566-15.494-9.068-17.97a14.41 14.41 0 0 0-12.962 2.009h-.177C6.785 3.408.493 9.66.497 17.369a13.89 13.89 0 0 0 2.064 7.276l-2.47 5.72A1.098 1.098 0 0 0 .67 31.81c.275.118.585.12.86.007l5.875-2.398a14.126 14.126 0 0 0 14.759-.341h.975a14.377 14.377 0 0 0 9.12-3.3l7.092 2.112c.42.164.897.06 1.207-.264z" mask="url(#b)"/>
        </g>
        <path fill="#FFF" d="M28.669 9.292H17.643c-.611 0-1.108.493-1.108 1.1 0 .607.497 1.1 1.108 1.1H28.67c.612 0 1.108-.493 1.108-1.1 0-.607-.496-1.1-1.108-1.1M28.669 13.692H17.643c-.611 0-1.108.493-1.108 1.1 0 .607.497 1.1 1.108 1.1H28.67c.612 0 1.108-.493 1.108-1.1 0-.607-.496-1.1-1.108-1.1"/>
    </g>
</svg>
