<svg xmlns="http://www.w3.org/2000/svg" xmlns:xlink="http://www.w3.org/1999/xlink" width="308" height="367" viewBox="0 0 308 367">
    <defs>
        <path id="a" d="M0 .195h277.249v331.263H0z"/>
    </defs>
    <g fill="none" fill-rule="evenodd">
        <path fill="#140963" d="M55.494 31.597c4-36 166-50 205 8 50 90-206 28-205-8"/>
        <g transform="translate(0 31.402)">
            <mask id="b" fill="#fff">
                <use xlink:href="#a"/>
            </mask>
            <path fill="#281586" d="M172.494 312.195s-7-62 37-116c28.23-34.646 100.169-90.956 51-188-92 52-205-8-205-8s-22.841 64.343-51 99c-13 16 5.824 19.767 11 34s-14.764 32.358-7 66c7.764 33.642 93.29 50.071 70 129 0 0 46 14 94-16" mask="url(#b)"/>
        </g>
        <path fill="#281586" d="M18.494 288.597c0-16 46-9 38 45s-32 30-27 8-11-37-11-53M286.91 71.348s-3.195 50.939 14.987 43.364c18.183-7.576-10.237-75.261-14.986-43.364"/>
        <path fill="#140963" d="M78.494 359.597s40-47 94-16c-14.148 16.758-65 30-94 16"/>
        <path fill="#281586" d="M224.494 257.597a9 9 0 0 1-9 9 9 9 0 0 1-9-9 9 9 0 0 1 9-9 9 9 0 0 1 9 9"/>
    </g>
</svg>
