<svg xmlns="http://www.w3.org/2000/svg" width="310" height="381" viewBox="0 0 310 381">
    <g fill="none" fill-rule="evenodd">
        <path fill="#281586" d="M172.994 356.479s-7-62 37-116c28.23-34.646 97.17-73.956 48-171-46.303-91.388-152.83-83.227-202-25-15.75 18.653-22.84 64.343-51 99-13 16 5.825 19.767 11 34 5.177 14.233-14.764 32.358-7 66 7.765 33.642 93.291 50.071 70 129 0 0 46 14 94-16"/>
        <path fill="#140963" d="M80.494 373.597s40-47 94-16c-14.148 16.758-65 30-94 16"/>
        <path fill="#281586" d="M20.494 302.597c0-16 46-9 38 45s-32 30-27 8-11-37-11-53M288.91 85.348s-3.195 50.939 14.987 43.364c18.183-7.576-10.237-75.261-14.986-43.364M226.494 271.597a9 9 0 0 1-9 9 9 9 0 0 1-9-9 9 9 0 0 1 9-9 9 9 0 0 1 9 9"/>
    </g>
</svg>
