<svg xmlns="http://www.w3.org/2000/svg" width="106" height="38" viewBox="0 0 106 38">
    <path fill="#1DD4B6" fill-rule="evenodd" d="M88.306 3.217C71.356.13 53.984-1.031 36.841 1.05c-8.386 1.018-16.705 2.771-24.726 5.46C7.203 8.154.685 11.152.05 17.088c-.685 6.405 5.754 10.26 10.745 12.412 8.057 3.474 16.789 5.053 25.419 6.288A212.272 212.272 0 0 0 62.9 37.912c8.56.137 17.38.086 25.832-1.446 6.107-1.107 17.03-3.805 16.723-11.949-.305-8.151-8.844-11.106-15.355-12.8-1.007-.26-1.436 1.31-.43 1.571 5.834 1.517 16.167 4.972 13.972 13.208-1.018 3.818-5.552 5.602-8.864 6.746-3.56 1.229-7.287 1.893-11.02 2.294-14.787 1.59-30.029.93-44.75-.994-7.43-.971-14.936-2.19-22.093-4.485C11.472 28.311.33 24.575 1.702 16.842c1.135-6.397 9.932-8.586 15.088-10.086 7.19-2.092 14.57-3.505 22.01-4.3C55.168.703 71.714 1.843 87.878 4.786c1.016.185 1.452-1.384.43-1.57"/>
</svg>
