<svg xmlns="http://www.w3.org/2000/svg" xmlns:xlink="http://www.w3.org/1999/xlink" width="58" height="58" viewBox="0 0 58 58">
    <defs>
        <path id="a" d="M0 .099h17.909V29.6H0z"/>
    </defs>
    <g fill="none" fill-rule="evenodd" transform="translate(2 2)">
        <ellipse cx="26.887" cy="27" stroke="#FFF" stroke-width="3.843" opacity=".301" rx="26.887" ry="27"/>
        <path stroke="#FFF" stroke-linecap="round" stroke-width="3.843" d="M26.186 0c5.495 0 21.442 2.258 26.657 20.449"/>
        <g transform="translate(17 13.4)">
            <mask id="b" fill="#fff">
                <use xlink:href="#a"/>
            </mask>
            <path fill="#FFF" stroke="#FFF" stroke-width=".3" d="M16.72 17.175c0 .038-.006.074-.01.11V19.1l.01-.006v3.054c0 3.454-2.672 6.265-5.958 6.265h-3.62c-3.283 0-5.954-2.811-5.954-6.265v-4.605a.588.588 0 0 0 .008-.138l.004-.045a.585.585 0 0 0-.012-.12v-5.27c0-.494.355-.943.848-.997a.946.946 0 0 1 .79.28c.18.177.28.416.28.673v5.322c0 .037 0 .272-.005.636l.003.03a.606.606 0 0 0 .054.227.508.508 0 0 0 .058.098.626.626 0 0 0 .12.123.781.781 0 0 0 .053.036c.009.004.016.012.025.016.223.12.423.24.61.369l.144.095c.283.2.548.418.791.65a7.036 7.036 0 0 1 2.238 5.166.594.594 0 0 0 1.188 0c0-1.899-.641-3.684-1.807-5.143-.106-.1-.199-.214-.277-.338a8.006 8.006 0 0 0-1.516-1.348V3.594c0-.5.36-.959.858-1.01a.96.96 0 0 1 1.059.955v11.575h.046c.656 0 1.188-.532 1.188-1.188V2.302c0-.501.36-.96.859-1.01a.96.96 0 0 1 1.059.953v12.87h.328c.656 0 1.188-.533 1.188-1.19V4.15c0-.501.36-.959.859-1.01a.96.96 0 0 1 1.059.954v11.021h.329c.656 0 1.188-.532 1.188-1.188v-7.56c0-.501.36-.959.858-1.01a.96.96 0 0 1 1.059.953v10.866h-.001zm1.188-10.774c0-1.162-.884-2.18-2.044-2.235a2.133 2.133 0 0 0-1.39.43v-.412c0-1.161-.884-2.181-2.044-2.235a2.131 2.131 0 0 0-1.39.43v-.046c0-1.127-.832-2.128-1.955-2.226a2.148 2.148 0 0 0-2.261 1.58 2.13 2.13 0 0 0-1.31-.282c-1.108.117-1.918 1.11-1.918 2.223v6.727a2.112 2.112 0 0 0-1.477-.577C.927 9.793 0 10.834 0 12.026v5.221c0 .048.006.093.01.14-.004.05-.01.098-.01.149v4.612C0 26.257 3.204 29.6 7.143 29.6h3.619c3.94 0 7.147-3.343 7.147-7.452v-4.612c0-.052-.007-.101-.01-.152a2.11 2.11 0 0 0 .01-.209V6.401z" mask="url(#b)"/>
        </g>
        <path fill="#FFF" stroke="#FFF" stroke-width=".5" d="M23.872 7.566l-.028 2.972a.57.57 0 0 0 .566.576h.005a.57.57 0 0 0 .57-.566l.028-2.972A.57.57 0 0 0 24.448 7a.585.585 0 0 0-.576.566M20.924 11.609a.57.57 0 0 0 .798.12.57.57 0 0 0 .12-.799l-1.767-2.39a.57.57 0 1 0-.918.678l1.767 2.39zM28.811 8.564l-1.81 2.358a.57.57 0 1 0 .905.695l1.811-2.358a.571.571 0 0 0-.906-.695"/>
    </g>
</svg>
